<?xml version="1.0" standalone="no"?>
<!DOCTYPE svg PUBLIC "-//W3C//DTD SVG 1.1//EN" "http://www.w3.org/Graphics/SVG/1.1/DTD/svg11.dtd" >
<svg xmlns="http://www.w3.org/2000/svg" xmlns:xlink="http://www.w3.org/1999/xlink" version="1.1">
<metadata>
Created by FontForge 20170731 at Wed Oct 14 19:38:06 2015
 By Aleksey,,,
Copyright (c) 2015 by CAT-Fonts, Peter Wiegel . All rights reserved.
</metadata>
<defs>
<font id="KabinettFraktur-Bold" horiz-adv-x="500" >
  <font-face 
    font-family="Kabinett Fraktur"
    font-weight="700"
    font-stretch="normal"
    units-per-em="1000"
    panose-1="0 0 0 0 0 0 0 0 0 0"
    ascent="750"
    descent="-250"
    x-height="433"
    cap-height="673"
    bbox="-65 -272 1296 916"
    underline-thickness="50"
    underline-position="-150"
    unicode-range="U+000D-FB05"
  />
<missing-glyph horiz-adv-x="239" 
d="M0 95v436l18 23h201l22 -20v-442l-22 -20h-201zM40 112h161v402h-161v-402z" />
    <glyph glyph-name="t_z" unicode="tz" horiz-adv-x="470" 
d="M256 633q0 -10 -7.5 -19.5t-18 -19l-21 -19t-16.5 -19.5q-3 -17 -4 -34.5t-1 -34.5q0 -22 1.5 -43.5t3.5 -43.5q13 1 25.5 0t25.5 -1q19 0 31 4.5t20.5 12.5t16 19t16.5 25q18 -12 26 -20.5t16.5 -16.5t21.5 -17.5t40 -24.5q-27 -34 -61.5 -59.5t-64.5 -55.5
q21 -10 48 -15.5t50.5 -16.5t39.5 -32t16 -62q0 -44 -21 -81t-54 -64q-12 -9 -23.5 -24.5t-23 -31.5t-23 -30t-23.5 -21q-16 5 -32 9.5t-33 4.5q-15 0 -27 -7t-26 -13q0 -29 23 -43.5t49 -14.5q27 0 37.5 4.5t16.5 11.5t11.5 16.5t21.5 20.5q2 -5 3 -9.5t1 -9.5l-1 -9
q-14 -21 -37.5 -32.5t-48.5 -11.5q-40 0 -67.5 21t-27.5 65q0 13 7.5 31.5t19.5 34.5t26.5 27.5t29.5 11.5q27 0 55.5 -5.5t53.5 -17.5q6 10 11.5 20t10.5 21v4q0 24 -13 57t-34 63t-47 51t-52 21q-9 0 -18 -1t-17 -3q2 -20 1 -42t3 -40t17.5 -30t44.5 -12q13 7 25 15t27 10
q-7 -13 -27 -28.5t-45 -30.5t-49 -28.5t-38 -22.5q-30 25 -58 42t-66 29l-5 11q4 3 10.5 5.5t12.5 4.5t11 5.5t7 9.5q6 26 5 61t-1 63q0 32 -1 62.5t-3 62.5q-12 2 -23.5 3t-23.5 3q-2 9 -2 18v18q13 2 26 3.5t26 1.5v74q1 1 13.5 12.5t31 28t40.5 35.5t41.5 36t33.5 29
t18 15zM189 282v-27.5t2 -27.5q9 3 29 11t40.5 18.5t35.5 22t15 22.5q0 14 -10 24t-24.5 16.5t-30 9.5t-26.5 3q-16 0 -22.5 -6.5t-8.5 -17t-1 -23.5t1 -25z" />
    <glyph glyph-name="longs_i" unicode="&#x17f;i" horiz-adv-x="496" 
d="M251 646q-11 -28 -18.5 -60t-22.5 -58q-11 1 -23 1.5t-23 0.5q-30 0 -43.5 -3t-19 -12t-7 -25t-8.5 -41q17 -12 35 -16.5t33 -12t24.5 -21t9.5 -43.5q0 -81 -3 -160t-3 -160q0 -9 -3 -30.5t-8 -48.5t-11.5 -55.5t-14.5 -52.5t-16.5 -40.5t-17.5 -17.5q-22 73 -33.5 138.5
t-17 130.5t-7 132t-2.5 142q-10 2 -19.5 2.5t-19.5 2.5l-2 17l5 11q22 16 37 49.5t27 73t21 79t19 66.5q31 7 62.5 9t63.5 8zM384 653q9 0 19.5 -2.5t19.5 -8t15 -13.5t6 -19q0 -12 -16.5 -31.5t-37.5 -39t-40 -33.5t-23 -14q-5 0 -8.5 4t-3.5 9q0 17 2.5 42t9.5 48.5
t20.5 40.5t36.5 17zM245 81q14 5 27.5 11.5t13.5 22.5v189q0 20 -5 33t-20 15q-5 0 -13.5 -4t-18.5 -11l-9 14q15 15 33.5 30.5t36.5 28.5t33 22.5t23 11.5q6 -8 19.5 -18.5t29 -20.5t31.5 -18.5t27 -13.5v-17q-6 0 -13 -0.5t-13 -3t-10 -7t-3 -11.5l-2 -186q0 -9 0.5 -19.5
t3.5 -20t9.5 -16t18.5 -6.5q5 0 13 3.5t18 8.5l10 -16q-19 -11 -39.5 -25.5t-38 -27.5t-30 -21.5t-14.5 -8.5q-1 0 -13.5 8.5t-30.5 19.5t-38 22t-35 16z" />
    <glyph glyph-name="longs_l" unicode="&#x17f;l" horiz-adv-x="483" 
d="M251 646q-11 -28 -18.5 -60t-22.5 -58q-11 1 -23 1.5t-23 0.5q-30 0 -43.5 -3t-19 -12t-7 -25t-8.5 -41q17 -12 35 -16.5t33 -12t24.5 -21t9.5 -43.5q0 -81 -3 -160t-3 -160q0 -9 -3 -30.5t-8 -48.5t-11.5 -55.5t-14.5 -52.5t-16.5 -40.5t-17.5 -17.5q-22 73 -33.5 138.5
t-17 130.5t-7 132t-2.5 142q-10 2 -19.5 2.5t-19.5 2.5l-2 17l5 11q22 16 37 49.5t27 73t21 79t19 66.5q31 7 62.5 9t63.5 8zM474 666q-31 0 -47.5 -16.5t-24 -39t-8.5 -44.5t-2 -33l-2 -383q0 -23 11.5 -42t37.5 -19q5 0 15 3.5t21 7.5l8 -17q-23 -11 -41 -21t-34.5 -20.5
t-31.5 -22t-31 -25.5q-28 27 -59.5 47.5t-69.5 31.5v19q15 1 29 10t16 26l1 338v46.5t-3.5 44.5t-12 42t-25.5 39l14 11q14 -12 27.5 -28t22.5 -35q30 48 74 74t114 27z" />
    <glyph glyph-name="c_k" unicode="ck" horiz-adv-x="604" 
d="M513 704q16 0 39 -7t38 -13l3 -19l-11 -5q-16 11 -34 17.5t-38 6.5q-24 0 -41.5 -9.5t-28 -25t-15.5 -35.5t-5 -41v-9q8 2 29.5 14t44 25t40.5 23.5l18 10.5q9 0 16.5 -10.5t13.5 -24.5t9 -28t3 -21q0 -29 -13 -49.5t-32 -36t-41.5 -29t-40.5 -28.5l3 -8l65 1h16.5
t16.5 -1q2 -7 3 -13t1 -13q0 -12 -14 -16t-33 -4t-37.5 2t-27.5 2h-20.5t-19.5 -2q-4 -23 -5 -48t-1 -50.5t0.5 -50.5t0.5 -48q0 -9 12 -20t28.5 -20.5t32.5 -16t25 -6.5q14 0 26.5 8t26.5 8q-2 -8 -2 -13.5t-7 -10.5q-15 -12 -32.5 -20.5t-35.5 -15.5q-20 -8 -34 -19
t-32 -22q-8 -4 -13 -4q-11 0 -26.5 10.5t-34.5 23t-42.5 23t-50.5 10.5q-9 0 -26.5 -10t-37 -21.5t-38 -21.5t-28.5 -10h-4q-8 4 -25 13t-35 19.5t-32 20.5t-15 16q-5 49 -4 101t1 102q0 10 0.5 19.5t5.5 18.5q3 6 15 17.5t28.5 25t36 28t37.5 27.5t32.5 23.5t22.5 15.5
l82 -74q16 11 17 21.5t1 28.5q0 24 -2 47.5t-2 47.5q0 28 -8 49t-17.5 35.5t-17.5 23.5t-8 13t3.5 6.5t6.5 3.5q19 -12 33.5 -28t26.5 -35l47 47t41.5 33t49 19t70.5 6zM418 528q-3 -21 -3 -43q0 -17 1.5 -34.5t3.5 -34.5q14 5 26 10.5t21 13.5t14.5 19.5t5.5 28.5
q0 41 -26 70q-13 -4 -24 -11.5t-19 -18.5zM185 312q-8 8 -15.5 16t-14.5 17h-11q-1 -12 -1.5 -24.5t-0.5 -25.5q0 -35 -0.5 -75t4.5 -75q2 -4 14.5 -13t27 -18t27.5 -16t18 -7q6 0 15 2.5t17 6.5t14 10t7 13q7 58 4 120t-1 121q-12 -6 -22.5 -15t-21.5 -17.5t-23 -14.5
t-26 -6z" />
    <glyph glyph-name="f_t" unicode="ft" horiz-adv-x="538" 
d="M241 85q21 3 29 15t9 29v221h-91v-101q0 -59 -5 -130t-14 -137t-21 -118t-26 -72q-14 20 -24 49.5t-18 61.5t-13 64t-8 58q-11 79 -9.5 161t0.5 164h-36l1 49q7 1 20.5 6t21.5 22q11 26 17.5 55.5t12.5 59t14.5 58t23.5 52.5q17 4 35 3t34 0.5t29.5 8.5t22.5 26l13 -2
q-6 -36 -17.5 -70t-17.5 -70q-29 -2 -57.5 -3t-57.5 -5q-5 -18 -10 -35.5t-7 -35.5q4 -14 18 -19t26 -9q11 -3 18 -7t12.5 -8.5t11 -9.5t14.5 -9q12 -6 34 -6h53v65q1 1 14 14.5t32 33t42 43t43 44t34 35t16 16.5l19 -11q-9 -10 -21 -23.5t-23.5 -28t-19 -28.5t-7.5 -24
v-136h94v-51h-94v-196q0 -13 6 -25t15 -21t20 -14.5t22 -5.5q10 0 20.5 7.5t20.5 18.5l11 -16q-11 -11 -34 -29.5t-48 -36.5t-46 -31t-26 -13q-6 0 -20 11.5t-32.5 26t-38.5 26.5t-37 14v19z" />
    <glyph glyph-name="f_f_t" unicode="fft" horiz-adv-x="769" 
d="M490 688q-6 -36 -17.5 -70t-17.5 -70q-29 -2 -57.5 -3t-57.5 -5q-5 -18 -10 -35.5t-7 -35.5q4 -14 18 -19t26 -9q11 -3 18 -8t13 -10t12 -10.5t15 -9.5q12 -6 25.5 -4.5t26.5 -3.5q10 2 19.5 2.5t19.5 2.5v66q0 1 13 14.5t32.5 33.5t42.5 43.5t42.5 44t34 34.5t16.5 16
l19 -11q-7 -9 -19.5 -22.5t-24.5 -28t-21 -29t-9 -24.5q0 -8 0.5 -29t1.5 -44.5t2.5 -43t3.5 -23.5q21 -2 42.5 -0.5t42.5 3.5l6 -5q0 -11 -0.5 -21t-2.5 -21q-23 -2 -47 -2.5t-46 -10.5q2 -41 0.5 -81t-1.5 -81q0 -18 1.5 -34t7.5 -28.5t19 -20t36 -7.5q11 5 19.5 13.5
t21.5 8.5l1 -10q0 -8 -20 -24t-44.5 -32.5t-47.5 -29t-29 -12.5q-1 0 -23 12t-47.5 27t-47 27.5t-22.5 13.5q11 5 25 9.5t19 18.5q3 9 4 33t1 51t-0.5 52.5t-0.5 38.5l-1 66l-43 3q-14 -2 -27 -1.5t-27 -1.5q-2 -26 -1 -51t1 -51q0 -117 -10 -228.5t-47 -223.5
q-12 3 -20 19.5t-13 36.5t-8 40.5t-6 32.5q-5 25 -13.5 49.5t-11.5 49.5q-5 39 -6 79.5t-0.5 81t1 81.5t-2.5 81q-5 1 -13.5 1.5t-18 1t-18 1t-13.5 0.5h-15.5t-15.5 -1q-2 -26 -1 -51t1 -51q0 -117 -10 -228.5t-47 -223.5q-12 3 -20 19.5t-13 36.5t-8 40.5t-6 32.5
q-5 25 -13.5 49.5t-11.5 49.5q-5 39 -6 79.5t-0.5 81t1 81.5t-2.5 81q-11 2 -20.5 2.5t-20.5 2.5v6q0 11 6 19.5t14 16t15.5 15t11.5 17.5q10 26 16.5 55.5l13 59t15 58t23.5 52.5q17 4 35 3t34 0.5t29.5 8.5t22.5 26l13 -2q-6 -36 -17.5 -70t-17.5 -70q-29 -2 -57.5 -3
t-57.5 -5q-5 -18 -10 -35.5t-7 -35.5q4 -14 18 -19t26 -9q11 -3 18 -8t13 -10t12 -10.5t15 -9.5q5 -3 14.5 -3.5t20 -1t20 -0.5t15.5 -1q7 7 13.5 14t10.5 16q10 26 16.5 55.5l13 59t15 58t23.5 52.5q17 4 35 3t34 0.5t29.5 8.5t22.5 26z" />
    <glyph glyph-name="t_t" unicode="tt" horiz-adv-x="552" 
d="M24 85q21 3 29 15t9 29v221h-53v51h53v65q0 1 13.5 14.5t32.5 33t42 43t43 44t34 35t16 16.5l19 -11q-9 -10 -21 -23.5t-23.5 -28t-19 -28.5t-7.5 -24v-136h102v65q0 1 13.5 14.5t32.5 33t42 43t43 44t34 35t16 16.5l19 -11q-9 -10 -21 -23.5t-23.5 -28t-19 -28.5
t-7.5 -24v-136h94v-51h-94v-196q0 -13 6 -25t15 -21t20 -14.5t22 -5.5q10 0 20.5 7.5t20.5 18.5l11 -16q-11 -11 -34 -29.5t-48 -36.5t-46 -31t-26 -13t-17.5 10t-29 23t-35 25.5t-35.5 17.5q-17 -13 -35 -26.5t-34.5 -24.5t-28.5 -18t-16 -7q-6 0 -20 11.5t-32.5 26
t-38.5 26.5t-37 14v19zM254 88q17 0 27 12t12 29v221h-102v-196q0 -13 6 -25t15 -21t20 -14.5t22 -5.5z" />
    <glyph glyph-name="c_h" unicode="ch" horiz-adv-x="694" 
d="M489 693q13 0 30 -4.5t25 -15.5l-2 -13q-17 2 -33.5 5.5t-33.5 3.5q-27 0 -40.5 -25.5t-18 -59t-4 -67.5t0.5 -52v-48t2 -48q38 18 73 43t75 40q18 -24 39 -50t39 -54t30.5 -57.5t12.5 -61.5q0 -23 -14 -63t-36.5 -86t-49 -92.5t-52 -84t-46 -60.5t-29.5 -20l-17 4
q4 13 27 39.5t48.5 61.5t46.5 75.5t21 80.5q0 82 -35 154.5t-89 133.5q-11 -9 -24 -14.5t-20 -18.5q-2 -49 -2 -97v-97q0 -10 9 -20.5t21.5 -18.5t26 -13.5t22.5 -5.5q13 0 26 7t26 10q-2 -6 -2 -11t-6 -9t-29 -17t-48.5 -27t-46.5 -25t-24 -11q-9 0 -22.5 9.5t-30 20.5
t-34.5 20.5t-35 9.5q-24 0 -43.5 -9t-35.5 -20t-29 -20t-22 -9q-3 0 -22 10.5t-40.5 23t-39.5 24.5t-19 15q-3 8 -3.5 18t-0.5 19q0 72 -0.5 114t3 66.5t13 37t29.5 26t52.5 33.5t82.5 59l10 2q11 -5 20 -15t18 -21.5t19.5 -21t25.5 -13.5q2 32 2.5 64.5t0.5 64.5
q0 37 -6.5 58t-15 34t-17 24t-13.5 29l15 2q9 -4 15.5 -10.5t12 -14t10.5 -15.5t12 -14q1 -3 4 -3q2 0 9 7t15 16t16 17.5t11 11.5q28 23 63.5 31t70.5 8zM202 308q-10 0 -17.5 5t-14 12.5t-12 16t-11.5 14.5q-5 -13 -5 -31q0 -44 -1 -89t3 -89q0 -6 11.5 -16t26.5 -20.5
t29.5 -19.5t20.5 -12q27 0 49 19q2 6 3.5 32t2.5 57.5t1.5 60.5t0.5 39q0 18 -2 34.5t2 34.5q-12 -2 -22.5 -10t-21 -16.5t-21 -15t-22.5 -6.5z" />
    <glyph glyph-name="longs_k" unicode="&#x17f;k" horiz-adv-x="592" 
d="M251 646q-2 -4 -2 -6q17 -18 30.5 -40t18.5 -35q7 15 16 36.5t28 41t52.5 33.5t89.5 14q24 0 50.5 -6.5t48.5 -16.5l-8 -24q-16 8 -34.5 15.5t-42.5 7.5q-45 0 -65.5 -20t-20.5 -64v-29l129 72q17 -15 29 -36.5t12 -44.5q0 -31 -14 -52.5t-34.5 -37.5t-44.5 -28.5
t-45 -25.5l119 1l-1 -51h-150v-209q-1 -12 12 -23.5t30.5 -20.5t34.5 -14t25 -4q10 1 22.5 9.5t26.5 16.5l13 -17q-14 -12 -39.5 -28t-51.5 -30.5t-47.5 -24.5t-27.5 -10h-14q-35 22 -70.5 41.5t-78.5 22.5v17q17 9 28.5 21t10.5 32v221h-63l1 50h63l1 28q2 57 -6.5 102.5
t-40.5 85.5q-7 -23 -13.5 -46t-17.5 -42q-11 1 -23 1.5t-23 0.5q-30 0 -43.5 -3t-19 -12t-7 -25t-8.5 -41q17 -12 35 -16.5t33 -12t24.5 -21t9.5 -43.5q0 -81 -3 -160t-3 -160q0 -9 -3 -30.5t-8 -48.5t-11.5 -55.5t-14.5 -52.5t-16.5 -40.5t-17.5 -17.5q-22 73 -33.5 138.5
t-17 130.5t-7 132t-2.5 142q-10 2 -19.5 2.5t-19.5 2.5l-2 17l5 11q22 16 37 49.5t27 73t21 79t19 66.5q29 6 58.5 8t58.5 7l1 1v-1l8 2zM445 545q-20 -6 -26.5 -13.5t-6.5 -16.5l1 -95q25 7 43 24.5t18 44.5q0 7 -1.5 16.5t-4.5 18.5t-8.5 15t-14.5 6z" />
    <glyph glyph-name="f_f" unicode="ff" horiz-adv-x="480" 
d="M188 249q0 -59 -5 -130t-14 -137t-21 -118t-26 -72q-14 20 -24 49.5t-18 61.5t-13 64t-8 58q-11 79 -9.5 161t0.5 164h-36l1 49q7 1 20.5 6t21.5 22q11 26 17.5 55.5t12.5 59t14.5 58t23.5 52.5q17 4 39 3t43 0.5t38 8.5t26 26l13 -2q-6 -36 -17.5 -70t-17.5 -70
q-14 -1 -32.5 -2t-37.5 -1.5t-37.5 -1.5t-32.5 -3q-5 -18 -10 -35.5t-7 -35.5q4 -14 18 -19t26 -9q22 -7 37.5 -16t32.5 -18q16 -9 33.5 -3.5t25.5 23.5q11 26 17.5 55.5t12.5 59t14.5 58t23.5 52.5q17 4 35 3t34 0.5t29.5 8.5t22.5 26l13 -2q-6 -36 -17.5 -70t-17.5 -70
q-29 -2 -57.5 -3t-57.5 -5q-5 -18 -10 -35.5t-7 -35.5q4 -14 18 -19t26 -9q11 -3 18 -7t12.5 -8.5t11 -9.5t14.5 -9q11 -5 28.5 -5.5t32.5 -0.5v-51h-65v-101q0 -59 -5 -130t-14 -137t-21 -118t-26 -72q-14 20 -24 49.5t-18 61.5t-13 64t-8 58q-11 79 -9.5 161t0.5 164h-70
v-101z" />
    <glyph glyph-name="f_i" unicode="fi" horiz-adv-x="494" 
d="M239 76q14 5 27.5 11.5t13.5 22.5v189q0 20 -3.5 34.5t-18.5 16.5h-70v-101q0 -59 -5 -130t-14 -137t-21 -118t-26 -72q-14 20 -24 49.5t-18 61.5t-13 64t-8 58q-11 79 -9.5 161t0.5 164h-36l1 49q7 1 20.5 6t21.5 22q11 26 17.5 55.5t12.5 59t14.5 58t23.5 52.5
q17 4 35 3t34 0.5t29.5 8.5t22.5 26l13 -2q-6 -36 -17.5 -70t-17.5 -70q-29 -2 -57.5 -3t-57.5 -5q-5 -18 -10 -35.5t-7 -35.5q4 -14 18 -19t26 -9q11 -3 18 -7t12.5 -8.5t11 -9.5t14.5 -9q5 -3 15.5 -4t22.5 -1.5t23.5 -0.5h19.5q7 0 17 4.5t20 11t18.5 13t11.5 9.5
q6 -8 19.5 -18.5t29 -20.5t31.5 -18.5t27 -13.5v-17q-6 0 -13 -0.5t-13 -3t-10 -7t-3 -11.5l-2 -186q0 -9 0.5 -19.5t3.5 -20t9.5 -16t18.5 -6.5q5 0 13 3.5t18 8.5l10 -16q-19 -11 -39.5 -25.5t-38 -27.5t-30 -21.5t-14.5 -8.5q-1 0 -13.5 8.5t-30.5 19.5t-38 22t-35 16z
M378 648q9 0 19.5 -2.5t19.5 -8t15 -13.5t6 -19q0 -12 -16.5 -31.5t-37.5 -39t-40 -33.5t-23 -14q-5 0 -8.5 4t-3.5 9q0 17 2.5 42t9.5 48.5t20.5 40.5t36.5 17z" />
    <glyph glyph-name="f_l" unicode="fl" horiz-adv-x="514" 
d="M486 666q-31 0 -47.5 -16.5t-24 -39t-8.5 -44.5t-2 -33l-2 -383q0 -23 11.5 -42t37.5 -19q5 0 15 3.5t21 7.5l8 -17q-23 -11 -41 -21t-34.5 -20.5t-31.5 -22t-31 -25.5q-28 27 -59.5 47.5t-69.5 31.5v19q15 1 29 10t16 26l1 338q0 43 -2.5 83.5t-28.5 75.5
q-5 -20 -10.5 -38.5t-8.5 -38.5q-29 -2 -57.5 -3t-57.5 -5q-5 -18 -10 -35.5t-7 -35.5q4 -14 18 -19t26 -9q11 -3 18 -7t12.5 -8.5t11 -9.5t14.5 -9q11 -5 16.5 -5.5t20.5 -0.5v-51h-41v-101q0 -59 -5 -130t-14 -137t-21 -118t-26 -72q-14 20 -24 49.5t-18 61.5t-13 64
t-8 58q-11 79 -9.5 161t0.5 164h-36l1 49q7 1 20.5 6t21.5 22q11 26 17.5 55.5t12.5 59t14.5 58t23.5 52.5q17 4 35 3t34 0.5t29.5 8.5t22.5 26l13 -2q-2 -18 2.5 -32.5t10.5 -27t13 -23t12 -19.5q30 48 74 74t114 27z" />
    <glyph glyph-name="f_f_i" unicode="ffi" horiz-adv-x="753" 
d="M188 249q0 -59 -5 -130t-14 -137t-21 -118t-26 -72q-14 20 -24 49.5t-18 61.5t-13 64t-8 58q-11 79 -9.5 161t0.5 164h-36l1 49q7 1 20.5 6t21.5 22q11 26 17.5 55.5t12.5 59t14.5 58t23.5 52.5q17 4 35 3t34 0.5t29.5 8.5t22.5 26l13 -2q-6 -36 -17.5 -70t-17.5 -70
q-29 -2 -57.5 -3t-57.5 -5q-5 -18 -10 -35.5t-7 -35.5q4 -14 18 -19t26 -9q11 -3 18 -7t12.5 -8.5t11 -9.5t14.5 -9q11 -5 28.5 -5.5t32.5 -0.5v-2q8 1 20 6t20 22q11 26 17.5 55.5t12.5 59t14.5 58t23.5 52.5q17 4 35 3t34 0.5t29.5 8.5t22.5 26l13 -2q-6 -36 -17.5 -70
t-17.5 -70q-29 -2 -57.5 -3t-57.5 -5q-5 -18 -10 -35.5t-7 -35.5q4 -14 18 -19t26 -9q11 -3 18 -7t12.5 -8.5t11 -9.5t14.5 -9q11 -5 28.5 -5.5t32.5 -0.5t31 6t31 13.5t27 14.5t19 9q6 -8 19.5 -18.5t29 -20.5t31.5 -18.5t27 -13.5v-17q-6 0 -13 -0.5t-13 -3t-10 -7
t-3 -11.5l-2 -186q0 -9 0.5 -19.5t3.5 -20t9.5 -16t18.5 -6.5q5 0 13 3.5t18 8.5l10 -16q-19 -11 -39.5 -25.5t-38 -27.5t-30 -21.5t-14.5 -8.5q-1 0 -13.5 8.5t-30.5 19.5t-38 22t-35 16l-1 16q14 5 27.5 11.5t13.5 22.5v189q0 20 -5 33t-20 15q-5 0 -22.5 -1.5t-65.5 -0.5
v-101q0 -59 -5 -130t-14 -137t-21 -118t-26 -72q-14 20 -24 49.5t-18 61.5t-13 64t-8 58q-11 79 -9.5 161t0.5 164h-98v-101zM635 653q9 0 19.5 -2.5t19.5 -8t15 -13.5t6 -19q0 -12 -16.5 -31.5t-37.5 -39t-40 -33.5t-23 -14q-5 0 -8.5 4t-3.5 9q0 17 2.5 42t9.5 48.5
t20.5 40.5t36.5 17z" />
    <glyph glyph-name="f_f_l" unicode="ffl" horiz-adv-x="758" 
d="M727 666q-31 0 -47.5 -16.5t-24 -39t-8.5 -44.5t-2 -33l-2 -383q0 -23 11.5 -42t37.5 -19q5 0 15 3.5t21 7.5l8 -17q-23 -11 -41 -21t-34.5 -20.5t-31.5 -22t-31 -25.5q-28 27 -59.5 47.5t-69.5 31.5v19q15 1 29 10t16 26l1 338v43.5t-3 42.5t-10 40.5t-21 37.5
q-6 -20 -12 -40.5t-9 -41.5q-29 -2 -57.5 -3t-57.5 -5q-5 -18 -10 -35.5t-7 -35.5q4 -14 18 -19t26 -9q11 -3 18 -7t12.5 -8.5t11 -9.5t14.5 -9q11 -5 28.5 -5.5t32.5 -0.5v-51h-65v-101q0 -59 -5 -130t-14 -137t-21 -118t-26 -72q-14 20 -24 49.5t-18 61.5t-13 64t-8 58
q-11 79 -9.5 161t0.5 164h-98v-101q0 -59 -5 -130t-14 -137t-21 -118t-26 -72q-14 20 -24 49.5t-18 61.5t-13 64t-8 58q-11 79 -9.5 161t0.5 164h-36l1 49q7 1 20.5 6t21.5 22q11 26 17.5 55.5t12.5 59t14.5 58t23.5 52.5q17 4 35 3t34 0.5t29.5 8.5t22.5 26l13 -2
q-6 -36 -17.5 -70t-17.5 -70q-29 -2 -57.5 -3t-57.5 -5q-5 -18 -10 -35.5t-7 -35.5q4 -14 18 -19t26 -9q11 -3 18 -7t12.5 -8.5t11 -9.5t14.5 -9q11 -5 28.5 -5.5t32.5 -2.5q8 1 20 6t20 22q11 26 17.5 55.5t12.5 59t14.5 58t23.5 52.5q17 4 35 3t34 0.5t29.5 8.5t22.5 26
l13 -2q-4 -18 0.5 -33t12.5 -27t16.5 -22.5t13.5 -19.5q30 48 74 74t114 27z" />
    <glyph glyph-name="longs_t" unicode="&#x17f;t" horiz-adv-x="507" 
d="M379 669l-125 -140q-6 0 -18.5 0.5t-26.5 0.5h-26.5h-18.5q-24 -1 -36.5 -4t-19.5 -12t-11 -24.5t-11 -40.5q17 -12 35 -16.5t33 -12t24.5 -21t9.5 -43.5q0 -72 1 -141.5t-4 -138.5t-19.5 -139.5t-44.5 -145.5q-27 73 -41 140.5t-20 134.5t-7 136t-2 144h-39v19
q24 20 40 54.5t27.5 73.5t20.5 77t19 65q61 0 102 0.5t68.5 3.5t45 10t31.5 21zM211 85q21 3 29 15t9 29v221h-39v51h39v65q0 1 13.5 14.5t32.5 33t42 43t43 44t34 35t16 16.5l19 -11q-9 -10 -21 -23.5t-23.5 -28t-19 -28.5t-7.5 -24v-136h94v-51h-94v-196q0 -13 6 -25
t15 -21t20 -14.5t22 -5.5q10 0 20.5 7.5t20.5 18.5l11 -16q-11 -11 -34 -29.5t-48 -36.5t-46 -31t-26 -13q-6 0 -20 11.5t-32.5 26t-38.5 26.5t-37 14v19z" />
    <glyph glyph-name="f_dotlessi" unicode="f&#x131;" horiz-adv-x="535" 
d="M283 81q14 5 27.5 11.5t13.5 22.5v189q0 17 -10 31.5t-24 14.5h-102v-101q0 -59 -5 -130t-14 -137t-21 -118t-26 -72q-14 20 -24 49.5t-18 61.5t-13 64t-8 58q-11 79 -9.5 161t0.5 164h-36l1 49q7 1 20.5 6t21.5 22q11 26 17.5 55.5t12.5 59t14.5 58t23.5 52.5q17 4 35 3
t34 0.5t29.5 8.5t22.5 26l13 -2q-6 -36 -17.5 -70t-17.5 -70q-29 -2 -57.5 -3t-57.5 -5q-5 -18 -10 -35.5t-7 -35.5q4 -14 18 -19t26 -9q11 -3 18 -7t12.5 -8.5t11 -9.5t14.5 -9q4 -2 18 -3.5t32.5 -2t38 -0.5h35.5q21 17 40 28.5t28 14.5q6 -8 19.5 -18.5t29 -20.5
t31.5 -18.5t27 -13.5v-17q-6 0 -13 -0.5t-13 -3t-10 -7t-3 -11.5l-2 -186q0 -9 0.5 -19.5t3.5 -20t9.5 -16t18.5 -6.5q5 0 13 3.5t18 8.5l10 -16q-19 -11 -39.5 -25.5t-38 -27.5t-30 -21.5t-14.5 -8.5q-1 0 -13.5 8.5t-30.5 19.5t-38 22t-35 16z" />
    <glyph glyph-name="longs_odieresis" unicode="&#x17f;&#xf6;" horiz-adv-x="614" 
d="M251 646q-11 -28 -18.5 -60t-22.5 -58q-11 1 -23 1.5t-23 0.5q-30 0 -43.5 -3t-19 -12t-7 -25t-8.5 -41q17 -12 35 -16.5t33 -12t24.5 -21t9.5 -43.5q0 -81 -3 -160t-3 -160q0 -9 -3 -30.5t-8 -48.5t-11.5 -55.5t-14.5 -52.5t-16.5 -40.5t-17.5 -17.5q-22 73 -33.5 138.5
t-17 130.5t-7 132t-2.5 142q-10 2 -19.5 2.5t-19.5 2.5l-2 17l5 11q22 16 37 49.5t27 73t21 79t19 66.5q31 7 62.5 9t63.5 8zM393 641q19 0 35 -17t16 -36q0 -10 -15.5 -27t-36.5 -34.5t-41.5 -31.5t-29.5 -18q-1 5 -1 10v10q0 18 3 42.5t11 47t22 38.5t37 16zM525 642
q7 0 17 -4t19.5 -10.5t16 -14.5t6.5 -16q0 -9 -16 -28.5t-37 -39t-41.5 -34.5t-29.5 -15v8q0 27 4.5 53.5t6.5 53.5q3 6 9 14.5t13.5 15.5t15.5 12t16 5zM480 428q15 0 36 -25t40.5 -59t33.5 -68.5t14 -53.5q0 -28 -20 -63.5t-48 -70t-58.5 -64.5t-52.5 -46q-10 5 -18 11
t-18 11q-35 17 -68 27.5t-69 21.5q-9 3 -11.5 12.5t-2.5 17.5v30v48.5t0.5 57t2 54.5t4.5 41.5t7 18.5q28 10 52 16.5t52 18.5q7 3 26.5 13.5t40.5 21.5t38 20t19 9zM370 356q-2 -18 -2.5 -35.5t-0.5 -35.5q0 -37 0.5 -74t2.5 -74q31 -12 60 -27.5t58 -30.5h5q9 0 17 7
t14.5 16.5t10 20t3.5 18.5q0 18 -17.5 47.5t-41 61t-47.5 59t-37 42.5q-6 3 -12.5 3t-12.5 2z" />
    <glyph glyph-name="f_f_dotlessi" unicode="ff&#x131;" horiz-adv-x="760" 
d="M253 352v-2h-65v-101q0 -59 -5 -130t-14 -137t-21 -118t-26 -72q-14 20 -24 49.5t-18 61.5t-13 64t-8 58q-11 79 -9.5 161t0.5 164h-36l1 49q7 1 20.5 6t21.5 22q11 26 17.5 55.5t12.5 59t14.5 58t23.5 52.5q17 4 35 3t34 0.5t29.5 8.5t22.5 26l13 -2q-6 -36 -17.5 -70
t-17.5 -70q-29 -2 -57.5 -3t-57.5 -5q-5 -18 -10 -35.5t-7 -35.5q4 -14 18 -19t26 -9q11 -3 18 -7t12.5 -8.5t11 -9.5t14.5 -9q9 -5 24.5 -5.5t29.5 -0.5q14 2 30 8t21 18q11 26 17.5 55.5t12.5 59t14.5 58t23.5 52.5q17 4 35 3t34 0.5t29.5 8.5t22.5 26l13 -2
q-6 -36 -17.5 -70t-17.5 -70q-29 -2 -57.5 -3t-57.5 -5q-5 -18 -10 -35.5t-7 -35.5q4 -14 18 -19t26 -9q11 -3 18 -7t12.5 -8.5t11 -9.5t14.5 -9q4 -2 17 -3.5t29 -2t32.5 -0.5h27.5q21 17 40 28.5t28 14.5q6 -8 19.5 -18.5t29 -20.5t31.5 -18.5t27 -13.5v-17q-6 0 -13 -0.5
t-13 -3t-10 -7t-3 -11.5l-2 -186q0 -9 0.5 -19.5t3.5 -20t9.5 -16t18.5 -6.5q5 0 13 3.5t18 8.5l10 -16q-19 -11 -39.5 -25.5t-38 -27.5t-30 -21.5t-14.5 -8.5q-1 0 -13.5 8.5t-30.5 19.5t-38 22t-35 16l-1 16q14 5 27.5 11.5t13.5 22.5v189q0 20 -5 33t-20 15q-3 0 -7.5 -1
t-14 -1.5t-26.5 -1t-45 1.5v-101q0 -59 -5 -130t-14 -137t-21 -118t-26 -72q-14 20 -24 49.5t-18 61.5t-13 64t-8 58q-11 79 -9.5 161t0.5 164h-36z" />
    <glyph glyph-name=".notdef" horiz-adv-x="239" 
d="M0 95v436l18 23h201l22 -20v-442l-22 -20h-201zM40 112h161v402h-161v-402z" />
    <glyph glyph-name=".null" horiz-adv-x="0" 
 />
    <glyph glyph-name="nonmarkingreturn" horiz-adv-x="333" 
 />
    <glyph glyph-name="ZWJ" unicode="&#xd;" horiz-adv-x="0" 
 />
    <glyph glyph-name="space" unicode=" " horiz-adv-x="239" 
 />
    <glyph glyph-name="exclam" unicode="!" horiz-adv-x="224" 
d="M114 701q38 0 56 -20t18 -57q0 -15 -4 -48t-11 -75t-15 -88t-16 -88t-15 -74.5t-11 -47.5q-10 5 -13.5 12.5t-5.5 17.5q-5 47 -16 98.5t-22 104t-19 103.5t-8 97q0 38 23.5 51.5t58.5 13.5zM108 200q13 -13 22.5 -26.5t23.5 -25.5q12 -11 26.5 -19.5t25.5 -18.5
q5 -4 4.5 -9.5t3.5 -10.5q-16 -10 -34 -18.5t-29 -24.5q-10 -14 -18.5 -29t-24.5 -23q-14 17 -24.5 34t-27.5 31q-5 4 -11 6t-12.5 4t-12 5.5t-8.5 9.5q-2 4 -2 9t5.5 9t9.5 7q15 11 25.5 21t20 20.5t18 22.5t19.5 26z" />
    <glyph glyph-name="quotedbl" unicode="&#x22;" horiz-adv-x="375" 
d="M85 431q-3 27 -10 63t-14 70.5t-12.5 62.5t-5.5 39q0 21 14.5 39t44.5 18q32 0 45 -18t13 -38q0 -11 -5.5 -39.5t-12 -63t-13.5 -70.5t-10 -63h-34zM257 431q-3 27 -10 63t-14 70.5t-12.5 62.5t-5.5 39q0 21 14.5 39t43.5 18q32 0 45.5 -18t13.5 -38q0 -11 -5.5 -39.5
t-12.5 -63t-14 -70.5t-10 -63h-33z" />
    <glyph glyph-name="numbersign" unicode="#" 
d="M309 398h-88l-29 -125h88zM263 180h-88l-41 -179q-3 -16 -10 -16h-65q-7 0 -4 14l42 181h-101q-7 0 -6 9l12 77q2 5 4 6t7 1h101l28 125h-92q-9 0 -12 1.5t-2 5.5l12 79q1 7 13 7h96l43 183q1 4 2 6.5t6 2.5h64q8 0 4 -11l-40 -181h88l40 181q2 5 3.5 8t6.5 3h64
q8 0 5 -11l-41 -181h102q11 0 9 -7l-13 -79q-2 -5 -4.5 -6t-10.5 -1h-97l-28 -125h99q12 0 11 -8l-13 -80q-1 -5 -15 -5h-100l-40 -183q-3 -12 -10 -12h-65q-7 0 -4 11z" />
    <glyph glyph-name="dollar" unicode="$" 
d="M271 -40q-7 0 -7 10l1 49h-11.5t-15 0.5t-14.5 1.5t-11 2l-2 -54q0 -9 -7 -9h-22q-7 0 -7 10l2 59q-20 6 -40.5 15t-33.5 17q-17 10 -22 10q-7 0 -18 -19q-3 -5 -14 -5q-10 0 -9 17q1 15 3.5 40t5 51.5t4.5 48.5t3 31q0 7 7 7l22 -1q6 0 6 -7q2 -20 4.5 -42.5t15.5 -54.5
q11 -18 29 -35.5t38 -28.5l7 221q-31 8 -52.5 19t-39.5 27q-26 23 -38.5 53t-12.5 76q0 28 5.5 49.5t14.5 38t21 29t25 23.5q16 13 39 22.5t46 12.5l2 56q0 9 7 9h22q7 0 7 -9l-1 -52q11 1 25 0.5t26 -2.5l1 53q0 7 1.5 8.5t5.5 1.5h22q7 0 7 -9l-2 -59q15 -3 28.5 -7
t30.5 -9q11 -3 18 3l11 12q3 3 5.5 3.5t6.5 0.5q9 0 9 -12q0 -20 0.5 -45t1 -48.5t1 -42t0.5 -25.5t-5 -7l-21 -3q-5 0 -6 3q-6 20 -13.5 46t-21.5 44q-6 8 -17 21t-27 21l-8 -204q38 -11 66.5 -25.5t47 -36.5t28 -52.5t9.5 -73.5q0 -31 -10 -60.5t-30 -54t-50 -42
t-70 -24.5l-1 -53q0 -10 -8 -10h-20zM280 608q-11 4 -26 5.5t-25 -0.5l-6 -201q7 -4 20.5 -6.5t30.5 -5.5zM192 604q-17 -7 -27 -18.5t-15.5 -24.5t-7.5 -27t-2 -26q0 -34 12.5 -53t35.5 -30zM214 60q6 -2 22 -3.5t30 -0.5l6 216q-20 5 -31.5 8t-19.5 6zM301 61
q26 10 43.5 36t17.5 73q0 25 -13 51t-42 40z" />
    <glyph glyph-name="percent" unicode="%" horiz-adv-x="798" 
d="M178 286q17 0 27 12t15 27q5 20 5.5 60t0.5 112q0 46 -3 77.5t-9 50t-14 26.5t-17 8q-12 0 -22 -8t-16 -28q-5 -14 -7.5 -34t-4 -42.5t-2 -44.5t-0.5 -39q0 -44 1.5 -76.5t7.5 -55.5q5 -20 16 -32.5t22 -12.5zM178 7q-6 4 -6 8q0 3 2 6t4 7l401 647q4 8 8 8t9 -3l30 -17
q4 -3 4 -7q0 -3 -4 -10l-404 -653q-4 -8 -9 -8t-8 3zM173 264q-49 0 -79 23.5t-46.5 55.5t-22 66.5t-5.5 55.5q0 41 9 80.5t29 70t51.5 49t75.5 18.5q48 0 77.5 -20.5t46 -51t22 -67t5.5 -68.5q0 -100 -40 -156t-123 -56zM623 12q19 0 30 12t16 27q5 20 5.5 60t0.5 112
q0 46 -3.5 77.5t-9.5 50t-14.5 26.5t-18.5 8q-14 0 -24 -8t-17 -28q-5 -14 -8 -34t-4.5 -42.5t-2 -44.5t-0.5 -40q0 -43 1.5 -75.5t8.5 -55.5q5 -20 16.5 -32.5t23.5 -12.5zM615 -9q-49 0 -79 23.5t-46.5 55.5t-22 66.5t-5.5 55.5q0 41 9 80.5t29 70t51.5 49t75.5 18.5
q48 0 77.5 -20.5t46 -51t22 -67t5.5 -68.5q0 -100 -40 -156t-123 -56z" />
    <glyph glyph-name="ampersand" unicode="&#x26;" horiz-adv-x="656" 
d="M436 367q52 -3 105.5 -4t101.5 6l3 -16q-11 -6 -24 -8.5t-23 -10.5q-22 -18 -37 -43.5t-28 -53.5t-25 -55.5t-28 -50.5q6 -12 14 -25.5t18.5 -25t23 -19t27.5 -7.5q18 0 28.5 10t17 24t10.5 30.5t9 28.5l14 -2q0 -28 -12.5 -54.5t-33 -47.5t-47.5 -33.5t-55 -12.5
q-13 0 -28.5 3.5t-30.5 10t-28.5 15t-22.5 17.5q-14 0 -27 -5.5t-25 -13.5q-13 -8 -31 -13t-38 -7.5t-39.5 -3.5t-34.5 -1q-38 0 -70.5 12.5t-57 35.5t-38.5 55t-14 70q0 42 18 69t45.5 46.5t60 34.5t60.5 34q-4 26 -9.5 51.5t-5.5 51.5q0 34 9 66t28 57t47 40t66 15
q22 0 42 -8t35 -21.5t24 -33t9 -41.5q0 -24 -8.5 -44.5t-22.5 -37.5t-32 -31t-37 -26q3 -9 12 -29t21.5 -45.5t26.5 -52.5t28 -49.5t26 -37t20 -14.5q9 9 16 22t12.5 27t8.5 28.5t3 26.5q0 28 -7.5 42t-19 21.5t-25.5 11.5t-27 10zM336 621q-29 0 -41.5 -16.5t-12.5 -42.5
q0 -9 5 -33t13 -49.5t18 -45t19 -19.5q14 5 27 16t22.5 24.5t15.5 29.5t6 31q0 18 -2.5 37t-10 34t-21.5 24.5t-38 9.5zM133 249q0 -23 12 -60t32 -72.5t45 -61.5t51 -26q51 0 91 31q-11 23 -29 44t-32 43q-29 45 -50.5 92t-47.5 92q-37 0 -54.5 -24t-17.5 -58z" />
    <glyph glyph-name="quotesingle" unicode="'" horiz-adv-x="200" 
d="M85 431q-3 27 -10.5 62t-14.5 69.5t-12.5 62.5t-5.5 41q0 21 15 39t45 18t43.5 -18t13.5 -38q0 -13 -5 -41.5t-12 -63t-13.5 -69.5t-9.5 -62h-34z" />
    <glyph glyph-name="parenleft" unicode="(" horiz-adv-x="264" 
d="M254 683q0 -11 -8.5 -20.5t-13.5 -18.5q-16 -26 -28.5 -56t-20.5 -59q-23 -91 -29.5 -181t-6.5 -183q0 -36 4 -75t12.5 -78t20.5 -76.5t27 -69.5q3 -6 9.5 -15.5t13 -19.5t12 -19.5t5.5 -14.5q0 -6 -5 -10t-8 -9q-43 49 -84 101t-73 108t-51.5 118t-19.5 132
q0 113 47.5 210t122.5 178q17 18 34.5 35.5t39.5 29.5v-7z" />
    <glyph glyph-name="parenright" unicode=")" horiz-adv-x="264" 
d="M10 690q22 -12 39.5 -29.5t34.5 -35.5q75 -81 122.5 -178t47.5 -210q0 -70 -19.5 -132t-51.5 -118t-73 -108t-84 -101q-3 5 -8 9t-5 10q0 5 5.5 14.5t12 19.5t13 19.5t9.5 15.5q15 32 27 69.5t20.5 76.5t12.5 78t4 75q0 93 -6.5 183t-29.5 181q-8 29 -20.5 59t-28.5 56
q-5 9 -13.5 18.5t-8.5 20.5v7v0z" />
    <glyph glyph-name="asterisk" unicode="*" horiz-adv-x="328" 
d="M164 399q-20 0 -31 11.5t-11 29.5q0 7 5 23t11.5 32.5t12 30.5t6.5 18l-4 3q-5 -5 -15.5 -17.5t-22 -26.5t-22.5 -25.5t-17 -15.5q-12 -8 -26.5 -4t-25.5 21q-6 9 -6 18t3 16.5t8 13.5t11 9q5 2 21.5 6t34.5 7.5t33.5 6.5t18.5 4v5q-4 1 -19.5 3.5t-33.5 5.5t-34 6.5
t-22 5.5q-16 6 -22.5 19.5t4.5 33.5q11 22 26.5 23t26.5 -5q4 -2 16.5 -14.5t26 -26.5t24.5 -26t13 -14l4 3q-1 3 -7 17t-12.5 30.5t-11.5 32t-5 23.5q0 20 11 30.5t31 10.5q19 0 30.5 -9t11.5 -27q0 -8 -5 -24.5t-11.5 -34.5t-12.5 -32.5t-7 -16.5l5 -4q2 2 11.5 14
t21.5 26t23 26t17 15q16 8 30 4.5t23 -20.5q8 -16 4 -32t-19 -24q-5 -3 -21 -6t-34.5 -6t-34 -5t-17.5 -2v-5q2 0 17 -2.5t33.5 -6t36.5 -7.5t27 -8q10 -5 15.5 -22t-4.5 -35q-9 -15 -26.5 -19t-31.5 7q-7 5 -18.5 18t-22.5 26.5t-20 24.5t-10 12l-5 -3q1 -3 6.5 -16
t12 -29.5t12 -33t5.5 -26.5q0 -16 -9.5 -28.5t-32.5 -12.5z" />
    <glyph glyph-name="plus" unicode="+" horiz-adv-x="366" 
d="M67 367q38 0 76 -7t77 -7q22 0 42.5 6t42.5 8l6 -5v-22q-17 -2 -36 -2t-33 -12q-8 -27 -8.5 -54.5t-2.5 -55.5q9 2 18.5 1.5t17.5 4.5q8 10 13.5 21.5t10.5 22.5q5 -3 15.5 -8t21.5 -11t19.5 -12.5t8.5 -12.5q0 -2 -3 -9t-7 -14.5t-8 -14t-5 -9.5q-8 -7 -17 -11
q-23 0 -44 8.5t-41 16.5q1 -11 0 -23t-1 -23q0 -19 3.5 -29t11 -14.5t18.5 -5t27 -0.5l10 -1l1 -10q0 -10 -7 -20q-10 5 -29.5 8.5t-41 6t-41.5 4t-32 1.5q-21 0 -41 -7.5t-39 -7.5q-6 0 -10.5 3.5t-9.5 7.5q8 12 22 15t27.5 6.5t23.5 12t10 32.5v48q0 12 -3 23l-24 -10.5
t-13 -8.5t-9 -13t-12 -25q-4 2 -14.5 7.5t-21 12.5t-18.5 13.5t-8 11.5q3 6 5.5 15t6 18t9 15t14.5 6q7 3 17 3q18 0 34.5 -9t33.5 -14q2 11 3 23t1 23q0 14 -2 27.5t-8 25.5q-6 1 -16.5 2t-21 3.5t-18.5 6.5t-8 12l7 6v0z" />
    <glyph glyph-name="comma" unicode="," horiz-adv-x="188" 
d="M36 -138q19 9 37.5 22.5t33.5 31.5t25 40.5t13 48.5q-22 -16 -53 -16q-15 0 -29.5 5t-26.5 16t-19 29t-7 44q0 34 24.5 58.5t59.5 24.5q40 0 62 -30t22 -79q0 -32 -6.5 -65t-22 -62.5t-41 -52.5t-62.5 -35z" />
    <glyph glyph-name="hyphen" unicode="-" horiz-adv-x="198" 
d="M183 326q2 -12 2.5 -24.5t0.5 -24.5q-40 -23 -86 -41.5t-90 -32.5q0 11 0.5 23t2.5 23q42 17 83.5 41.5t86.5 35.5zM183 216q5 -18 5 -35q-13 -8 -37 -19.5t-50 -23.5t-50 -21.5t-38 -12.5v44q17 10 37 17t40.5 14.5t39.5 16t34 20.5q6 6 11 6z" />
    <glyph glyph-name="period" unicode="." horiz-adv-x="220" 
d="M107 191q18 -30 40.5 -54t58.5 -42q-37 -24 -60.5 -48t-37.5 -52q-6 12 -17 26.5t-24.5 28t-28.5 25t-29 17.5q29 14 55 40.5t43 58.5z" />
    <glyph glyph-name="slash" unicode="/" horiz-adv-x="375" 
d="M302 719q4 9 13 6l50 -21q7 -3 1 -17l-294 -693q-5 -12 -13 -8l-49 22q-8 4 -1 18z" />
    <glyph glyph-name="zero" unicode="0" horiz-adv-x="471" 
d="M232 623q50 0 92 -29.5t72.5 -73.5t47.5 -95t17 -95q0 -49 -13.5 -107t-41.5 -108t-71 -83.5t-102 -33.5q-53 0 -94 31t-70 77.5t-44 100.5t-15 99q0 31 6 66.5t18.5 71t31 67.5t43 57t55.5 40t68 15zM165 125q0 -22 1.5 -40.5t9 -32t22 -21t40.5 -7.5q23 0 36 7.5
t20 20.5t8.5 30t1.5 36q0 20 0.5 57t0.5 81.5v92.5t-1.5 91t-4.5 76t-8 48q-7 20 -25.5 30.5t-38.5 10.5q-27 0 -40 -16.5t-18 -39.5t-4.5 -48.5t0.5 -43.5v-332z" />
    <glyph glyph-name="one" unicode="1" horiz-adv-x="445" 
d="M347 644q6 2 9 2q7 0 10 -22t4 -49.5t0.5 -54t-0.5 -35.5q0 -99 -2 -196t-2 -196q0 -13 2 -26l4 -26q16 -4 31.5 -6.5t31.5 -4.5l-3 -19q-68 4 -135.5 6.5t-135.5 -3.5l-9 16q5 2 15 4t20.5 4.5t19 4.5t11.5 4t5 28.5t3 66t1.5 86t1 88.5t0.5 74v43q-18 -11 -33.5 -25.5
t-31.5 -29t-32 -28.5t-34 -24l-6 16q12 13 25 24.5t26.5 22.5t26 22.5t23.5 26.5q31 42 63 79.5t61 82.5q7 11 14.5 22t15.5 22z" />
    <glyph glyph-name="two" unicode="2" horiz-adv-x="467" 
d="M196 635q40 0 81 -12.5t74 -36t53.5 -58t20.5 -79.5q0 -48 -22 -84.5t-54.5 -65t-71.5 -50t-72.5 -40t-57.5 -35t-27 -34.5q13 -4 30 -4q58 0 119.5 -0.5t118.5 4.5q16 1 23.5 11.5t12 22.5t7 21.5t7.5 9.5t9.5 -2.5t9.5 -2.5q-18 -47 -31 -93.5t-24 -95.5q-42 0 -82.5 2
t-82.5 2q-46 0 -91.5 -3.5t-91.5 -3.5q-25 0 -44 11q17 54 43 87t55.5 57.5t59.5 46t53.5 51t38.5 73.5t15 114q0 21 -3.5 48t-13 51t-26.5 40.5t-44 16.5q-58 0 -92 -32t-34 -91q0 -20 3.5 -34t10 -25.5t15 -22.5t18.5 -26q-5 0 -10.5 -1t-10.5 -1q-10 0 -22.5 10.5
t-23 25.5t-17.5 30.5t-7 25.5q0 35 14.5 66t39 54.5t57 37.5t67.5 14z" />
    <glyph glyph-name="three" unicode="3" horiz-adv-x="455" 
d="M218 628q31 0 67.5 -10t67 -29.5t51 -47.5t20.5 -65q0 -27 -11.5 -48t-30.5 -36.5t-42 -25.5t-47 -15v-9q28 -9 55.5 -23t49 -33.5t34.5 -45.5t13 -59q0 -53 -24 -86.5t-61 -53t-82 -27t-88 -7.5q-29 0 -61 7t-58.5 22t-43.5 39.5t-17 59.5t18 60.5t56 25.5
q27 0 49 -19.5t22 -47.5q0 -26 -7 -39.5t-19.5 -21t-29.5 -11t-36 -8.5q9 -14 22.5 -22.5t30 -14t33.5 -7.5t32 -2q38 0 60.5 14.5t34 38.5t15 54t3.5 61q0 24 -3.5 47.5t-13.5 42t-28.5 30t-47.5 11.5q-23 0 -38 -10t-34 -21l-11 11v19q21 6 40.5 13.5t41.5 11.5
q30 5 46 15.5t23 26t8 37t1 48.5q0 26 -4.5 48t-16 38.5t-30.5 25.5t-48 9q-47 0 -75.5 -27t-28.5 -75q0 -19 6 -34t13 -26.5t13 -19t6 -10.5q0 -5 -4 -7.5t-8 -2.5q-11 0 -23 11.5t-21.5 27.5t-15.5 32.5t-6 26.5q0 37 17 62.5t43.5 41.5t59 22.5t63.5 6.5z" />
    <glyph glyph-name="four" unicode="4" horiz-adv-x="438" 
d="M156 606q39 2 78 2.5t78 2.5q0 -29 -13.5 -64t-35 -73t-48.5 -77t-54 -75t-51.5 -67.5t-40.5 -54.5q32 0 63.5 -1.5t63.5 -1.5q14 0 19.5 10.5t6 25.5t-1 30.5t-1.5 26.5q0 33 6 66q2 13 7.5 15.5t14.5 9.5q27 20 47.5 49t37.5 58q7 10 15 10q3 0 9 -2q-4 -62 -3 -125.5
t1 -126.5q0 -21 5 -44h66q0 -18 1.5 -35.5t1.5 -35.5q-18 -2 -36 -3t-36 -3q-5 -23 -5 -42q0 -21 8 -43l5 -5q7 -2 15.5 -3t16.5 -2.5t15 -5t11 -11.5q-10 -7 -24 -7q-26 0 -53 4t-53 4q-32 0 -63 -3.5t-62 -3.5q-8 0 -11 7t-5 13q24 3 38 5t20.5 8t8.5 19.5t2 39.5
q0 14 -3 26q-10 6 -25 6h-107q-5 0 -14 -2t-19 -5t-19.5 -6t-15.5 -4q0 7 -3.5 13t-3.5 13q0 5 5 15.5t11 22t12 22t9 16.5q27 55 44 100t28.5 89t19.5 92.5t17 110.5z" />
    <glyph glyph-name="five" unicode="5" horiz-adv-x="455" 
d="M371 625q-2 -10 -9.5 -33t-17 -48.5t-19 -47.5t-14.5 -30q-44 4 -88.5 8t-88.5 4l-26 -1q0 -8 -3 -27t-6.5 -40t-7.5 -40t-7 -28q40 11 74.5 21t77.5 10q39 0 76.5 -10.5t67 -32t47.5 -53.5t18 -75q0 -52 -22 -89.5t-58 -62t-81 -36t-91 -11.5q-29 0 -61 7t-59 22.5
t-45 40t-18 59.5t20 56t55 21q32 0 50 -20t18 -52q0 -19 -6.5 -31.5t-17.5 -20.5t-25 -13.5t-29 -11.5v-8q14 -8 24.5 -13t20.5 -8t21.5 -4.5t27.5 -1.5q40 0 65 10t38.5 29.5t18 47.5t4.5 64q0 30 -2 61t-12 56t-32.5 41t-62.5 16q-27 0 -46 -8t-33 -17.5t-23.5 -17.5
t-16.5 -8q-9 9 -7 18q4 33 11 69.5t14 74l14 75t12 72.5q54 0 107.5 -8t106.5 -8q10 0 18 13.5t15 19.5h13z" />
    <glyph glyph-name="six" unicode="6" horiz-adv-x="462" 
d="M279 621q23 0 51 -7t52.5 -20.5t41 -34.5t16.5 -48q0 -35 -18.5 -56t-53.5 -21q-32 0 -54.5 16t-22.5 51q0 24 15 38t32 28v19q-28 16 -63 16q-32 0 -54 -11t-35.5 -29.5t-19.5 -44t-6 -54.5q0 -26 0.5 -52t2.5 -52q46 21 98 21q40 0 75 -13t60.5 -36.5t40.5 -56.5
t15 -74q0 -45 -15.5 -81.5t-42.5 -62.5t-64 -40t-80 -14q-60 0 -105 25t-75 65.5t-45 92.5t-15 106q0 55 18.5 113.5t53.5 106.5t84.5 79t112.5 31zM157 221q0 -25 -1 -59.5t5 -66.5t23 -54.5t54 -22.5q26 0 39 14.5t18.5 35.5t5.5 44.5v42.5q0 20 0.5 54.5t-5 67.5
t-19.5 57t-43 24q-34 0 -50 -12.5t-22 -32t-5.5 -44t0.5 -48.5z" />
    <glyph glyph-name="seven" unicode="7" horiz-adv-x="435" 
d="M415 605q10 0 10 -10q0 -33 -17 -70t-42.5 -76t-55.5 -78.5t-55.5 -77.5t-42.5 -73t-17 -65q0 -18 8.5 -22t24.5 -4q14 0 25 5t22 11q1 -15 1.5 -29.5t0.5 -29.5q0 -19 -1 -37.5t-3 -37.5q-8 -7 -29.5 -9.5t-32.5 -2.5q-42 0 -61.5 27.5t-19.5 65.5q0 22 12.5 52
t32.5 63.5t45 69t49 68.5t45 62.5t33 50.5l-3 8q-54 0 -107 2.5t-107 2.5q-18 0 -38.5 0.5t-37.5 -5.5q-12 -10 -16.5 -24t-11.5 -28l-16 8q14 45 35.5 88t32.5 90q61 5 122.5 1t122.5 -4q23 0 46 4t46 4z" />
    <glyph glyph-name="eight" unicode="8" horiz-adv-x="469" 
d="M249 621q34 0 68 -11t61 -32t43.5 -50.5t16.5 -66.5q0 -26 -10 -46t-25.5 -35.5t-36 -28t-41.5 -22.5q25 -14 49 -27.5t43 -31.5t30.5 -41.5t11.5 -56.5q0 -43 -20 -75t-51.5 -53.5t-70.5 -32.5t-76 -11q-39 0 -79.5 9.5t-74.5 30t-55.5 53t-21.5 78.5q0 40 11 63.5
t29 39t40.5 27t45.5 28.5q-19 11 -37.5 23t-33.5 27t-24 33.5t-9 43.5q0 45 19.5 76t51 51t70 29t76.5 9zM174 458q0 -12 0.5 -31.5t4 -39t12.5 -33.5t27 -14q36 0 53 11t22.5 29.5t4.5 43.5t-1 52q0 16 -1 37.5t-6.5 40.5t-18 32t-35.5 13q-27 0 -40 -14.5t-18 -36.5
t-4.5 -46.5t0.5 -43.5zM165 209q0 -21 -1 -52.5t3 -61t17 -51t41 -21.5q20 0 38.5 6.5t31.5 22.5q5 29 7.5 58t2.5 58q0 20 0.5 47t-4.5 51t-19 40.5t-43 16.5q-28 0 -43 -9.5t-22 -25.5t-8 -36.5t-1 -42.5z" />
    <glyph glyph-name="nine" unicode="9" horiz-adv-x="463" 
d="M210 615q50 0 94.5 -23t77.5 -60.5t52 -84.5t19 -96q0 -62 -16.5 -125t-51 -114t-86.5 -83t-122 -32q-24 0 -51 6t-50 19t-38 33.5t-15 49.5q0 34 19 55.5t54 21.5q13 0 26 -4t23.5 -12t17 -19.5t6.5 -25.5q0 -17 -4.5 -28t-11.5 -20.5t-17 -18t-20 -18.5q9 -6 19 -13
t22 -7q54 0 83.5 12.5t43 37t15.5 60.5t2 82l-1 52q-15 -6 -27 -10.5t-23.5 -8t-24 -5t-29.5 -1.5q-39 0 -73 12.5t-59 36t-39.5 56t-14.5 71.5q0 44 14.5 81.5t40.5 64.5t63 42.5t82 15.5zM212 597q-14 0 -24 -9t-17 -22.5t-10.5 -28t-3.5 -25.5q0 -14 -1 -38.5t-0.5 -52.5
t3.5 -57t10 -52.5t20 -38.5t33 -15q26 0 42 6.5t24.5 18.5t11.5 30t3 41q0 29 2 70.5t-4.5 80t-26 65.5t-62.5 27z" />
    <glyph glyph-name="colon" unicode=":" horiz-adv-x="223" 
d="M111 452q1 0 13.5 -13.5t28.5 -30t30.5 -32t20.5 -20.5q4 -4 4 -8l-14 -14.5t-32 -31.5t-34 -32t-19 -18q-13 14 -23.5 30t-23.5 30q-11 11 -23.5 18t-23.5 18l-1 4q0 5 11 14.5t27 22.5t32 29t27 34zM109 186q14 -7 22.5 -20t18.5 -24q14 -15 31.5 -26t31.5 -26
q-59 -40 -96 -98h-8q-8 10 -15.5 20.5t-15.5 20.5q-14 18 -33.5 29t-34.5 28q16 12 34.5 24.5t31.5 27.5q9 11 14 24t19 20z" />
    <glyph glyph-name="semicolon" unicode=";" horiz-adv-x="218" 
d="M98 444l16.5 -14.5t36.5 -32.5t37.5 -33.5t19.5 -18.5q-14 -11 -29.5 -21.5t-28.5 -24.5q-12 -13 -21.5 -28t-22.5 -27q-14 17 -26 35.5t-31 32.5q-11 8 -22.5 15.5t-16.5 20.5q7 12 18.5 22.5t24.5 21.5t25 23.5t20 28.5zM95 160q25 0 42.5 -10.5t28.5 -27.5t16.5 -38.5
t5.5 -42.5q0 -30 -12.5 -59t-31.5 -55.5t-42 -49t-45 -39.5l-6 6v19q38 23 66.5 59.5t32.5 82.5q-14 2 -27 0.5t-27 -1.5q-38 0 -57.5 22t-19.5 58q0 37 20 56.5t56 19.5z" />
    <glyph glyph-name="less" unicode="&#x3c;" horiz-adv-x="413" 
d="M35 140h-1v146l1 -1l348 129v-43l-253 -158l253 -158v-43z" />
    <glyph glyph-name="equal" unicode="=" 
d="M449 365v-76h-397v76h397zM449 214v-76h-397v76h397z" />
    <glyph glyph-name="greater" unicode="&#x3e;" horiz-adv-x="413" 
d="M34 12v43l253 158l-253 158v43l348 -129l1 1v-146h-1z" />
    <glyph glyph-name="question" unicode="?" horiz-adv-x="401" 
d="M182 699q39 0 76.5 -10.5t67 -31.5t47.5 -53t18 -75q0 -42 -18.5 -70t-47 -48t-61 -34.5t-61 -29t-47 -32t-18.5 -42.5q0 -13 6 -23.5t14 -19.5q25 -13 56 -13q12 0 29 3.5t32 10.5t25.5 18.5t10.5 27.5q0 17 -6 32.5t-8 32.5h14q8 -11 15.5 -22.5t7.5 -25.5
q0 -23 -11 -41t-28.5 -30.5t-38.5 -19.5t-41 -7q-30 0 -53.5 10.5t-39 29t-24 43.5t-8.5 53q0 41 12.5 66t31 41.5t40.5 28t40.5 24t31 31t12.5 48.5q0 21 -8 39.5t-21.5 32.5t-32 22.5t-39.5 8.5q-56 0 -85.5 -29t-29.5 -85q0 -32 10.5 -58t42.5 -39q-5 -5 -6.5 -9.5
t-10.5 -4.5q-16 0 -28.5 14t-21.5 33t-13.5 39t-4.5 32q0 33 16.5 58t41.5 41.5t55.5 24.5t58.5 8zM223 178q8 -4 13.5 -12t11.5 -15q16 -18 34 -32t35 -31q-6 -4 -20.5 -18t-30 -29.5t-28 -27.5t-13.5 -12h-3.5t-3.5 2q-13 11 -24 25.5t-23 26.5q-11 10 -23 16.5t-23 16.5
q9 6 25.5 21t32.5 30t28 27z" />
    <glyph glyph-name="at" unicode="@" horiz-adv-x="803" 
d="M497 299q0 20 -7.5 33.5t-24.5 13.5q-18 0 -35.5 -14t-33.5 -36.5t-29 -51t-22.5 -56.5t-15 -53t-5.5 -41q0 -33 25 -33q10 0 29.5 20t39.5 47t36.5 54t22.5 40q20 49 20 77zM625 372q6 0 7 -5t-2 -12t-10.5 -27.5t-16.5 -46l-18 -51l-15 -42.5q-4 -13 -10.5 -33
t-12.5 -41t-10.5 -39.5t-4.5 -28.5q0 -11 7.5 -15.5t13.5 -4.5q14 0 37.5 16.5t46.5 49.5t39.5 82t16.5 113q0 111 -54 174t-156 63q-51 0 -96.5 -18.5t-84 -50t-69 -74t-52 -90.5t-33 -99t-11.5 -99q0 -60 16.5 -110t47 -86t73.5 -55.5t97 -19.5q44 0 92 14.5t83 48.5
q5 5 9 0l10 -19q4 -7 -4 -12q-18 -11 -41.5 -20t-51 -15.5t-58 -10t-60.5 -3.5q-83 0 -146 20.5t-105.5 58t-64.5 88.5t-22 113q0 59 18 116t50 108t76.5 94t97.5 74t112.5 48.5t121.5 17.5q74 0 133 -19t100.5 -53.5t63.5 -84t22 -110.5q0 -49 -24 -98.5t-67.5 -90
t-103.5 -66t-132 -25.5q-20 0 -32 10t-12 23q0 11 5 37.5t20 66.5l-5 2q-12 -17 -29.5 -41t-41 -46t-52.5 -37t-64 -15q-25 0 -44 15.5t-19 50.5q0 31 12 67t32.5 71.5t48 68t57.5 57.5t61.5 40t60.5 15q22 0 34 -9.5t17 -25.5l13 19q5 7 10 7h73z" />
    <glyph glyph-name="A" unicode="A" horiz-adv-x="793" 
d="M792 113q-1 -11 -13 -24t-29 -26.5t-37 -26t-38.5 -22.5t-32.5 -16t-18 -6q-1 0 -5 2q-9 5 -25 11.5t-32.5 13.5t-30.5 13.5t-20 11.5l-1 54q-18 -5 -41.5 -21t-47.5 -33.5t-45.5 -31t-35.5 -13.5q-9 0 -29.5 18t-51 39.5t-71.5 39.5t-92 18q-68 0 -68 -68
q0 -6 5.5 -15.5t10.5 -14.5l-16 -6q-11 9 -14.5 21.5t-3.5 26.5q0 32 14.5 52t37 33t50 21.5t53.5 18.5t48 23.5t34 36.5q10 19 15.5 46t8.5 55.5t4 56.5t1 50q0 26 -1.5 61.5t-11 67.5t-29.5 54.5t-56 22.5q-124 0 -124 -124q0 -32 10 -53.5t28 -35t42 -19.5t53 -6l-5 -26
q-33 -5 -60.5 4.5t-47.5 30t-31 51.5t-11 70q0 40 17 68t44.5 45.5t61.5 25.5t68 8q43 0 81.5 -19t67 -50.5t45 -71.5t16.5 -82q0 -33 -4 -67t-15 -65.5t-30.5 -58t-51.5 -44.5q-14 -8 -34 -18.5t-41 -21t-42 -19t-36 -11.5l46 1q39 0 67 -7t53 -17.5t50 -24.5t57 -27
q20 8 31.5 21t17 31.5t7 43.5t1.5 57l1 362l227 87l9 -24q-12 -5 -26.5 -11.5t-27 -17t-20.5 -25.5t-8 -36q0 -109 -1 -217.5t-1 -217.5q0 -13 7.5 -24t19 -18.5t25.5 -12t26 -4.5q11 0 22 11t16 23z" />
    <glyph glyph-name="B" unicode="B" horiz-adv-x="810" 
d="M590 702q14 -22 34 -47.5t44 -48t52.5 -40t60.5 -24.5q-32 -32 -65 -62.5t-72 -51.5q30 -14 58.5 -32.5t50 -42.5t34.5 -53.5t13 -66.5q0 -56 -28.5 -100t-74 -75.5t-103 -48t-115.5 -16.5q-80 0 -136.5 19.5t-102.5 42.5t-86.5 42.5t-87.5 19.5q-9 0 -17 -6.5t-13 -16
t-8 -20t-3 -18.5q0 -17 8.5 -26.5t20.5 -20.5l-10 -15q-37 21 -37 64q0 44 21 65.5t52 34.5t68 23.5t68 33.5t52 64.5t21 115.5v48t-3 55.5t-9 55.5t-19 48.5t-33 34.5t-50 13t-51 -10t-34 -27.5t-19 -41.5t-6 -51q0 -24 9 -43t23.5 -33t33 -24t37.5 -14l-8 -19
q-56 14 -86 50.5t-30 95.5q0 39 14.5 69.5t41 50.5t62.5 30.5t78 10.5q23 0 49.5 -7.5t51 -19.5t44.5 -28t32 -34q21 7 44 20.5t45.5 28t44 27.5t39.5 21zM241 202q29 -6 55 -22.5t49 -34.5q24 -19 47.5 -40.5t48.5 -40t53 -31t60 -12.5q27 0 48 10.5t34.5 29t20.5 44
t7 54.5q0 26 -17.5 60t-44 64.5t-57 51.5t-55.5 21q-39 0 -57 -33q-6 -10 -19 -21t-30.5 -23t-38 -23.5t-40 -21.5t-36.5 -18.5t-28 -13.5zM425 588q10 -24 15 -49t6 -52.5t0 -59t-1 -67.5q13 16 37.5 27.5t52.5 22t54.5 20.5t43.5 22q-8 6 -26.5 23t-38 37t-37 40t-24.5 31
q-5 7 -12.5 16t-11.5 17z" />
    <glyph glyph-name="C" unicode="C" horiz-adv-x="611" 
d="M601 149q-21 -41 -46.5 -70.5t-57 -49t-70.5 -28.5t-88 -10q-75 -1 -136 21.5t-103.5 65.5t-66 104t-23.5 136q0 31 5 71.5t15.5 82t27.5 81.5t41 71.5t56.5 50.5t73.5 19q22 0 43 -11t37 -28.5t25.5 -40.5t8.5 -47l76 128q13 0 27 -6t28 -13t28 -13t27 -6q12 0 23 10.5
t16 22.5l11 -6q-1 -6 -12.5 -30t-25.5 -52t-28 -53t-19 -34q-16 3 -31 12t-30 18.5t-30 16.5t-32 7q-8 0 -13 -6t-8 -14t-4 -16.5t-1 -14.5q0 -19 13.5 -36t33 -33.5t43 -34t43 -38.5t33 -46.5t13.5 -57.5q0 -31 -11 -61.5t-31.5 -55t-48.5 -39.5t-61 -15q-39 0 -63.5 11.5
t-38 31.5t-18.5 45.5t-5 54.5l22 3q0 -24 4 -46.5t15.5 -40.5t32 -28.5t52.5 -10.5q25 0 43.5 14t18.5 41q0 23 -12.5 40.5t-30.5 33t-40 30t-40 31.5t-30.5 38t-12.5 50q0 22 8.5 45t19 44t18.5 40.5t8 36.5q0 19 -8 38t-20.5 34t-29.5 24t-36 9t-38.5 -15.5t-19.5 -48.5
v-433q0 -37 4 -67t20.5 -51t49.5 -32t92 -11q58 0 100 16.5t71.5 39.5t48 48t29.5 43z" />
    <glyph glyph-name="D" unicode="D" horiz-adv-x="800" 
d="M487 466q-3 15 -9 30t-16.5 27.5t-25.5 20.5t-36 9q-14 0 -28 -1.5t-26 -7t-19.5 -16t-7.5 -27.5q0 -18 10 -34t25 -31t33 -30t33 -29t25 -28.5t10 -28.5q0 -30 -9.5 -59t-27.5 -52.5t-42.5 -41t-54.5 -25.5q14 -7 37.5 -29t50.5 -46t55 -42.5t52 -18.5q43 0 68 27.5
t38.5 67t17.5 82.5t4 73q0 78 -18.5 151.5t-57.5 131t-100.5 92.5t-147.5 35q-65 0 -125 -25t-104 -72q-10 -11 -17.5 -26t-12 -32t-6 -35t1.5 -34h-25q-1 62 12 89q23 47 56 77.5t73 48t86 24.5t95 7q81 0 159 -20t139.5 -62.5t99.5 -108t38 -156.5q0 -66 -23 -130
t-64.5 -114.5t-99 -82t-127.5 -31.5q-56 0 -111 15.5t-105 34t-94 34t-78 15.5q-38 0 -48.5 -24.5t-9.5 -57.5h-19q0 41 10.5 76t31.5 60.5t52 39.5t72 14q17 0 34 -5t33 -10.5t30 -10.5t25 -5q19 0 37 10.5t18 32.5t-20.5 44.5t-45.5 46.5t-45.5 49.5t-20.5 54.5
q0 83 45 130.5t130 47.5q19 0 36.5 -9.5t32 -24.5t24.5 -33.5t13 -36.5z" />
    <glyph glyph-name="E" unicode="E" horiz-adv-x="596" 
d="M582 349q-26 17 -51.5 19t-51.5 -13q17 -18 24 -49t7 -55q0 -32 -12.5 -62t-33.5 -53.5t-49 -38t-59 -14.5q-26 0 -47 10.5t-35.5 28t-22.5 40.5t-8 48l19 14q0 -24 5.5 -45.5t17.5 -37.5t31 -25.5t45 -9.5q23 0 40 15t17 38q0 22 -11.5 40t-29.5 34t-38 32.5t-38 36.5
t-29.5 45t-11.5 58q0 24 6.5 45.5t15 42.5t15 41.5t6.5 43.5q0 13 -9 28.5t-22.5 29t-29.5 22t-29 8.5q-15 0 -23 -5t-12 -14t-4.5 -20.5t-1.5 -24.5l-4 -394q0 -51 4 -88.5t20.5 -62t50 -37t92.5 -12.5q87 0 142 38.5t95 114.5l14 -5q-32 -88 -99.5 -130.5t-159.5 -42.5
q-90 0 -151 33.5t-98 89t-52.5 128t-15.5 150.5q0 45 12 98t36.5 98.5t63.5 76.5t93 31q20 0 37.5 -9t31.5 -23.5t23 -32t13 -35.5q20 21 35.5 50t24.5 55q12 -2 30.5 -8t37.5 -13t34 -12.5t21 -5.5q13 0 20.5 10.5t12.5 22.5l14 -5q-16 -42 -38.5 -81.5t-46.5 -77.5
q-12 2 -29 9.5l-34 15t-32.5 13.5t-22.5 6q-16 0 -21 -13.5t-5 -26.5q0 -14 19 -37t44 -47t49.5 -45t35.5 -33q14 27 4.5 52.5t-32.5 45.5l5 10q29 -9 64 -5t65 27l8 -7q-8 -15 -11.5 -33t-2.5 -35.5t5.5 -34t13.5 -28.5z" />
    <glyph glyph-name="F" unicode="F" horiz-adv-x="628" 
d="M103 278q31 3 56.5 -7.5t44.5 -30t29.5 -44t10.5 -48.5q0 -34 -11.5 -62t-26 -55t-26 -54t-11.5 -58q0 -33 12.5 -55.5t33 -36t47 -19.5t53.5 -6q36 0 63.5 11.5t46.5 32.5t29 49.5t10 62.5q0 29 -15.5 58.5t-39.5 59t-51 59t-51 58.5t-39.5 58t-15.5 57q0 54 13.5 106.5
t46.5 105.5q-22 9 -46 23t-48 27t-47 22.5t-42 9.5q-24 0 -43 -10.5t-32 -27t-19.5 -38t-5.5 -43.5q1 -29 11.5 -51t26 -37.5t35 -25t39.5 -13.5l-3 -20q-63 17 -95.5 51t-32.5 102q0 44 20.5 80t53.5 61.5t73.5 39t80.5 13.5q46 0 92.5 -17.5t89 -38.5t78 -38.5t60.5 -17.5
q27 0 36.5 23t9.5 68h19q3 -48 -8.5 -82t-34 -56t-54 -32.5t-68.5 -10.5q-35 0 -65 7t-68 24q-6 -11 -11.5 -23.5t-5.5 -25.5q0 -22 14.5 -43.5t37 -45t50 -50.5t52.5 -59q23 36 16 69t-28 52l5 10q32 -13 70 -10.5t68 25.5l8 -7q-8 -15 -11.5 -33t-2.5 -35.5t5.5 -34
t13.5 -28.5l-6 -8q-24 16 -60 14t-68 -28q30 -41 49.5 -91t17.5 -116q-2 -53 -19 -100.5t-48 -83.5t-75.5 -57t-99.5 -21q-53 0 -94.5 22t-70 58t-44 82t-15.5 94q0 29 14 53t31.5 45.5t31.5 42t14 42.5q0 14 -6.5 22t-16 11.5t-20 4.5t-19.5 1z" />
    <glyph glyph-name="G" unicode="G" horiz-adv-x="781" 
d="M725 656q-2 -17 -11.5 -43t-23 -54t-29 -54.5t-28.5 -45.5q11 -6 32 -15.5t42 -28t36.5 -49.5t15.5 -80q0 -80 -33 -138.5t-87 -97t-122.5 -57.5t-139.5 -19q-183 0 -275 99t-92 279q0 49 16 107t46.5 107.5t76 82.5t104.5 33q33 0 64 -13t57 -36q24 29 45 47l13 -10
q-14 -14 -25 -26t-20 -24q27 -28 43 -61q13 10 28 26t29 33.5t25.5 35t19.5 30.5q12 -7 29 -16t36.5 -17.5t39 -14t36.5 -5.5q13 0 22 9t15 22zM507 337q21 -33 22 -83q0 -32 -11 -63t-31.5 -55t-49 -39t-62.5 -15q-24 0 -45.5 10t-37.5 27t-25 39t-9 46q0 17 6 33t13 31
l19 -9q-11 -18 -13.5 -30t-2.5 -23q0 -20 7.5 -38.5t20 -33t29.5 -23.5t37 -9q10 0 24 3t26.5 9t21 15t8.5 21q0 26 -13.5 45t-33.5 35t-44 31.5t-44 34.5t-33.5 44.5t-13.5 61.5q0 52 26 108.5t61 103.5q-23 20 -47.5 32.5t-50.5 12.5q-41 0 -65.5 -34.5t-24.5 -88.5
l-3 -285q0 -71 11.5 -120.5t37 -80t65 -44t96.5 -13.5q50 0 93.5 8t76 29t51.5 59t19 98q0 54 -21 98t-73 65zM336 521q0 -37 17.5 -59t42.5 -38t52.5 -32t48.5 -41q18 13 36.5 29.5t36 35t32.5 37.5t26 38q-8 3 -30.5 14t-48 22.5t-48.5 21t-30 9.5q-10 0 -18.5 -4.5
t-15.5 -9.5q16 -39 14 -75l-17 -1q2 29 -15.5 65.5t-46.5 67.5q-19 -26 -27.5 -47t-8.5 -33z" />
    <glyph glyph-name="H" unicode="H" horiz-adv-x="696" 
d="M210 480q0 -21 6 -39t15.5 -34.5t22 -33t24.5 -33.5q14 16 30 37.5t38 41t51 33t69 13.5q50 0 91 -19t69.5 -52t44 -76t15.5 -91q0 -53 -22.5 -102t-54.5 -93t-66.5 -82.5t-59.5 -70.5q-14 17 -38 29t-50 12q-22 0 -30.5 -14.5t-4 -32t22.5 -32t48 -14.5q17 0 33.5 11
t24.5 25l18 -8q-11 -23 -33 -36t-47 -13q-46 0 -69.5 23.5t-23.5 65.5q0 27 12 47t27.5 37t30.5 33t21 34q35 -5 65.5 -22t61.5 -33q12 14 20 25t13 22t7 24.5t2 33.5q0 24 -9.5 54.5t-25.5 63.5t-37 64.5t-43.5 56.5t-45 40.5t-41.5 15.5q-34 0 -55.5 -16t-49.5 -48
q19 -28 33 -61.5t14 -79.5q0 -41 -17 -80.5t-45.5 -70.5t-66 -50t-78.5 -19q-23 0 -44 5.5t-37 17t-26 29.5t-10 44q0 32 21.5 54t49.5 23q38 1 59 -20t21 -59q0 -14 -6.5 -25t-17 -19t-22.5 -13.5t-24 -8.5q22 -12 48 -12q19 0 38 7t35 19t26 29t10 37q0 31 -20 64
t-43.5 67t-43.5 69t-20 70q0 51 25.5 107.5t67 103t93 77t103.5 30.5q24 0 39.5 -8t27 -18t22 -18t26.5 -8q14 0 24.5 16t14.5 30l18 -4q-9 -24 -21 -47.5t-29 -42t-40 -29.5t-53 -11q-22 0 -41 9t-36.5 20.5t-32.5 20.5t-29 9q-17 0 -33.5 -8t-29 -22t-20 -32t-7.5 -39z
" />
    <glyph glyph-name="I" unicode="I" horiz-adv-x="650" 
d="M595 655q20 -14 32.5 -35t12.5 -50q0 -31 -14.5 -52t-36.5 -33.5t-49 -18t-52 -5.5q-52 0 -97 16.5t-84.5 37t-74.5 37t-68 16.5q-34 0 -56.5 -21.5t-22.5 -55.5q0 -25 9.5 -51.5t26.5 -48t40.5 -35.5t51.5 -14q7 0 21.5 2.5t20.5 7.5l5 -17q-5 -5 -16 -8t-25 -3
q-30 0 -57.5 11.5t-49 31.5t-34 47.5t-12.5 59.5q0 40 12.5 76.5t36 63.5t57.5 43t76 16q62 0 112.5 -24t91 -52.5t71.5 -52.5t55 -24q26 0 35.5 15.5t9.5 35.5q0 24 -11.5 42t-27.5 29zM12 -81q-5 39 3.5 70t27.5 53t46 34t60 12t60 -10.5t51 -26.5t47 -34t46 -34t48 -26.5
t55 -10.5q16 0 32 9.5t29.5 23.5t22 31.5t8.5 32.5q0 30 -13 51.5t-33 39.5t-43 35t-43 37t-33 46t-13 62q0 71 43.5 103t113.5 32q39 0 59.5 -23.5t27.5 -58.5l-19 -3q-5 26 -23 46.5t-47 20.5q-39 0 -39 -41q0 -20 10 -35t25 -29.5t32 -30t32 -36t25 -48t10 -65.5
q0 -51 -17 -95t-50 -76.5t-81.5 -51.5t-112.5 -19q-51 0 -93.5 15t-78 32.5t-64 32.5t-49.5 15q-20 0 -29.5 -6.5t-13.5 -17t-3.5 -24t0.5 -28.5z" />
    <glyph glyph-name="J" unicode="J" horiz-adv-x="650" 
d="M584 659q12 -7 22 -18t17.5 -23.5t12 -25t4.5 -22.5q0 -31 -14.5 -52t-36.5 -33.5t-49 -18t-52 -5.5q-52 0 -97 16.5t-84.5 37t-74.5 37t-68 16.5q-34 0 -55.5 -26t-21.5 -60q0 -25 8 -49.5t23.5 -44.5t37.5 -32.5t50 -12.5q13 0 28.5 2.5t30.5 9.5l4 -21q-13 -5 -26 -8
t-32 -3q-30 0 -56.5 11.5t-46 31.5t-31 48t-11.5 60q0 40 12.5 76.5t36 63.5t57.5 43t76 16q62 0 112.5 -24t91 -52.5t71.5 -52.5t55 -24q26 0 34 16t8 36q0 17 -12.5 37.5t-33.5 37.5zM11 -187q-7 31 4 60.5t32.5 53t50.5 38t59 14.5q49 0 90 -22t78 -49t71 -49t68 -22
q16 0 32 9.5t29.5 23.5t22 31.5t8.5 32.5q0 34 -14 63.5t-34.5 57t-45 54t-45 55t-34.5 59.5t-14 67t11.5 65t32.5 50t50 32.5t64 11.5q39 0 59.5 -23.5t27.5 -58.5l-19 -3q-5 26 -23 46.5t-47 20.5q-39 0 -39 -41q0 -30 22 -62.5t49 -73t49 -91.5t22 -117q0 -53 -17.5 -99
t-51.5 -80t-82.5 -53t-109.5 -19q-51 0 -93.5 15t-78 32.5t-64 32.5t-49.5 15q-19 0 -29.5 -6.5t-16 -17t-6.5 -24.5t-1 -28z" />
    <glyph glyph-name="K" unicode="K" horiz-adv-x="713" 
d="M713 133q-11 -18 -31.5 -36t-43.5 -35t-44 -32t-33 -27q-17 8 -33.5 16t-35.5 11q-8 2 -20 2t-18 6q-3 3 -13.5 31.5t-23.5 64.5t-25 69t-19 45q-3 5 -9 3l-25 -13q-1 -47 -16 -89t-42.5 -74.5t-66 -51.5t-85.5 -19q-24 0 -45.5 5.5t-38 17.5t-26 31t-9.5 45q0 33 22 56
t58 23q30 0 51.5 -18.5t21.5 -52.5q0 -35 -10.5 -52.5t-29.5 -25.5q19 0 41 2.5t40.5 10.5t30.5 23.5t12 41.5q0 40 -24 81.5t-53.5 84t-53.5 86t-24 88.5q0 65 25.5 113.5t69 80.5t100.5 47.5t120 15.5q49 0 92.5 -19.5t76 -51.5t51.5 -72t19 -80q0 -14 -3 -29.5t-14 -36.5
l-14 5q5 14 7.5 27.5t2.5 26.5q0 51 -23.5 89.5t-58 64t-74 38.5t-71.5 13q-30 0 -66 -6.5t-67.5 -20.5t-52.5 -35.5t-21 -50.5q0 -23 12.5 -49t30.5 -55q16 22 35 46t39 48t40 46.5t38 40.5q34 -26 59.5 -50t46.5 -39t38.5 -17t34.5 16l13 -10q-4 -16 -19 -40.5t-33 -50
t-34.5 -49t-23.5 -36.5l5.5 -6.5t12.5 -16t13.5 -20.5t9.5 -21q3 -11 12.5 -37.5t21.5 -55t24 -51t19 -26.5q17 -9 35 -19t35 -10q9 0 22 12t24 27zM245 448q15 -23 30 -47t28.5 -48t22.5 -48t12 -48q25 15 45.5 34.5t36.5 39.5t27 40t18 37q-32 18 -65 37t-61 45l-38 28
q-3 -3 -9.5 -11.5t-15 -18.5t-17 -21t-14.5 -19z" />
    <glyph glyph-name="L" unicode="L" horiz-adv-x="501" 
d="M109 176q-14 0 -30.5 3t-31 12t-24.5 24t-10 39q0 15 2.5 22.5t4.5 9.5l18 -12q-2 -7 -3.5 -11t-1.5 -15q0 -18 18 -36t60 -18q19 0 30 11.5t11 36.5t-19 53.5t-41.5 58.5t-41.5 62t-19 65q0 42 15 82t42 71t64.5 50t82.5 19q40 0 76.5 -14.5t64.5 -40t45 -60.5t17 -75
q0 -17 -4 -33.5t-8.5 -32t-8 -31t-3.5 -30.5q0 -7 3 -13t8 -9t12 -2t15 9l10 -7q-9 -16 -22.5 -23.5t-38.5 -7.5q-23 0 -41.5 8.5t-32 23.5t-20.5 34.5t-7 41.5q0 21 5.5 39.5t12.5 36.5t12.5 35.5t5.5 35.5q0 51 -23.5 73.5t-74.5 22.5q-23 0 -43.5 -7.5t-36 -21.5
t-24.5 -33.5t-9 -43.5q0 -30 18 -58.5t39 -59t39 -65t18 -76.5q0 -23 -3 -45t-12 -40.5t-25 -32t-41 -20.5q2 0 5 0.5t6 0.5q55 0 94 -10.5t67.5 -22.5t50.5 -22.5t44 -10.5q13 0 30.5 12t28.5 31l12 -14q-15 -21 -34 -38t-38.5 -33.5t-39 -33.5t-34.5 -38q-20 2 -47.5 17.5
t-59 33t-66 31.5t-70.5 14q-32 0 -55 -14.5t-23 -34.5q0 -25 11 -34l-11 -10q-8 5 -13 15.5t-5 30.5q0 43 28 77.5t80 47.5h-10v0z" />
    <glyph glyph-name="M" unicode="M" horiz-adv-x="1122" 
d="M700 611q8 -26 9.5 -52t1.5 -48q0 -59 -11 -104.5t-28.5 -86.5t-38 -82.5t-38.5 -91.5q21 -1 43 -7t40 -18.5t29 -32.5t11 -48q0 -10 -1 -20l-2 -20h-141q2 11 3 23.5t1 23.5q0 23 -12 42t-38 19q-24 0 -37.5 -10.5t-20 -26t-7 -34.5t2.5 -37h-16q-2 8 -5 19.5t-3 19.5
q0 34 15 54t35.5 31t42 15.5t35.5 7.5q4 19 6 45.5t3.5 53t2 48.5t0.5 32q0 26 -4 70t-13.5 90t-25 87t-39.5 63t-56.5 17t-75.5 -51q32 -59 44 -123.5t12 -115.5q0 -60 -18 -123.5t-53.5 -116t-88.5 -86t-122 -33.5q-23 0 -44.5 7.5t-38 22t-27 34t-10.5 43.5q0 35 19 55.5
t54 20.5t55 -20t20 -54t-19.5 -49t-46.5 -28q26 -13 53 -13q28 0 47.5 10.5t31.5 28.5t17.5 41t7.5 49l5 354q0 27 -4.5 56.5t-16.5 55t-33 42t-54 16.5q-32 0 -56 -13t-40 -34t-24 -48t-8 -55q0 -30 11 -52.5t29.5 -36.5t43.5 -21t53 -7v-19q-32 0 -60.5 10.5t-50 29
t-34 45.5t-12.5 60q0 36 12 65.5t33.5 51t51.5 33.5t66 12q58 0 99 -21.5t79 -55.5q19 14 34.5 28t33 25.5t41 18.5t58.5 7q61 0 100 -20t68 -52q28 32 65 52.5t81 20.5t75.5 -23t58 -51t51.5 -51t55 -23q14 0 19.5 9.5t13.5 22.5l17 -7q-7 -27 -34.5 -46t-57.5 -35t-54 -32
t-24 -37v-252q1 -11 2.5 -24.5t9.5 -18.5q17 -11 29 -21.5t33 -10.5q12 0 23.5 11t16.5 22l16 -11q-2 -8 -12.5 -19t-26 -24t-34 -25.5t-35.5 -23.5t-31 -18t-20 -9q-16 5 -29.5 13t-27.5 15q-9 4 -27.5 8.5t-24.5 10.5q-5 5 -5.5 12t-0.5 15v252q0 28 19.5 52t46 44
t53.5 36t42 29q-32 11 -65.5 36t-64 50.5t-55 45t-38.5 19.5t-26.5 -8.5t-19.5 -21.5z" />
    <glyph glyph-name="N" unicode="N" horiz-adv-x="891" 
d="M144 373q-32 11 -57 23t-42 30t-26 44.5t-9 66.5q0 37 14 66.5t38 50.5t57.5 32.5t72.5 11.5q72 -1 125 -32.5t85 -85.5q9 19 23 39.5t34.5 37.5t48 28.5t63.5 11.5q54 0 93 -23.5t68.5 -52t52 -52t43.5 -23.5q19 0 24 13.5t5 29.5q0 12 -4 24t-14 19l9 11q15 -8 22 -25
t7 -31q0 -30 -10 -47t-25.5 -27.5t-33 -17.5t-33 -17.5t-25.5 -26t-10 -43.5v-99l1 -167q4 -3 15 -9t24 -12.5t24 -11t15 -4.5q14 0 27 12.5t18 27.5l16 -5q0 -13 -20.5 -34t-48 -42.5t-54.5 -40t-39 -26.5q-23 17 -48.5 26t-52.5 15q-6 2 -14 2.5t-8 8.5l-3 283
q0 20 18.5 38.5t43 36t49.5 34.5t37 33q-37 2 -66.5 26.5t-57 52.5t-56.5 51t-64 23q-22 0 -44.5 -18t-39.5 -48q20 -40 29.5 -87t10.5 -101q0 -57 -18 -123.5t-53.5 -123t-88 -94t-119.5 -37.5q-26 0 -51.5 4t-46 15t-33.5 30.5t-13 51.5q0 38 20 58.5t58 20.5q35 0 55 -23
t20 -56q0 -23 -12 -43.5t-33 -30.5q23 -5 42 -5q45 0 68 22t32 52t9 61.5v50.5l2 288q0 33 -3.5 65.5t-14.5 58.5t-31.5 42.5t-53.5 16.5q-32 0 -60.5 -10.5t-50.5 -29t-35 -43.5t-13 -55q0 -36 8.5 -59.5t25 -39t40 -26t52.5 -20.5z" />
    <glyph glyph-name="O" unicode="O" horiz-adv-x="721" 
d="M26 5q-16 27 -16 57q0 10 3 24.5t11.5 29t24 28t40.5 23.5q-28 6 -46 17.5t-28 24.5q-1 1 5 9.5t8 10.5q20 -16 39.5 -27.5t51.5 -11.5q51 0 75 18.5t24 50.5q0 13 -10 24t-25 21t-33 20.5t-33 24.5t-25 32t-10 43q0 57 24.5 104.5t58.5 85.5q-32 15 -51.5 38t-19.5 58
h16q0 -17 12.5 -29.5t35.5 -12.5q34 0 60 4.5t49.5 10t47 10t52.5 4.5q82 0 146.5 -30.5t108 -82.5t66.5 -121t23 -146q0 -72 -20 -130.5t-59 -100t-96 -63.5t-130 -22q-54 0 -106 15.5t-96.5 33.5t-80 33.5t-56.5 15.5q-14 0 -25 -9.5t-11 -23.5q0 -20 5.5 -30.5
t10.5 -27.5zM417 543q-25 10 -54.5 17t-60.5 13.5t-61.5 14t-57.5 18.5q-14 -19 -27 -41.5t-13 -33.5q0 -14 11.5 -25t28.5 -22.5t37.5 -23.5t37.5 -27.5t28.5 -35t11.5 -45.5q0 -20 -7 -43t-20 -46.5t-30.5 -44t-39.5 -34.5q22 -1 49.5 -12t56 -26.5t57.5 -33t55 -33
t47.5 -25.5t35.5 -10q31 0 60.5 16t51.5 41.5t35.5 57t13.5 61.5q0 59 -23.5 111t-59.5 93.5t-79.5 72t-83.5 46.5z" />
    <glyph glyph-name="P" unicode="P" horiz-adv-x="705" 
d="M375 606q22 29 41.5 47t40.5 28.5t44 14t52 3.5q25 0 49 -6.5t44 -21.5q-6 -14 -16.5 -25.5t-20.5 -23t-17.5 -24t-7.5 -28.5q0 -27 17.5 -51t38 -50.5t38 -59t17.5 -77.5q0 -22 -12.5 -55.5t-33 -70.5t-47 -75t-56 -68t-59 -49t-55.5 -19q-11 0 -23.5 2t-26.5 5
q-4 -26 -13 -58t-19.5 -62t-20 -53.5t-12.5 -32.5h-20q-6 11 -17.5 39t-23 62.5t-20 69t-8.5 57.5v22q-29 9 -53.5 15t-39.5 6q-13 0 -22.5 -6.5t-17 -16t-13 -21t-11.5 -20.5l-17 13q1 5 9.5 18t20 30.5t25.5 37t27 37t22.5 30t13.5 15.5q10 0 24.5 -1.5t31.5 -5.5l2 376
q0 31 -2.5 53t-12.5 36t-31.5 20.5t-58.5 6.5q-18 0 -35.5 -11t-31 -28t-21.5 -36.5t-8 -35.5q0 -21 7.5 -42t21.5 -37.5t32.5 -27t41.5 -10.5v-25q-29 0 -51.5 11.5t-38 31t-24 44.5t-8.5 53q0 40 13.5 68t36.5 45t54.5 25t67.5 8q38 0 64 -5t46.5 -16.5t39.5 -29.5t43 -45
zM515 663q-21 0 -44 -7t-42.5 -20.5t-32.5 -33t-13 -43.5l1 -420q45 -12 84 -21t61 -9l13 1q10 5 21 15t20 22.5t14.5 26t5.5 25.5q0 21 -16 47t-35 53t-35 55t-16 54q0 20 6.5 48t17 57t23.5 54.5t27 40.5q5 5 6 10t1 11q0 7 -8.5 13t-19.5 10.5t-22 7.5t-17 3z" />
    <glyph glyph-name="Q" unicode="Q" horiz-adv-x="818" 
d="M26 5q-16 27 -16 57q0 10 3 24.5t11.5 29t24 28t40.5 23.5q-28 6 -46 17.5t-28 24.5q-1 1 5 9.5t8 10.5q20 -16 39.5 -27.5t51.5 -11.5q51 0 75 18.5t24 50.5q0 13 -10 24t-25 21t-33 20.5t-33 24.5t-25 32t-10 43q0 57 24.5 104.5t58.5 85.5q-32 15 -51.5 38t-19.5 58
h16q0 -17 12.5 -29.5t35.5 -12.5q34 0 60 4.5t49.5 10t47 10t52.5 4.5q82 0 146.5 -30.5t108 -82.5t66.5 -121t23 -146q0 -35 -4.5 -66.5t-14.5 -59.5q24 -17 43.5 -34t31.5 -31q14 11 22 30l18 -9q-3 -12 -20.5 -35t-38 -46.5t-39.5 -41t-26 -17.5q-8 14 -22 34t-34 41
q-39 -39 -94 -60t-127 -21q-54 0 -106 15.5t-96.5 33.5t-80 33.5t-56.5 15.5q-14 0 -25 -9.5t-11 -23.5q0 -20 5.5 -30.5t10.5 -27.5zM417 543q-25 10 -54.5 17t-60.5 13.5t-61.5 14t-57.5 18.5q-14 -19 -27 -41.5t-13 -33.5q0 -14 11.5 -25t28.5 -22.5t37.5 -23.5
t37.5 -27.5t28.5 -35t11.5 -45.5q0 -20 -7 -43t-20 -46.5t-30.5 -44t-39.5 -34.5q22 -1 49.5 -12t56 -26.5t57.5 -33t55 -33t47.5 -25.5t35.5 -10q31 0 59 15t50 40q-27 27 -57 47.5t-53 20.5q-49 0 -44 -56l-17 4q0 27 11.5 48.5t31.5 36.5t46 23.5t55 8.5q20 0 39.5 -6.5
t38.5 -16.5q1 3 1 11q0 59 -23.5 111t-59.5 93.5t-79.5 72t-83.5 46.5z" />
    <glyph glyph-name="R" unicode="R" horiz-adv-x="775" 
d="M723 536q-29 -37 -59.5 -72.5t-64.5 -67.5q25 -23 36.5 -65.5t16 -85t5 -75.5t5.5 -39q4 -5 12 -10.5t17.5 -10.5t18.5 -8.5t15 -3.5q12 0 18 12.5t8 23.5h17q-1 -20 -17 -42.5t-37 -43t-43.5 -37t-35.5 -23.5l-22 11t-34.5 17t-34.5 16.5t-21 10.5q-13 15 -14.5 46.5
t-2 69t-6 76t-26.5 67.5q-11 -6 -22.5 -11.5t-22.5 -10.5q-6 -61 -27.5 -114.5t-57.5 -93t-86 -62t-113 -22.5q-27 0 -51 6t-42 19.5t-28 34.5t-10 51q0 32 23.5 53t55.5 21q15 0 28 -6t23 -16t16 -23t6 -27q0 -27 -10.5 -48t-37.5 -28q12 -10 24 -12.5t24 -2.5
q14 0 32.5 7.5t35 23.5t27.5 39.5t11 56.5l3 357q0 30 -2.5 60t-13 54t-32 39.5t-60.5 15.5q-33 0 -58 -13.5t-42 -36.5t-25.5 -52.5t-8.5 -61.5q0 -38 14 -61t33.5 -36t39.5 -17.5t32 -6.5l-2 -19l-11 1q-29 3 -52.5 12t-41 27t-26.5 45t-9 65q0 35 10.5 66.5t32 55.5
t54.5 38t80 14q84 0 133 -36t75 -96q18 13 44.5 33t53 40.5t49.5 37t36 23.5q14 -21 32 -43.5t37.5 -42.5t39 -36.5t36.5 -26.5zM431 323q0 -5 -0.5 -9.5t-0.5 -9.5q20 8 47 26t53.5 38.5t49 40.5t33.5 33q-17 14 -35.5 30.5t-37 34.5t-35.5 38t-29 41q-17 -14 -34 -26
t-38 -30q15 -45 21 -97.5t6 -109.5z" />
    <glyph glyph-name="S" unicode="S" horiz-adv-x="776" 
d="M397 685q64 0 103 -15.5t66 -34.5t50 -34.5t56 -15.5q17 0 24 15.5t7 29.5q0 11 -5.5 21t-10.5 20l14 9q7 -10 14.5 -20.5t7.5 -23.5q0 -29 -6.5 -54.5t-20.5 -44.5t-36.5 -30.5t-55.5 -11.5q-48 0 -84.5 25t-67 55.5t-59 55.5t-60.5 25q-34 0 -59 -18t-43 -47t-29.5 -66
t-18 -74.5t-9 -73t-2.5 -61.5q0 -65 11 -120.5t38.5 -96t75 -63.5t120.5 -23q60 0 115.5 15.5t98 46t68 76.5t25.5 108q0 18 -3 40.5t-11.5 42.5t-22.5 34t-36 14q-24 0 -37.5 -14.5t-24.5 -36t-23 -46.5t-32 -46.5t-52.5 -36t-84.5 -14.5q-30 0 -58.5 10t-50.5 28.5
t-35 44.5t-13 58q0 24 8 46t22.5 38.5t35 26t45.5 9.5q11 0 25.5 -3t25.5 -7l-7 -24q-14 5 -25 6.5t-25 1.5q-37 -1 -57 -29.5t-20 -66.5q0 -14 4.5 -28.5t13 -26t20.5 -18.5t27 -7q28 0 44 15t27 37t22 48t29.5 48t48.5 37t81 15q42 0 73.5 -15.5t53 -41.5t32 -61.5
t10.5 -74.5q0 -75 -30.5 -128t-80 -86.5t-113 -48.5t-128.5 -15q-78 0 -149 21.5t-125 64t-86 106t-32 148.5q0 80 27 146.5t77.5 114t122 74t160.5 26.5z" />
    <glyph glyph-name="T" unicode="T" horiz-adv-x="681" 
d="M522 502q-62 0 -104.5 18.5t-80.5 42.5q-20 -16 -33.5 -35.5t-13.5 -29.5q0 -20 12.5 -33.5t32 -25.5t41.5 -25t41.5 -31t32 -44t12.5 -63q0 -41 -28 -81t-71 -67q44 -25 89 -45.5t101 -20.5q48 0 72 31.5t24 77.5q0 19 -6.5 33t-18.5 28l15 13q18 -19 24.5 -37.5
t6.5 -43.5q0 -45 -21 -76.5t-54 -51t-73 -28t-78 -8.5q-58 0 -108.5 16t-95.5 35.5t-85.5 35.5t-78.5 16q-17 0 -31 -13.5t-14 -30.5t8 -31.5t20 -26.5h-20q-14 10 -21.5 29t-7.5 43q0 28 13 51.5t33.5 40t46 26t51.5 9.5q57 0 102.5 -18.5t86.5 -41.5q18 8 35.5 24t19.5 33
q0 14 -12.5 25.5t-31.5 23t-41 24t-41 29.5t-31.5 39.5t-12.5 54.5q0 33 8.5 61t22 51t29.5 40.5t31 29.5q-19 12 -38 23.5t-39.5 20.5t-44 14.5t-51.5 5.5q-22 0 -38.5 -11t-28 -28t-17.5 -37.5t-6 -40.5q0 -42 17 -67.5t49 -39.5l-13 -18q-11 0 -24 10t-24 26.5t-18 39
t-7 47.5q0 46 20 80.5t52 58t72 35t81 11.5q67 0 116.5 -19.5t88 -43t69 -43t59.5 -19.5q22 0 31.5 11t10 26.5t-5.5 32.5t-13 29l18 3q10 -13 15.5 -31.5t5.5 -53.5q0 -11 -6.5 -27.5t-22.5 -31.5t-41.5 -25.5t-63.5 -10.5z" />
    <glyph glyph-name="U" unicode="U" horiz-adv-x="692" 
d="M424 544q0 12 -6 22t-15 17.5t-19.5 11.5t-19.5 4v21q19 3 38 11t35.5 20t29 26.5t18.5 29.5h18q6 -15 18.5 -29.5t29 -26.5t35.5 -20t38 -11v-21q-9 0 -19.5 -4t-19.5 -11.5t-15 -17.5t-6 -22v-22l-2 -379q18 -15 36.5 -26t32.5 -11q13 0 23.5 10.5t9.5 27.5h18
q1 -30 -15 -48.5t-39.5 -33.5t-50 -29.5t-45.5 -35.5q-11 12 -26 27t-33.5 28t-40 22t-44.5 9q-29 0 -52 -7.5t-43 -19.5t-37.5 -27t-35.5 -30q-11 12 -25 28t-31.5 30.5t-38 24.5t-43.5 10t-38.5 -11t-15.5 -34q0 -8 5.5 -17t11.5 -11l-12 -13q-13 8 -21 20.5t-8 23.5
q0 31 10 50.5t25.5 31t35 18l37.5 12.5v382q0 23 -18 39t-42 16q-8 0 -15 -7t-6 -17l-19 -1q-2 22 11.5 35t36.5 18q40 9 71 30t42 50h18q6 -15 18.5 -29.5t29 -26.5t35.5 -20t38 -11v-21q-9 0 -19.5 -4t-19.5 -11.5t-15 -17.5t-6 -22v-391q9 -4 19.5 -11t20 -14.5t17 -16
t11.5 -15.5q32 7 61 30.5t43 55.5v362v0z" />
    <glyph glyph-name="V" unicode="V" horiz-adv-x="837" 
d="M68 44q0 30 14.5 52.5t36 41t46.5 33.5t46.5 29.5t36 30.5t14.5 35l-1 302q0 9 -3.5 27t-14.5 35t-31 30t-54 13q-23 0 -45.5 -9t-40.5 -25t-29 -37.5t-11 -45.5q0 -62 33 -95t82 -33v-22q-60 0 -97.5 33.5t-39.5 98.5q-1 43 12 74.5t37 51.5t58 30t76 10q69 0 117 -29.5
t74 -77.5q29 45 71.5 72t105.5 28q38 0 69.5 -17t57 -38t45.5 -38.5t35 -17.5q20 0 30 7.5t10 27.5q0 16 -9 25t-16 13l8 20q17 -3 29 -21t12 -34q0 -26 -11.5 -44.5t-31 -29.5t-46 -16t-55.5 -5q-41 0 -73.5 13t-60 29t-51.5 29t-47 13q-20 0 -36 -11.5t-24 -28.5
q23 -55 23 -123q0 -45 -11 -80t-33 -65t-53.5 -55.5t-73.5 -50.5q78 -6 136 -32.5t103 -55t80 -51.5t66 -23q14 0 32 6t33.5 16.5t26.5 25.5t11 33q0 23 -11 44.5t-27.5 42t-36 40.5t-36 40t-27.5 41t-11 44q0 33 9.5 60.5t28 48t45.5 32t62 11.5q13 0 28.5 -4.5t29 -14
t23 -24.5t9.5 -36l-20 -4q-9 27 -26 44.5t-49 17.5q-7 0 -16 -2t-16.5 -6.5t-12.5 -11t-5 -15.5q0 -11 10 -24t25 -29t33 -34t33 -38.5t25 -43t10 -46.5q0 -60 -20 -108t-55 -81t-84 -51t-107 -18q-70 0 -127.5 20.5t-104 44.5t-81.5 44.5t-59 20.5q-18 0 -35.5 -9.5
t-29.5 -24t-16.5 -32t3.5 -34.5l-22 -2q-4 4 -5.5 11t-1.5 12z" />
    <glyph glyph-name="W" unicode="W" horiz-adv-x="1162" 
d="M1012 511q-5 0 -7.5 -0.5t-6.5 0.5q-12 -12 -20.5 -26t-6.5 -31q1 -15 13 -26.5t29.5 -23.5t38 -26t38 -33.5t29 -46.5t11.5 -65q0 -58 -23.5 -103.5t-62.5 -77t-89 -48t-103 -16.5q-32 0 -64 5.5t-60 14t-51 19t-36 20.5q-34 -26 -79 -40.5t-103 -14.5
q-53 0 -101.5 16.5t-90.5 36t-76 36t-59 16.5q-24 0 -44 -14t-20 -40q0 -17 12 -27l-16 -15q-5 5 -10.5 15t-5.5 19q0 32 15 53t37 35t48 25t48 24t37 31.5t15 47.5v335q0 43 -25 65.5t-79 22.5q-24 0 -45 -11.5t-36.5 -29.5t-24 -40t-8.5 -44q0 -33 5.5 -54.5t17.5 -35.5
t31.5 -24t48.5 -20l-7 -20l-2 -2q-59 12 -86.5 50t-27.5 101q0 39 14 68t38 48.5t56 29.5t68 10q63 0 107 -21t73 -59q9 15 22.5 29t31.5 25t40 18t49 7q22 0 42.5 -6t38 -15.5t31.5 -21t25 -23.5q1 12 0 26t-5 30h28q7 -29 4 -56q10 8 28 19t41.5 21t51 17t57.5 7
q55 0 91 -17.5t62 -38t47.5 -38t49.5 -17.5q14 0 22.5 12t8.5 26q0 22 -11 36.5t-31 26.5l12 16q24 -15 37 -33.5t13 -44.5q0 -36 -14 -58.5t-35 -35t-45.5 -16.5t-45.5 -4zM424 413q0 -42 -14.5 -76t-39 -62.5t-57.5 -52.5t-69 -45q58 -6 104 -27t85.5 -44t74.5 -41t70 -18
q21 0 44.5 15.5t44 38t33.5 48.5t13 47q1 24 -17 50t-44.5 50t-56.5 45t-53 36q-1 41 11.5 70.5t30 54.5t34 49.5t24.5 55.5q-13 9 -30 17.5t-35 15t-35.5 10.5t-32.5 4t-33 -4t-36 -10.5t-34.5 -15t-28.5 -18.5q24 -38 35.5 -87t11.5 -106zM759 318q0 -36 -8 -72.5
t-21 -70.5q18 -15 55 -35t78 -37.5t78.5 -29.5t57.5 -12q13 0 27 6t26 16.5t19.5 23.5t7.5 27q0 18 -13 33.5t-32 30t-42 30t-42 34.5t-32 42.5t-13 54.5q0 48 20.5 87t49.5 69q-35 8 -68.5 27t-65 38.5t-59.5 34t-51 14.5q-17 0 -36.5 -17t-34 -40.5t-20.5 -47.5t5 -38
q15 -17 34.5 -31t37.5 -32t30 -42.5t12 -62.5z" />
    <glyph glyph-name="X" unicode="X" horiz-adv-x="714" 
d="M599 697q15 0 19 -8t2 -20t-6 -24.5t-4 -20.5q0 -16 4.5 -27.5t11.5 -16.5t15.5 -3t16.5 12l15 -15q-11 -19 -36.5 -33t-63.5 -14q-14 0 -29 5t-28 14t-22.5 21.5t-10.5 27.5q-3 6 -3 13.5v15.5q-14 -10 -26.5 -26.5t-23 -38t-16.5 -46.5t-6 -51q0 -27 2 -59.5t9 -67.5
h31q21 0 34 10t21.5 22.5t13.5 22.5t11 10q5 0 18 -7.5t27 -18t25 -21t11 -16.5t-8 -16t-18.5 -19t-21 -16t-15.5 -7q-19 0 -49 9t-74 20q9 -39 24.5 -76t38.5 -65.5t55.5 -46t76.5 -17.5q23 0 39.5 16t23.5 36l21 -2q1 -24 -13 -40.5t-35 -29.5t-47 -23t-49 -20.5
t-40.5 -22.5t-22.5 -29q-51 13 -86 40t-58 54.5t-35 48.5t-16 22q-15 -32 -31.5 -62t-38.5 -53t-51 -37.5t-69 -14.5q-20 0 -38.5 7.5t-32.5 20.5t-22.5 30.5t-8.5 36.5q0 30 19.5 54t54.5 24q15 0 29.5 -6.5t26 -17t18.5 -23t7 -25.5q0 -29 -9.5 -46.5t-31.5 -30.5
q22 0 49 14t50.5 40.5t39.5 64.5t16 86q0 29 -1 57.5t-3 56.5q-11 1 -22 1.5t-23 0.5q-15 0 -25.5 -8.5t-18 -18.5t-12.5 -18.5t-10 -8.5q-6 0 -17.5 8t-23 18t-20 19.5t-8.5 12.5v3q0 6 7.5 17t17 21.5t19 18.5t14.5 8q26 0 53.5 -12.5t65.5 -26.5q-5 44 -16.5 82t-32 66.5
t-52 44.5t-76.5 16q-20 0 -37 -10.5t-22 -24.5l-18 8q7 25 27 42.5t44.5 32.5t50.5 30t45 36q45 -7 79 -28.5t58 -47.5t40 -51.5t25 -40.5q12 36 28.5 68.5t41 57t59.5 38.5t83 14z" />
    <glyph glyph-name="Y" unicode="Y" horiz-adv-x="733" 
d="M217 198q4 1 11 8t14 18t11.5 24.5t4.5 28.5l5 258q0 19 -5.5 42t-16.5 42.5t-28.5 32.5t-42.5 13q-59 0 -95.5 -34.5t-36.5 -95.5q0 -25 9 -44t24 -31.5t34.5 -18.5t41.5 -6q4 0 7 0.5t7 0.5l3 -31q-5 -1 -10 -1h-10q-31 0 -56 10.5t-42 28.5t-26.5 41.5t-9.5 48.5
q0 39 13 68.5t36 49.5t54 30t68 10q56 0 102.5 -15.5t78.5 -50.5q18 30 52 48.5t70 18.5q44 0 79 -16.5t61.5 -44.5t45 -64.5t30.5 -76t17.5 -80t5.5 -76.5q0 -102 -18.5 -198.5t-65.5 -172t-129 -121t-208 -45.5q-94 0 -138 24t-44 81q0 30 21 54.5t59 24.5q79 0 79 -82
q0 -23 -12.5 -41.5t-30.5 -27.5q12 -5 27 -6.5t29 -1.5h12q130 0 190 61t60 182v462q0 44 -6.5 71t-16.5 42t-23 20t-25 5q-39 0 -63 -17t-39 -46q20 -30 31.5 -72t11.5 -97q0 -60 -15 -100t-40 -67t-56.5 -45t-64.5 -33q21 -7 43 -17.5t42 -22t37 -23.5t30 -21q6 6 14 13.5
t17 15t17 13.5t13 9l18 -15q-28 -14 -51.5 -39t-44 -49t-38.5 -42t-33 -18q-6 0 -28 19t-52 42.5t-63.5 42.5t-62.5 19q-23 0 -36 -16t-13 -36q0 -13 6.5 -25t16.5 -20l-14 -15q-14 12 -22 26.5t-8 37.5q0 68 43.5 100t114.5 32q5 0 11.5 -1t12.5 -2l-1 2v0z" />
    <glyph glyph-name="Z" unicode="Z" horiz-adv-x="633" 
d="M299 693q52 0 104.5 -14t95 -43t69 -72.5t26.5 -101.5q0 -35 -9.5 -60t-25.5 -45.5t-38 -37.5t-47 -36q-11 -8 -25.5 -11t-27.5 -11q39 -12 75.5 -31.5t64.5 -47t45 -63t17 -80.5q0 -54 -21 -97t-56 -72t-81 -44.5t-97 -15.5q-35 0 -60 10.5t-44 23t-33.5 23t-29.5 10.5
q-23 0 -39 -9.5t-32 -23.5h-3q-6 0 -11.5 3.5t-10.5 6.5q-6 13 -8.5 22t-7 16t-13 11t-26.5 7q-22 -14 -22 -29.5t4 -37.5l-4 -16l-12 9q-2 9 -4 18.5t-2 18.5q0 27 11.5 49t30.5 37t43.5 23t49.5 8q18 0 31 -12t25 -30t24.5 -38.5t29 -38.5t38.5 -30t54 -12q45 0 69 23
t34.5 57t12 73.5t1.5 71.5q0 40 -2.5 75.5t-15.5 61.5t-40 41.5t-76 15.5t-93.5 -23.5t-66.5 -68.5l-11 -1l-1 11q0 14 13 27t30.5 25t35 23t26.5 20q-19 3 -37.5 13t-33.5 25t-24 33.5t-9 38.5q0 8 1.5 15.5t2.5 15.5q16 22 30.5 37t44.5 15q32 0 47.5 -15t30.5 -39
q3 -11 3 -21q0 -18 -7 -30.5t-18.5 -20.5t-26 -12.5t-29.5 -6.5l-8 -10q22 -13 46 -21t50 -8q36 0 58 11.5t35 31.5t17.5 47t4.5 58q0 50 -2.5 95t-18 79.5t-50.5 54.5t-99 20q-20 0 -47 -5.5t-53 -16t-47 -26t-28 -35.5q-11 -11 -15.5 -16t-7 -9.5t-4.5 -10.5t-6 -19
l-17 -3q0 36 18 60t44 41.5t55.5 31t52.5 27.5q20 2 41.5 4.5t41.5 2.5z" />
    <glyph glyph-name="bracketleft" unicode="[" horiz-adv-x="350" 
d="M304 747q6 0 6 -6v-24q0 -8 -8 -8h-100q-10 0 -10 -11v-819q0 -14 7 -14h113q8 0 8 -9v-21q0 -8 -9 -8h-221q-11 0 -11 11v900q0 9 10 9h215z" />
    <glyph glyph-name="backslash" unicode="\" horiz-adv-x="375" 
d="M64 733q6 2 10 -5l293 -704q2 -5 2 -9t-4 -5l-54 -22q-3 -2 -5.5 0.5t-6.5 11.5l-291 698q-3 10 4 14z" />
    <glyph glyph-name="bracketright" unicode="]" horiz-adv-x="350" 
d="M39 -173q-9 0 -9 8v21q0 5 1 7t7 2h114q6 0 6 12v821q0 11 -9 11h-101q-8 0 -8 8v24q0 6 6 6h215q10 0 10 -9v-900q0 -11 -11 -11h-221z" />
    <glyph glyph-name="asciicircum" unicode="^" 
d="M227 668h47l213 -418h-88l-147 296h-5l-148 -296h-85z" />
    <glyph glyph-name="underscore" unicode="_" 
d="M0 -75h500v-50h-500v50z" />
    <glyph glyph-name="grave" unicode="`" horiz-adv-x="450" 
d="M257 467h-39l-172 196h131z" />
    <glyph glyph-name="a" unicode="a" horiz-adv-x="472" 
d="M465 86q-13 -8 -33.5 -22.5t-40 -28.5t-34 -24.5t-15.5 -10.5q-12 0 -25 8.5t-24 21t-19 26.5t-11 24q-7 -4 -26 -17t-39.5 -27.5t-37 -26t-18.5 -11.5q-1 0 -17.5 9t-36 20.5t-36.5 22t-19 13.5l-0.5 15t-1 37.5t-0.5 49t-0.5 50.5t-0.5 42v23q0 19 14 27q31 17 62 34.5
t61 37.5q23 15 42.5 35.5t42.5 35.5q43 -33 82.5 -47.5t92.5 -21.5v-19q-15 -2 -26.5 -15.5t-11.5 -28.5q0 -52 0.5 -104t2.5 -104q4 -8 12 -17.5t18 -9.5q6 0 16.5 6t19.5 11zM178 359q-7 0 -13 -4t-6 -12v-208q0 -5 8.5 -13.5t19.5 -16.5t21.5 -14.5t15.5 -6.5
q16 0 24.5 9t17.5 20l1 10q0 9 -0.5 37.5t-2 59t-3.5 56.5t-4 31q-5 4 -16 12.5t-23.5 17.5t-23.5 15.5t-16 6.5z" />
    <glyph glyph-name="b" unicode="b" horiz-adv-x="435" 
d="M32 659q13 -14 25.5 -31.5t17.5 -31.5q7 24 25.5 42t44 30.5t54.5 19t58 6.5q16 0 36 -5l-3 -32q-9 5 -18.5 8t-20.5 3q-19 0 -32 -10.5t-21 -28.5t-12 -41t-5 -47l-1 -180q20 7 38 18t35.5 23t34.5 25t35 24q18 -15 35.5 -39.5t31 -52t21.5 -56t8 -52.5q0 -14 -3.5 -29
t-9.5 -30t-14 -29t-17 -24q-4 -5 -16.5 -17.5t-29 -28.5t-35 -33.5t-34.5 -32.5t-27.5 -24.5t-14.5 -9.5q-10 0 -22.5 10t-20.5 15q-38 22 -83 34t-79 17l-1 19q12 2 21.5 7.5t12.5 13.5q5 24 7 65.5t2 87t-0.5 88.5t-0.5 71v129q0 39 -14 62t-26 36zM177 169q0 -11 1.5 -17
t9.5 -11q3 -2 20 -10.5t36.5 -17.5t35.5 -16.5t18 -7.5q22 16 34 33.5t12 45.5q0 18 -13.5 43.5t-31.5 51.5t-36 51.5t-28 43.5q-17 -2 -29 -8.5t-26 -15.5z" />
    <glyph glyph-name="c" unicode="c" horiz-adv-x="341" 
d="M340 102q-31 -22 -70.5 -44.5t-64.5 -43.5l-8.5 -8.5t-10.5 -4.5q-4 0 -22 9.5t-43 22.5t-52.5 25t-49.5 17q0 54 -1 109t-1 109q0 13 -1.5 22t11.5 17q52 32 103 62t102 64q17 -19 31.5 -42t34.5 -39l27 20l10 -17q-11 -9 -28 -23.5l-34 -29t-31 -24.5t-19 -10
q-13 0 -23.5 11.5t-20 25.5t-20 26.5t-22.5 14.5v-27v-42.5t0.5 -49.5t1.5 -48.5t2.5 -37.5t5.5 -18q6 -5 16.5 -10t22 -9.5t22.5 -8.5t19 -8q13 -6 26.5 -12.5t28.5 -6.5h5q7 4 20 10.5t27 14.5z" />
    <glyph glyph-name="d" unicode="d" horiz-adv-x="381" 
d="M119 693q13 0 25.5 -1.5t25.5 -1.5q0 -9 1 -17.5t1 -17.5q-13 5 -25.5 10t-26.5 5q-23 0 -39.5 -15.5t-16.5 -39.5q0 -18 22.5 -31.5t57 -29t74 -35.5t74 -50.5t57 -75t22.5 -107.5q0 -48 -16 -87.5t-40.5 -74t-55 -66.5t-59.5 -66q-16 11 -39 23t-48 22t-50 16.5
t-44 6.5q-2 14 -4 27.5t-2 27.5q0 67 -1 106.5t1.5 61.5t10.5 32t26 18t48 19.5t77 37.5q-31 23 -60.5 36.5t-52.5 29t-37 40t-14 68.5q0 22 8 44.5t22.5 41.5t34 31t43.5 12zM197 375q-5 0 -17 -5t-24 -11.5t-21 -14.5t-9 -14q0 -20 -1 -42t-1 -44.5t1 -44.5t6 -41
q1 -7 19.5 -15.5t41.5 -16t44.5 -13t29.5 -6.5q10 6 20.5 18t19.5 26.5t14.5 29.5t5.5 26t-2.5 29t-5.5 27q-4 11 -19 30t-34 37t-37.5 31.5t-30.5 13.5z" />
    <glyph glyph-name="e" unicode="e" horiz-adv-x="354" 
d="M345 86q-32 -14 -68 -33t-58 -37q-8 -7 -17.5 -14t-21.5 -7q-21 10 -38.5 18t-34.5 15.5t-35 14.5t-40 15q-6 2 -8.5 8.5t-2.5 12.5l1 177v25.5t2 24.5q2 15 18.5 27t38.5 22.5t43.5 19.5t33.5 17q20 14 39.5 29t37.5 31q11 -7 26.5 -24.5t29.5 -38t24 -41t10 -33.5
q0 -6 -2 -16q-11 -11 -40 -29t-59.5 -38t-54.5 -38.5t-24 -28.5q0 -14 17 -28t40.5 -26t46.5 -19.5t35 -7.5q10 0 23.5 6t27.5 13zM145 203q4 2 16 11t25.5 19.5t24 20.5t10.5 16q0 4 -2 12q-5 7 -12.5 19t-16.5 24.5t-18 23t-16 15.5q-2 -8 -4 -12.5t-3.5 -10.5t-2.5 -15.5
t-1 -27.5v-95z" />
    <glyph glyph-name="f" unicode="f" horiz-adv-x="269" 
d="M15 399q7 1 20.5 6t21.5 22q11 26 17.5 55.5t12.5 59t14.5 58t23.5 52.5q17 4 35 3t34 0.5t29.5 8.5t22.5 26l13 -2q-6 -36 -17.5 -70t-17.5 -70q-29 -2 -57.5 -3t-57.5 -5q-5 -18 -10 -35.5t-7 -35.5q4 -14 18 -19t26 -9q11 -3 18 -7t12.5 -8.5t11 -9.5t14.5 -9
q11 -5 28.5 -5.5t32.5 -0.5v-51h-65v-101q0 -59 -5 -130t-14 -137t-21 -118t-26 -72q-14 20 -24 49.5t-18 61.5t-13 64t-8 58q-11 79 -9.5 161t0.5 164h-36z" />
    <glyph glyph-name="g" unicode="g" horiz-adv-x="431" 
d="M415 363q-19 -1 -33.5 -14.5t-13.5 -44.5l-1 -192q3 -15 12 -26t18.5 -22t16.5 -26.5t7 -39.5q0 -44 -21.5 -80t-55.5 -62.5t-75 -41t-81 -14.5q-26 0 -57 5t-57 18t-43.5 34.5t-17.5 54.5q0 29 21.5 48t49.5 19q13 0 25 -6t21 -15.5t14.5 -22t5.5 -25.5q0 -16 -5 -26
t-13 -17t-17.5 -11t-18.5 -7q3 -7 15 -12.5t26.5 -9.5t28.5 -6.5t22 -2.5q23 0 49.5 5t48.5 17t36.5 31t14.5 48q0 25 -11.5 42.5t-27 35t-32.5 37t-27 48.5q-11 -10 -27 -24t-32 -27t-30 -22.5t-21 -9.5q-5 0 -21 8t-35 18.5t-36 20.5t-23 14q-2 15 -2.5 30.5t-0.5 30.5v93
t3 93q54 25 103 56t97 67q7 5 16.5 11.5t17.5 6.5l4 -1q25 -11 46 -26.5t48 -25.5l69 -14v-18zM137 232q0 -25 0.5 -50t2.5 -50q13 -17 30.5 -27.5t34.5 -21.5q17 14 23.5 23.5t12.5 25.5l-3 185q-3 3 -13.5 11t-22.5 16.5t-22 15t-12 6.5q-17 0 -23.5 -16.5t-8.5 -38.5
t-0.5 -44.5t1.5 -34.5z" />
    <glyph glyph-name="h" unicode="h" horiz-adv-x="461" 
d="M31 659q20 -14 30.5 -31t14.5 -33q8 15 17.5 31.5t26.5 31t44.5 23.5t72.5 9q19 0 42 -3.5t41 -8.5l-11 -26q-31 14 -65 14q-15 0 -25.5 -9t-17.5 -24.5t-11 -35.5t-6 -42l-5 -189q6 3 29 16t48.5 27t46 25.5t21.5 11.5q13 0 34.5 -27t42 -62.5t35.5 -69.5t15 -49
q0 -57 -23.5 -114t-58 -112t-72.5 -106.5t-68 -96.5l-18 14q6 12 28.5 40t47 68t44 90.5t19.5 108.5q0 9 -7 30.5t-18 47.5t-25 53.5t-27.5 50.5t-25.5 38t-20 15q-13 0 -22 -6t-14 -16.5t-7.5 -24.5t-3.5 -28l1 -121q1 -17 5.5 -32t12 -27t19.5 -19t29 -7q20 0 34.5 7.5
t22.5 13.5l7 -17q-2 -2 -14 -9.5t-28.5 -17.5t-35.5 -21.5t-35 -21t-27 -15.5t-12 -6q-12 9 -28.5 20.5t-35.5 22.5t-40.5 18.5t-44.5 9.5v18q15 1 28.5 9.5t15.5 25.5l3 408q1 20 -2 36t-9 29.5t-14.5 25.5t-17.5 25z" />
    <glyph glyph-name="i" unicode="i" horiz-adv-x="286" 
d="M174 653q9 0 19.5 -2.5t19.5 -8t15 -13.5t6 -19q0 -12 -16.5 -31.5t-37.5 -39t-40 -33.5t-23 -14q-5 0 -8.5 4t-3.5 9q0 17 2.5 42t9.5 48.5t20.5 40.5t36.5 17zM35 81q14 5 27.5 11.5t13.5 22.5v189q0 20 -5 33t-20 15q-5 0 -13.5 -4t-18.5 -11l-9 14q15 15 33.5 30.5
t36.5 28.5t33 22.5t23 11.5q6 -8 19.5 -18.5t29 -20.5t31.5 -18.5t27 -13.5v-17q-6 0 -13 -0.5t-13 -3t-10 -7t-3 -11.5l-2 -186q0 -9 0.5 -19.5t3.5 -20t9.5 -16t18.5 -6.5q5 0 13 3.5t18 8.5l10 -16q-19 -11 -39.5 -25.5t-38 -27.5t-30 -21.5t-14.5 -8.5q-1 0 -13.5 8.5
t-30.5 19.5t-38 22t-35 16z" />
    <glyph glyph-name="j" unicode="j" horiz-adv-x="264" 
d="M109 501q3 23 4 49.5t7.5 49.5t21 38.5t43.5 15.5q19 0 33 -7q7 -8 12 -14.5t5 -17.5q0 -12 -14 -31t-33 -38t-38.5 -32.5t-30.5 -13.5zM8 -188q9 1 20 4t21 9t18 17.5t11 31.5q2 12 3 30t1.5 60t1 118t0.5 206q0 27 -10 46.5t-27 19.5q-5 0 -14.5 -4t-19.5 -9l-6 18
q16 14 36.5 29t39 27.5t32 20t14.5 6.5q40 -40 117 -60v-18q-18 -2 -27 -16t-9 -46l-1 -287v-44t4 -43t12 -41t25 -38l-14 -14q-12 11 -30 29.5t-26 34.5q-11 -15 -27 -32.5t-37 -33t-47 -27t-56 -14.5z" />
    <glyph glyph-name="k" unicode="k" horiz-adv-x="382" 
d="M27 651q10 -8 19.5 -20t18 -24t14.5 -23.5t9 -18.5q7 15 16 36.5t28 41t52.5 33.5t89.5 14q24 0 50.5 -6.5t48.5 -16.5l-8 -24q-16 8 -34.5 15.5t-42.5 7.5q-45 0 -65.5 -20t-20.5 -64v-29l129 72q17 -15 29 -36.5t12 -44.5q0 -31 -14 -52.5t-34.5 -37.5t-44.5 -28.5
t-45 -25.5l119 1l-1 -51h-150v-209q-1 -12 12 -23.5t30.5 -20.5t34.5 -14t25 -4q10 1 22.5 9.5t26.5 16.5l13 -17q-14 -12 -39.5 -28t-51.5 -30.5t-47.5 -24.5t-27.5 -10h-14q-35 22 -70.5 41.5t-78.5 22.5v17q17 9 28.5 21t10.5 32v221h-63l1 50h63l1 28q1 32 -0.5 60.5
t-8.5 54t-20 48.5t-35 45zM235 545q-20 -6 -26.5 -13.5t-6.5 -16.5l1 -95q25 7 43 24.5t18 44.5q0 7 -1.5 16.5t-4.5 18.5t-8.5 15t-14.5 6z" />
    <glyph glyph-name="l" unicode="l" horiz-adv-x="280" 
d="M268 666q-31 0 -47.5 -16.5t-24 -39t-8.5 -44.5t-2 -33l-2 -383q0 -23 11.5 -42t37.5 -19q5 0 15 3.5t21 7.5l8 -17q-23 -11 -41 -21t-34.5 -20.5t-31.5 -22t-31 -25.5q-28 27 -59.5 47.5t-69.5 31.5v19q15 1 29 10t16 26l1 338v46.5t-3.5 44.5t-12 42t-25.5 39l14 11
q14 -12 27.5 -28t22.5 -35q30 48 74 74t114 27z" />
    <glyph glyph-name="m" unicode="m" horiz-adv-x="746" 
d="M501 370q-10 -4 -20.5 -10t-19.5 -14.5t-15 -19.5t-6 -25v-187q0 -14 13 -24t25 -12v-13q-26 -10 -52 -27.5t-49 -46.5q-23 23 -50 42.5t-58 30.5l-1 15q23 2 32.5 15.5t9.5 25.5l1 197q2 24 -10 34.5t-27 18.5q-10 -5 -21.5 -10.5t-21.5 -13t-16.5 -17.5t-6.5 -25v-184
q0 -13 9.5 -25.5t33.5 -15.5v-15q-27 -14 -49.5 -30t-46.5 -40q-7 -10 -19 5q-9 10 -21 21t-25 20t-26 15t-24 8v19q19 0 30.5 10t11.5 30v190q0 10 -6 20.5t-14 16.5t-16.5 4t-13.5 -17l-22 3q7 20 20.5 31.5t30 22t34.5 23t35 33.5q15 -6 26.5 -19t23 -26.5t22.5 -23.5
t24 -10q10 0 30.5 12t42.5 26t40.5 26t23.5 12q4 0 16 -11t27 -24.5t30 -24.5t25 -11q12 0 31.5 11.5t40 26t37.5 26t25 11.5q5 0 15.5 -9.5t25.5 -21.5t33.5 -22.5t41.5 -13.5v-23q-10 2 -18.5 2.5t-14.5 -3.5t-9.5 -14.5t-3.5 -31.5l-1 -189q0 -11 3.5 -18.5t9 -12.5
t11 -7t8.5 -2q10 0 19.5 3.5t18.5 8.5l9 -17q-37 -17 -75 -38.5t-64 -50.5q-11 13 -25.5 25.5t-30 22.5t-30.5 16.5t-26 9.5l-1 15q13 3 26.5 13t14.5 22l1 200q-2 26 -9.5 38.5t-22.5 17.5z" />
    <glyph glyph-name="n" unicode="n" horiz-adv-x="513" 
d="M507 82q-43 -22 -73.5 -43t-62.5 -53q-25 26 -45.5 45t-53.5 30l-1 17q6 1 13 4t13.5 9t10.5 15t4 23l1 181q-5 20 -17.5 34.5t-35.5 14.5q-3 0 -12 -3t-18 -9t-16.5 -14t-7.5 -18v-186q0 -17 3.5 -27t10 -15t15.5 -6.5t20 -2.5v-18q-15 -2 -31.5 -11t-32 -20.5t-28 -23
t-18.5 -18.5q-19 24 -46.5 46t-69.5 27l-1 20q7 0 16.5 3.5t17.5 8.5t13.5 12t6.5 15v192q0 15 -6 25.5t-15.5 15.5t-20.5 2.5t-20 -12.5l-13 11q7 13 22 21.5t32 16t33 16t25 20.5q3 5 8 9.5t10 4.5h4q11 -7 20.5 -19.5t19.5 -24.5t21.5 -21t25.5 -9q10 0 28 9.5t38 22.5
t39 25.5t30 18.5q25 -24 50.5 -47t61.5 -29l-2 -16q-21 -3 -29.5 -11t-8.5 -36l2 -198q0 -8 4.5 -16t16.5 -7q14 1 39 17z" />
    <glyph glyph-name="o" unicode="o" horiz-adv-x="389" 
d="M254 443q7 0 21 -14.5t29 -33t27.5 -36.5t16.5 -25q9 -16 15 -28.5t9.5 -25t5 -26t1.5 -32.5q0 -27 -18 -57.5t-42.5 -60t-51 -56t-42.5 -46.5q-5 -3 -10 -7t-11 -4q-3 0 -4.5 0.5t-4.5 2.5q-55 33 -88 44t-50.5 17.5t-24 16t-7.5 39.5l2 211q2 16 14.5 19.5t24.5 8.5
q25 10 50 17t48 21q7 4 19.5 13t26.5 18.5t26 16.5t18 7zM156 367q-9 -14 -10 -30.5t-1 -32.5v-156q10 -4 29.5 -14t39.5 -21t37 -19.5t24 -8.5q16 13 29.5 33t13.5 41q0 8 -10 26.5t-25.5 41t-34.5 46.5t-37 44t-33 34t-22 16z" />
    <glyph glyph-name="p" unicode="p" horiz-adv-x="458" 
d="M7 339q13 13 32 29t37.5 31t34 27t22.5 17q10 -5 22.5 -16.5t25 -23.5t24 -21.5t19.5 -9.5q12 0 30 9t36.5 21t35 24.5t26.5 19.5q17 -17 34.5 -37.5t31 -43t22 -47t8.5 -50.5q0 -7 -1 -13.5t-2 -13.5q-5 -42 -20 -72.5t-43 -62.5q-5 -6 -18.5 -24.5t-29 -37.5t-29 -34
t-18.5 -15q-6 0 -15.5 3t-20 6.5l-21 7t-18.5 4.5q-2 -56 -16.5 -116t-48.5 -108q-28 49 -47 117.5t-19 136.5q-2 9 -9.5 7t-17 -9.5t-19 -18.5t-16.5 -20l-13 9q6 18 19 31t25.5 24t22 21.5t8.5 23.5l4 173q3 56 -35 55q-5 0 -13.5 -5.5t-16.5 -12.5zM212 142q10 -6 28 -14
t38 -15.5t38.5 -13t30.5 -6.5q12 14 23 27t11 33q0 17 -14 47t-32.5 61.5t-38.5 60t-32 42.5q-5 -3 -14 -7t-17 -9.5t-14 -12.5t-6 -14z" />
    <glyph glyph-name="q" unicode="q" horiz-adv-x="412" 
d="M407 367q-13 -11 -27 -21t-15 -20v-195q1 -56 -2.5 -108.5t-11.5 -97.5t-19.5 -78.5t-24.5 -51.5q-11 14 -23 51t-22 80.5t-16 84.5t-4 63q-5 -4 -22 -17t-36 -27.5t-34 -25.5t-17 -11q-3 0 -5 1q-3 1 -20 10.5t-36.5 21t-37 21.5t-21.5 13l-2 197q0 13 3.5 26.5
t15.5 20.5q36 22 75 43t69 52q4 4 9.5 10.5t12 12.5t13.5 10t13 4q10 0 25.5 -8t32.5 -17.5t33.5 -18.5t27.5 -12t28 -4.5t34 9.5zM144 136q0 -11 1.5 -18t6.5 -9l52 -30q3 -3 9 0.5t12 9.5t10.5 13.5t4.5 14.5v184q-24 14 -46.5 30.5t-49.5 24.5v-220z" />
    <glyph glyph-name="r" unicode="r" horiz-adv-x="417" 
d="M-5 333q2 13 19 26.5t30 18.5q13 4 27 13.5t27.5 20t24.5 21.5t17 19q7 -8 16.5 -21.5t20.5 -26t22.5 -22t23.5 -9.5t28 9t31.5 22t29.5 26.5t22 21.5q5 -6 17 -21.5t25 -32.5t23 -32t12 -21q-30 -13 -54.5 -30t-47.5 -36q-17 51 -49 88q-15 -5 -32.5 -17.5t-17.5 -32.5
l-2 -188q-1 -11 9.5 -21t25.5 -18t30.5 -12.5t23.5 -4.5q14 0 33 10t35 18l10 -20q-10 -5 -28 -13t-39.5 -17.5t-43.5 -19.5t-40 -17.5l-30 -12.5t-13 -5q-33 25 -67.5 39.5t-76.5 22.5l1 18q29 6 37.5 24.5t8.5 41.5l-1 176q0 13 -6.5 23t-16.5 12t-22.5 -4.5t-24.5 -24.5z
" />
    <glyph glyph-name="s" unicode="s" horiz-adv-x="424" 
d="M392 478q1 -6 1.5 -12t0.5 -11q0 -38 -17 -63t-44 -41q4 -7 8 -16t7 -18q6 -19 17.5 -30t22.5 -21.5t19 -24t8 -38.5q0 -30 -21 -59.5t-51 -56.5t-62 -49.5t-54 -38.5q-32 8 -66.5 13t-67.5 5q-31 0 -43 -10.5t-23 -26.5l-21 1q4 8 15 22t23 28.5t21 27.5t9 18
q0 13 -5.5 34t-5.5 53q0 6 -5 14t-10.5 18.5t-10.5 25t-5 33.5q0 33 14.5 58t37 44.5t49.5 35t51 30.5q10 6 22 17t24 11q10 0 23 -5t27 -11.5t28.5 -11.5t29.5 -5q21 0 28 14t7 49zM115 346q0 -19 7 -34t18 -28.5t24 -25.5t25 -24q10 3 35 11t49.5 18.5t42.5 23t14 23.5
l-13 30q-22 -5 -40.5 -7.5t-40.5 5.5q-9 3 -22 9t-27 12t-26.5 10.5t-21.5 4.5q-13 0 -18.5 -8.5t-5.5 -19.5zM85 110q5 7 22.5 8t41 -0.5t50.5 -5.5t50.5 -8.5t40.5 -7.5t22 -3q4 0 14 2q16 13 7 34.5t-27.5 42.5t-41 36t-33.5 15q-8 0 -28.5 -7.5t-43 -17.5t-42.5 -19
t-27 -13q-5 -3 -7 -9.5t-2 -14.5t1.5 -16.5t2.5 -15.5z" />
    <glyph glyph-name="t" unicode="t" horiz-adv-x="306" 
d="M24 85q21 3 29 15t9 29v221h-53v51h53v65q0 1 13.5 14.5t32.5 33t42 43t43 44t34 35t16 16.5l19 -11q-9 -10 -21 -23.5t-23.5 -28t-19 -28.5t-7.5 -24v-136h94v-51h-94v-196q0 -13 6 -25t15 -21t20 -14.5t22 -5.5q10 0 20.5 7.5t20.5 18.5l11 -16q-11 -11 -34 -29.5
t-48 -36.5t-46 -31t-26 -13q-6 0 -20 11.5t-32.5 26t-38.5 26.5t-37 14v19z" />
    <glyph glyph-name="u" unicode="u" horiz-adv-x="505" 
d="M488 66q-14 -2 -28 -8t-26.5 -14t-21.5 -16.5t-13 -15.5q-7 -13 -14 -15.5t-13 12.5q-13 23 -36 43t-55 20q-22 0 -43 -9.5t-38.5 -21.5t-29 -23.5t-14.5 -15.5q-6 -8 -13.5 -8t-11.5 8q-19 24 -47.5 41.5t-54.5 22.5v17q20 2 34.5 16t14.5 29v201q-2 11 -6.5 20t-16.5 9
q-10 0 -19.5 -8t-17.5 -19l-12 12q7 17 26.5 36t40.5 34.5t39 25.5t21 10q25 -23 50 -39t59 -33v-18q-12 -3 -25 -11t-13 -25v-183q0 -23 9 -39t35 -16q9 0 19.5 1t19.5 5t15 10.5t6 17.5v203q0 12 -5.5 19.5t-12.5 12t-14 6t-11 1.5l-1 14q19 7 34 15t27.5 17.5t24.5 21
t27 26.5q26 -32 47.5 -48.5t47.5 -27.5l-1 -21q-10 2 -22.5 -8.5t-12.5 -29.5v-193q0 -24 11 -30.5t39 -10.5z" />
    <glyph glyph-name="v" unicode="v" horiz-adv-x="440" 
d="M56 515q-5 -22 -15 -40t-10 -42q0 -5 1 -9.5t2 -9.5q15 -18 36 -18l10 1q13 8 21.5 20.5t19.5 23.5q12 -7 21.5 -19.5t19.5 -24.5t20.5 -21t24.5 -9q13 0 29.5 10t33.5 23t32.5 26.5t27.5 20.5q18 -24 36 -47t32.5 -47.5t23 -51.5t8.5 -59q0 -36 -21.5 -71t-52.5 -67.5
t-65.5 -61t-59.5 -50.5q-19 5 -36.5 13t-34.5 16t-34.5 15.5t-36.5 12.5q-8 2 -17 3t-18 3t-16.5 6.5t-11.5 12.5q24 12 34.5 26t13 31t1 37.5t-1.5 44.5q0 19 2.5 38t2.5 38q0 13 -10.5 22t-23.5 21t-23.5 31t-10.5 53q0 7 1.5 19.5t4.5 26t6.5 25t8.5 17.5t12.5 6.5
t12.5 4.5zM200 243v-24v-34t1 -33t3 -20q5 -4 18.5 -11.5t28.5 -15t28.5 -13t19.5 -5.5q26 11 36.5 35.5t10.5 50.5q0 8 -6.5 25t-17.5 37t-24 41.5t-26 39t-24 29t-18 11.5q-14 0 -20.5 -14t-8.5 -33t-1.5 -38t0.5 -28z" />
    <glyph glyph-name="w" unicode="w" horiz-adv-x="665" 
d="M21 85q7 1 15.5 4t16 7.5t12.5 11.5t5 16v180q0 9 -9.5 17.5t-21.5 21t-21.5 30.5t-9.5 45q0 7 2 20.5t5.5 28.5t9.5 29.5t14 23.5l17 -10q-10 -18 -17 -34t-7 -39q0 -17 5 -28q7 -6 15 -7t16 -1q17 6 26.5 20.5t19.5 28.5q23 -17 42.5 -37t42.5 -37l7 -1q17 0 36.5 11
t38.5 24.5t34.5 24.5t24.5 11q10 0 21 -11t22.5 -24t24 -24t24.5 -11q22 0 42 8.5t38 20t33 24t29 21.5q13 -26 27.5 -47.5t25.5 -43.5t18.5 -46t7.5 -55v-15t-2 -15q-2 -13 -15.5 -33.5t-33 -44.5t-42.5 -49t-45.5 -46.5t-41.5 -37.5t-30 -22q-41 20 -84.5 42t-94.5 30v19
q9 5 24 15t15 24v145q0 35 -16.5 55t-43.5 43q-27 -9 -38.5 -23t-10.5 -36q0 -9 0.5 -37t0.5 -58.5v-56.5v-31q0 -7 5 -14t12.5 -13t16 -9.5t15.5 -3.5l-1 -17q-11 -5 -29.5 -16.5t-36.5 -23t-32 -21t-17 -10.5q-15 12 -24.5 20t-20 15.5t-24.5 16t-37 20.5zM473 360
q-29 -7 -37 -25.5t-8 -38.5v-163q1 -5 13 -11.5t27 -12.5t28.5 -10t18.5 -4q10 0 19 8t16 19.5t11 23.5t4 21q0 19 -10 46t-24.5 54.5t-30 52.5t-27.5 40z" />
    <glyph glyph-name="x" unicode="x" horiz-adv-x="469" 
d="M399 436q11 -23 27 -52t33 -47l-1 -7q-1 -5 -7 -9q-25 -15 -52 -25.5t-47 -32.5q-12 25 -22 50t-24 49q-17 -2 -33.5 -13t-16.5 -30v-155q0 -17 7 -27.5t17.5 -18.5t23 -14.5t24.5 -15.5q9 -7 20 -10t23 -4q16 -1 30.5 8t31.5 16l8 -20q-17 -5 -40 -19.5t-46 -29.5
t-43.5 -27t-31.5 -12q-6 0 -24.5 9.5t-41.5 21t-48 21t-44 9.5q-40 0 -66.5 -27t-26.5 -66q0 -33 12.5 -57.5t33 -41t48 -25t57.5 -9.5q-13 13 -17.5 28t-4.5 33q0 26 19 46t44 20q30 0 49 -17t19 -48q0 -25 -12 -41t-30 -25t-39.5 -12.5t-41.5 -3.5q-30 0 -58 12t-49.5 32
t-35 46.5t-13.5 56.5t9.5 55.5t26 46.5t38.5 38.5t46 31.5v166q0 24 -7 38t-24 14q-12 0 -28.5 -10t-26.5 -23l-15 17q2 3 13.5 12t27 21t33 25t33 24t26.5 18t13 7q7 0 17.5 -9.5t23 -20.5t26 -20.5t26.5 -9.5q16 0 35.5 10t37 21.5t32 21.5t22.5 10h4z" />
    <glyph glyph-name="y" unicode="y" horiz-adv-x="484" 
d="M13 323q8 17 23 31t31.5 27t33 26.5t27.5 30.5q25 -17 47.5 -37t51.5 -31q16 0 35 8.5t38.5 19.5t37.5 23t31 20q14 -22 32.5 -48t34.5 -54t27 -56.5t11 -55.5q0 -50 -26 -108.5t-62.5 -116.5t-76 -112t-66.5 -94l-22 15q25 33 53.5 68t52.5 73t40 79t16 85
q0 26 -12.5 59t-30.5 67t-37 65.5t-32 54.5q-32 -5 -47.5 -18t-15.5 -48v-135v-18t2 -17q1 -7 10 -15.5t21 -15t24 -11t19 -4.5q9 1 24.5 8.5t24.5 13.5l10 -19q-26 -14 -51.5 -31t-47.5 -32t-39.5 -25t-26.5 -10q-5 0 -11 2q-15 10 -33.5 19.5t-37 18t-35.5 15t-30 9.5
l1 18q21 3 37.5 17t16.5 38v174q0 18 -6.5 29t-15.5 13.5t-20 -4t-20 -23.5z" />
    <glyph glyph-name="z" unicode="z" horiz-adv-x="297" 
d="M269 228l-56 -59q4 -6 16 -20.5t25 -37.5t23 -53.5t10 -67.5q0 -29 -9.5 -62t-28 -61t-45.5 -46.5t-61 -18.5q-25 0 -44.5 9t-33.5 25t-21.5 36.5t-7.5 44.5q0 92 64 169q-15 20 -31.5 33.5t-37.5 30.5q13 7 34 21t42.5 30.5t39.5 34t25 32.5q-5 3 -23.5 14.5t-38.5 24
t-37 22t-20 9.5q-5 0 -14 -7.5t-19 -18.5l-12 16q16 16 36 34.5t38 34t31.5 26t16.5 10.5h6q8 -8 23 -19t33 -21.5t37 -18.5t36 -10q3 0 5.5 -2t1.5 -5l-2 -9q-1 -5 -9 -16t-20 -25.5t-25.5 -29.5t-25.5 -27.5t-19.5 -21l-7.5 -8.5q9 -8 20 -18t16 -18q17 13 32 28l29 29z
M142 -179q33 0 57.5 21t24.5 58q0 15 -13 38.5t-31 48t-36.5 46t-29.5 33.5q-26 -29 -43 -65t-17 -75q0 -20 5.5 -39t16 -33.5t27 -23.5t39.5 -9z" />
    <glyph glyph-name="braceleft" unicode="{" horiz-adv-x="350" 
d="M119 297q0 -10 14.5 -15.5t28.5 -16.5q31 -23 44.5 -50t13.5 -67q0 -21 -3.5 -40.5t-8.5 -39.5t-9 -42t-4 -48q1 -56 30 -88t88 -32q8 0 10.5 -4.5t2.5 -12.5q0 -7 -3.5 -10.5t-19.5 -3.5q-64 0 -107 11t-68.5 31.5t-36 50t-10.5 66.5q0 35 6 62t13.5 49.5t14 43.5
t6.5 45q0 37 -13.5 64t-52.5 30q-20 1 -20 17q0 19 20 19q40 0 53 22.5t13 61.5q0 23 -6 46t-14 46t-14 47t-6 50q0 37 11 66t37.5 49.5t69 31.5t105.5 11q13 0 17.5 -3.5t4.5 -10.5q0 -17 -12 -17q-60 0 -89.5 -29.5t-29.5 -80.5q0 -25 4 -45.5t8.5 -39.5t8.5 -37t4 -37
q0 -42 -17 -74t-42 -46q-16 -8 -29 -14t-13 -16z" />
    <glyph glyph-name="bar" unicode="|" horiz-adv-x="350" 
d="M145 -260q-6 0 -6 10v1003q0 9 6 9h60q7 0 7 -12v-1000q0 -10 -5 -10h-62z" />
    <glyph glyph-name="braceright" unicode="}" horiz-adv-x="350" 
d="M231 297q0 10 -14.5 15.5t-28.5 16.5q-31 23 -44.5 50t-13.5 67q0 21 4 40.5t9 38.5q5 20 8.5 39.5t3.5 41.5q-1 48 -30 79t-88 31q-8 0 -10.5 4.5t-2.5 12.5q0 7 3.5 10.5t19.5 3.5q64 0 107 -11t68.5 -31.5t36 -50t10.5 -66.5q0 -28 -6.5 -50.5t-14 -43.5t-13.5 -41.5
t-6 -44.5q0 -37 13.5 -64t52.5 -30q20 -1 20 -17q0 -19 -20 -19q-40 0 -53 -22.5t-13 -61.5q0 -23 6 -46t14 -48q8 -26 14 -53.5t6 -61.5q0 -37 -11 -66t-37.5 -49.5t-69 -31.5t-105.5 -11q-13 0 -17.5 3.5t-4.5 10.5q0 17 12 17q60 0 89.5 29.5t29.5 80.5q0 32 -4 57
t-8.5 45.5t-8.5 38.5t-4 38q0 45 17 75t42 44q16 9 29 15t13 16z" />
    <glyph glyph-name="asciitilde" unicode="~" 
d="M448 329q0 -47 -8 -79t-22 -52t-32 -29t-38 -9q-26 0 -46 7t-41 21l-39 24q-11 7 -26 15.5t-32 8.5q-20 0 -33 -20t-11 -65h-68q0 44 9 76t24 53t34.5 31t40.5 10t37 -5t36 -17l44 -28q11 -8 26.5 -17.5t35.5 -9.5q24 0 33.5 20.5t7.5 64.5h68z" />
    <glyph glyph-name="exclamdown" unicode="&#xa1;" horiz-adv-x="224" 
d="M111 -196q-38 0 -56 20t-18 57q0 15 4 48t11 75t15 88t16 88t15 74.5t11 47.5q10 -5 13.5 -12.5t5.5 -17.5q5 -47 16 -98.5t22 -104t19 -103.5t8 -97q0 -38 -23.5 -51.5t-58.5 -13.5zM117 305q-13 13 -22.5 26.5t-23.5 25.5q-12 11 -26.5 19.5t-25.5 18.5q-5 4 -4.5 9.5
t-3.5 10.5q16 10 34 18.5t29 24.5q10 14 18.5 29t24.5 23q14 -17 24.5 -34t27.5 -31q4 -4 10.5 -6t13 -4.5t12 -5.5t8.5 -9q2 -4 2 -9t-5.5 -9t-9.5 -7q-29 -22 -45.5 -42t-37.5 -48z" />
    <glyph glyph-name="cent" unicode="&#xa2;" 
d="M261 512q-14 0 -29 -8.5t-27.5 -26.5t-20.5 -46.5t-8 -68.5q0 -41 11.5 -79t31.5 -67q11 -14 27 -25zM287 178q8 -1 14.5 -1.5t13.5 -0.5q32 0 62.5 10.5t56.5 30.5q7 5 9 1l16 -16q4 -5 -3 -12q-10 -12 -26 -26t-38 -26t-49 -20t-59 -9l-5 -116q0 -5 -5 -5h-31
q-5 0 -5 5l5 117q-28 1 -49.5 5.5t-39 12.5t-32 19t-27.5 26q-36 41 -45.5 74.5t-9.5 71.5q0 36 14.5 74.5t42.5 71.5t69.5 57t96.5 30l4 96q0 6 6 6h31q5 0 5 -5l-4 -95q45 -1 74 -11t46 -24t23.5 -30t6.5 -29q-1 -25 -13 -37t-41 -12q-27 0 -41.5 12.5t-19.5 28.5
q-8 25 -16 37t-21 17z" />
    <glyph glyph-name="sterling" unicode="&#xa3;" 
d="M113 278q3 6 12 34t19.5 64.5t22 74t20.5 61.5q13 35 35.5 66t52.5 54.5t66 37t77 13.5q32 0 55 -7.5t37.5 -20t21.5 -28t7 -30.5q0 -21 -14 -33t-34 -12q-23 0 -39 8.5t-26 28.5q-5 9 -7 19t-5 18t-9 13.5t-19 5.5q-8 0 -13.5 -7t-12 -24.5t-14.5 -47.5t-19 -75
q-9 -35 -23 -68.5t-29.5 -61.5t-30 -49.5t-22.5 -33.5h143q9 0 9 -6v-29q0 -7 -10 -7h-171q-20 -30 -45.5 -58.5t-49.5 -48.5v-2q51 5 82 3t53 -11t40.5 -25.5t45.5 -39.5q15 -14 27.5 -23t28.5 -9q11 0 19 10t10 19q3 11 -1.5 14.5t-12.5 3.5q-23 0 -36.5 11.5t-13.5 30.5
q0 25 17 42.5t38 17.5q30 0 51.5 -21.5t21.5 -52.5q0 -19 -6.5 -39.5t-22.5 -38t-43.5 -28.5t-68.5 -11q-35 0 -59.5 3t-44.5 11t-38.5 22t-41.5 37q-21 21 -32.5 32t-25.5 9q-6 -22 -28 -56q-13 -20 -30 -31.5t-37 -11.5q-13 0 -21 6t-8 19q0 15 8.5 31.5t22 31.5t29 25.5
t29.5 13.5q5 5 11.5 18t14 29.5t14 34t11.5 32.5h-71q-9 0 -9 7v29q0 6 7 6h85z" />
    <glyph glyph-name="currency" unicode="&#xa4;" 
d="M453 104q-5 -7 -14 0l-86 81q-20 -14 -50.5 -21t-56.5 -7q-23 0 -52 7t-52 24l-82 -85q-2 -3 -6 -2t-6 3l-33 37q-6 6 1 12l82 79q-15 16 -26.5 43t-12.5 58q2 29 11 60t31 54l-83 74q-9 9 -2 17l34 36q5 6 12 -1l88 -83q17 11 47.5 19t61.5 8t54.5 -8t40.5 -19l84 82
q5 5 11 0l33 -33q7 -7 2 -12l-80 -75q17 -20 27.5 -51t10.5 -58q0 -32 -10 -62t-29 -50l84 -81q4 -4 -1 -11zM251 227q50 0 74.5 30.5t24.5 79.5q0 46 -24.5 78t-72.5 32q-26 0 -44.5 -9t-31.5 -24t-19 -35t-6 -42t7 -42t19.5 -35t31 -24t41.5 -9z" />
    <glyph glyph-name="yen" unicode="&#xa5;" 
d="M384 6q0 -5 -1 -7t-6 -2q-9 0 -39 1.5t-87 1.5q-74 0 -103.5 -1.5t-37.5 -1.5q-6 0 -6 8v24q0 7 7 7h39q30 0 32 25q1 11 1 36.5v51.5v25h-139q-5 0 -5 5v31q0 5 5 5h139v62h-140q-4 0 -4 5v31q0 5 7 5h124q-5 11 -16.5 35t-25.5 53.5t-29 61.5t-28.5 60.5t-24.5 50
t-15 29.5q-6 11 -19.5 17.5t-25.5 6.5h-15q-7 0 -7 7v26q0 6 7 6t39 -1.5t77 -1.5q63 0 92 1.5t37 1.5q7 0 7 -5v-25q0 -9 -7 -9h-15q-28 0 -28 -23q0 -4 6.5 -22t17 -44t23 -56.5t24.5 -59t22 -52t15 -34.5h2q4 11 14 33.5t22.5 50t25.5 57t24.5 55t18.5 43.5t7 22
q0 12 -7 21t-27 9h-24q-7 0 -7 9v24q0 6 7 6q8 0 35.5 -1.5t64.5 -1.5q52 0 72.5 1.5t27.5 1.5q8 0 8 -6v-24q0 -9 -8 -9h-18q-9 0 -22.5 -7t-24.5 -17q-3 -3 -13 -20t-24.5 -42.5t-31.5 -57t-34 -62.5t-32 -59.5t-25 -48.5h135q6 0 6 -5v-31q0 -5 -7 -5h-141v-62h142
q6 0 6 -5v-31q0 -5 -8 -5h-140v-23v-35.5t2 -44.5q2 -24 13 -29.5t23 -5.5h34q5 0 6 -2t1 -5v-23z" />
    <glyph glyph-name="brokenbar" unicode="&#xa6;" horiz-adv-x="350" 
d="M145 -175q-6 0 -6 10v330q0 10 9 10h58q6 0 6 -10v-330q0 -10 -9 -10h-58zM145 325q-6 0 -6 10v331q0 9 6 9h60q7 0 7 -12v-328q0 -10 -9 -10h-58z" />
    <glyph glyph-name="section" unicode="&#xa7;" horiz-adv-x="540" 
d="M230 -135q-57 0 -93.5 16t-36.5 48q0 48 48 48q39 0 62 -36q13 -19 25 -27.5t29 -8.5q22 0 43 20t21 57q0 31 -14.5 53.5t-38.5 42.5t-55 40.5t-63 46.5q-47 37 -70 78.5t-23 95.5q0 24 7.5 45t20 39t28.5 31t34 21q-20 20 -26 48.5t-6 54.5t11.5 49.5t28.5 42.5
q30 33 68 43t87 10q53 0 87 -19.5t34 -48.5q0 -26 -15 -36t-41 -10q-23 0 -34 10.5t-25 33.5q-8 14 -19.5 23t-25.5 9q-25 1 -47.5 -21.5t-22.5 -62.5q0 -21 10 -38t29.5 -33t47.5 -33.5t63 -39.5q58 -37 89 -76.5t30 -99.5q0 -31 -8 -54.5t-21.5 -40.5t-31.5 -29t-36 -20
q25 -29 34 -55t9 -57q0 -34 -13 -63t-36 -52q-12 -13 -30 -21.5t-37.5 -14t-39.5 -7.5t-37 -2zM170 448q-31 -20 -31 -67q0 -22 12.5 -42t41.5 -46q65 -51 108 -80.5t55 -47.5q19 6 31 24t12 36q0 9 -1.5 19t-7.5 21.5t-19 25.5t-37 32q-38 26 -65.5 44t-47 32t-31.5 25
t-20 24z" />
    <glyph glyph-name="dieresis" unicode="&#xa8;" horiz-adv-x="450" 
d="M158 625q12 4 29 4q29 0 50 -15q8 -14 8 -28q0 -9 -14 -27.5t-32 -38t-36 -35t-27 -19.5q-9 0 -19 5q2 17 3.5 39t5 43.5t11 41t21.5 30.5zM330 622q26 0 38.5 -7t24.5 -31q-2 -17 -16 -35t-33.5 -35t-40.5 -30.5t-36 -20.5l-8 6q3 16 6 42t10.5 51t20 42.5t34.5 17.5z
" />
    <glyph glyph-name="copyright" unicode="&#xa9;" horiz-adv-x="825" 
d="M420 134q-48 0 -89.5 14.5t-69.5 40.5q-33 33 -50 73.5t-17 94.5q0 42 15.5 83t50.5 73q66 63 163 63q38 0 65 -9.5t38 -17.5q10 -7 13 0l4 16q1 4 19 4q4 0 5 -1.5t2 -8.5q0 -6 2 -24.5t4.5 -40t5 -40.5t3.5 -25q2 -7 -4 -8l-15 -4q-6 -2 -9 5q-9 21 -21.5 41t-28.5 37
q-19 20 -38 27t-45 7q-23 0 -43 -12.5t-35 -34t-23.5 -51.5t-7.5 -64q0 -14 2 -31t6.5 -35t12 -34t18.5 -26q22 -22 46.5 -34t47.5 -12q48 0 80.5 16t53.5 35q10 10 14 6l12 -10q4 -3 -1 -12q-29 -40 -74.5 -70.5t-111.5 -30.5zM413 -15q-84 0 -151.5 28.5t-115.5 78.5
t-73.5 117.5t-25.5 144.5q0 79 28.5 146.5t78 117t116.5 77.5t143 28q79 0 146.5 -27t116 -75.5t76 -116.5t27.5 -150q0 -78 -26 -145t-74 -117t-115.5 -78.5t-150.5 -28.5zM413 32q84 0 142 30.5t94 77.5t51.5 104t15.5 110q0 87 -30 148.5t-75 100t-98 56t-100 17.5
q-64 0 -119.5 -23t-96 -65t-64 -101.5t-23.5 -132.5q0 -90 30 -151.5t75 -99.5t98 -54.5t100 -16.5z" />
    <glyph glyph-name="ordfeminine" unicode="&#xaa;" horiz-adv-x="298" 
d="M153 697q29 -22 55 -31.5t61 -14.5q0 -3 -1 -6.5t-1 -7.5q-8 -4 -15.5 -10.5t-7.5 -16.5v-69t2 -68q2 -5 7.5 -11.5t11.5 -6.5t12 3.5t13 3.5q2 -2 2 -6q0 -3 -12 -12t-27 -19t-27.5 -17.5l-12.5 -7.5q-8 0 -16.5 5.5t-16 14t-13 17.5t-7.5 16q-5 -3 -17 -11.5t-25.5 -18
t-24.5 -17t-12 -7.5t-11.5 6t-23.5 13.5t-24.5 14.5t-12.5 9l-0.5 20.5t-1 46t-0.5 48.5v28q0 13 9 18q20 11 40.5 22.5t40.5 24.5q15 10 28 23.5t28 23.5zM104 637q-5 0 -8.5 -3t-3.5 -8v-137q0 -3 5.5 -8.5t13 -11.5t14.5 -10t10 -4q10 0 15.5 6t11.5 14l1 6q0 6 -0.5 25
t-1.5 39t-2.5 37.5t-2.5 20.5q-3 3 -10.5 8.5t-15.5 11t-15 10t-11 4.5z" />
    <glyph glyph-name="guillemotleft" unicode="&#xab;" horiz-adv-x="461" 
d="M226 222h-1v146l1 -1l211 129v-43l-116 -158l116 -158v-43zM35 222h-1v146l1 -1l211 129v-43l-116 -158l116 -158v-43z" />
    <glyph glyph-name="logicalnot" unicode="&#xac;" 
d="M52 365h397v-243h-82v167h-315v76z" />
    <glyph glyph-name="uni00AD" unicode="&#xad;" horiz-adv-x="400" 
d="M50 300q0 7 9 7h279q12 0 12 -11v-58q0 -7 -10 -7h-282q-8 0 -8 5v64z" />
    <glyph glyph-name="registered" unicode="&#xae;" horiz-adv-x="562" 
d="M281 723q52 0 95.5 -17t75 -47t48.5 -72t17 -93q0 -48 -17 -90t-47.5 -73t-74 -49t-97.5 -18q-56 0 -99.5 18t-74 49t-46.5 73t-16 90q0 49 18 90.5t49.5 72.5t74.5 48.5t94 17.5zM281 299q55 0 92 18.5t59 47.5t31 63t9 66q-2 53 -20.5 90t-46 60t-60.5 33.5t-64 10.5
q-42 0 -77 -13.5t-60.5 -39t-39.5 -61.5t-14 -80q0 -54 18 -91.5t46 -60.5t62 -33t65 -10zM255 462v-39t2 -27q0 -6 2 -10.5t5 -4.5h18q3 0 3 -3v-11q0 -3 -5 -3q-3 0 -23 0.5t-38 0.5q-14 0 -32 -0.5t-21 -0.5q-4 0 -4 3v11q0 3 2 3h9q8 0 13 4t5 18v192q0 18 -18 18h-7
q-3 0 -3 3v12q0 3 3 3q1 0 8 -0.5t15.5 -0.5t16.5 -0.5t11 -0.5t13 0.5t21 0.5t21 0.5t13 0.5q32 0 53.5 -6.5t31.5 -14.5q10 -11 14 -22.5t4 -22.5q0 -18 -7.5 -31t-18 -22t-22 -14.5t-20.5 -7.5v-1q0 -3 8.5 -6.5t12.5 -7.5q8 -8 16.5 -22t15.5 -25q8 -13 15.5 -23.5
t11.5 -15.5q5 -5 9.5 -6.5t8.5 -1.5q3 0 3 -4v-10q0 -3 -4 -3q-2 0 -11.5 0.5t-16.5 0.5q-14 0 -24.5 -0.5t-16.5 -0.5q-4 2 -10 9.5t-8 11.5q-1 1 -5 8t-9 15t-9 15t-5 9q-11 23 -20 37.5t-19 14.5h-8v-22zM255 500h8q19 0 30.5 7t18 16.5t9 19.5t2.5 15q0 12 -5.5 22.5
t-13 18t-16 11.5t-15.5 4q-4 0 -8.5 -0.5t-9.5 -0.5v-113z" />
    <glyph glyph-name="macron" unicode="&#xaf;" horiz-adv-x="297" 
d="M30 578q0 7 8 7h220q9 0 9 -7v-59q0 -7 -11 -7h-218q-8 0 -8 7v59z" />
    <glyph glyph-name="degree" unicode="&#xb0;" horiz-adv-x="320" 
d="M159 503q-56 0 -87.5 30t-31.5 78q0 24 8.5 44.5t24.5 35.5t38 23.5t49 8.5q58 0 89.5 -29.5t31.5 -76.5q0 -51 -34 -82.5t-88 -31.5zM160 548q26 0 44 19t18 46q0 28 -19 46.5t-43 18.5q-23 0 -42 -18.5t-19 -46.5q0 -27 19 -46t42 -19z" />
    <glyph glyph-name="plusminus" unicode="&#xb1;" 
d="M210 152v139h-158v76h158v130h82v-130h157v-76h-157v-139h-82zM449 81v-76h-397v76h397z" />
    <glyph glyph-name="twosuperior" unicode="&#xb2;" horiz-adv-x="308" 
d="M129 695q27 0 53.5 -8t48.5 -24t35.5 -38.5t13.5 -52.5q0 -31 -14.5 -55.5t-36 -43t-47 -33t-48 -26.5t-38 -23t-17.5 -23q5 -2 10 -2h10q38 0 78.5 -0.5t78.5 2.5q10 1 15.5 7.5t8 14.5t4.5 14.5t5 6.5t6 -1.5t7 -1.5q-12 -31 -20.5 -62t-16.5 -63q-27 0 -54 1.5
t-55 1.5q-30 0 -60 -2.5t-60 -2.5q-17 0 -29 8q11 35 28 57t36.5 38t39 30t35 34t25.5 49t10 75q0 13 -2 31t-8.5 34t-17.5 27t-29 11q-38 0 -60.5 -21.5t-22.5 -60.5q0 -26 8.5 -39t22.5 -32q-4 0 -7 -0.5t-7 -0.5q-7 0 -15 7t-15 16.5t-11.5 20t-4.5 17.5q0 23 9.5 43.5
t25.5 36t37.5 24.5t44.5 9z" />
    <glyph glyph-name="threesuperior" unicode="&#xb3;" horiz-adv-x="300" 
d="M144 700q21 0 44.5 -6.5t44 -19t34 -31.5t13.5 -43q0 -18 -7.5 -32t-20 -24t-28 -16.5t-31.5 -9.5v-6q19 -6 37 -15.5t32.5 -22.5t23 -30t8.5 -39q0 -35 -15.5 -57t-40.5 -35t-55 -17.5t-58 -4.5q-19 0 -40 4.5t-38 14.5t-28.5 26t-11.5 39t11.5 40t36.5 17
q18 0 32.5 -13t14.5 -31q0 -17 -4.5 -26.5t-13 -14t-19.5 -7t-23 -5.5q11 -18 34 -24.5t43 -6.5q25 0 40 9.5t23 25.5t10 36t2 40q0 16 -2.5 31.5t-9 28t-18.5 20t-31 7.5q-15 0 -25 -6.5t-23 -14.5l-7 8v12q14 4 27 9t27 8q20 3 30.5 10t15 17.5t5 24t0.5 31.5
q0 35 -13 57.5t-52 22.5q-31 0 -50 -17.5t-19 -49.5q0 -12 4 -22t9 -17.5t9 -12.5t4 -7q0 -3 -3 -5t-5 -2q-8 0 -15.5 7.5t-14 18t-10.5 21.5t-4 18q0 25 11.5 41.5t29 26.5t39 14.5t41.5 4.5z" />
    <glyph glyph-name="acute" unicode="&#xb4;" horiz-adv-x="450" 
d="M261 663h131l-172 -196h-39z" />
    <glyph glyph-name="mu" unicode="&#xb5;" horiz-adv-x="540" 
d="M102 -267q-11 -3 -17.5 -4t-10.5 -1t-5.5 5t-1.5 10q0 104 2.5 207.5t2.5 207.5v42q0 81 -4 135t-4 69q0 16 16 16h98q20 0 20 -18v-182q0 -15 -0.5 -34.5t0.5 -39.5t5.5 -39t13.5 -34q11 -17 22.5 -21t25.5 -4t31 8.5t29 25.5q5 6 8.5 15t3.5 20l-4 193q-1 42 -2.5 61
t-1.5 33q0 8 5.5 12t13.5 4h94q11 0 17.5 -5.5t6.5 -14.5t-1 -41t-1 -84v-71v-69t1 -47q2 -23 7 -32t15 -9q13 0 29 8q6 5 8 -3l8 -15q2 -4 -1 -8t-9 -10q-11 -10 -34.5 -21.5t-57.5 -11.5q-29 0 -52.5 20.5t-31.5 49.5h-7q-15 -30 -44 -50t-55 -20q-15 0 -31.5 3t-29.5 15
l-2 -2q0 -44 2 -81.5t4 -66.5t4 -49t2 -28q0 -17 -14 -22z" />
    <glyph glyph-name="paragraph" unicode="&#xb6;" horiz-adv-x="574" 
d="M363 -121q0 -14 -7 -14h-35q-7 0 -7 16v350q-22 1 -50.5 5.5t-57.5 14t-57 26t-50 42.5t-35.5 62.5t-13.5 86.5q0 73 27 120t77 73.5t121.5 36.5t160.5 10h87q12 0 15.5 -1t3.5 -6v-19q0 -7 -7 -8l-59 -2v-799q0 -8 -7 -8h-35q-5 0 -6 2.5t-1 12.5v791q-5 0 -13 -0.5
t-17.5 -1t-18.5 -1t-15 -1.5v-788z" />
    <glyph glyph-name="periodcentered" unicode="&#xb7;" horiz-adv-x="223" 
d="M109 449q14 -7 22.5 -20t18.5 -24q14 -15 31.5 -26t31.5 -26q-59 -40 -96 -98h-8q-8 10 -15.5 20.5t-15.5 20.5q-14 18 -33.5 29t-34.5 28q16 12 34.5 24.5t31.5 27.5q9 11 14 24t19 20z" />
    <glyph glyph-name="cedilla" unicode="&#xb8;" horiz-adv-x="268" 
d="M211 5l-58 -71q41 -7 63 -27.5t22 -44.5t-15.5 -42.5t-41 -30.5t-60 -18.5t-71.5 -6.5q-12 0 -16 6t-4 14q0 9 9.5 11.5t22.5 2.5q27 0 50.5 13.5t23.5 40.5q0 19 -16 30t-46 19l80 104h57z" />
    <glyph glyph-name="onesuperior" unicode="&#xb9;" horiz-adv-x="294" 
d="M200 690q2 1 6 1t6 -14.5t3 -32.5t0.5 -35.5t-0.5 -23.5q0 -65 -1 -129t-1 -130q0 -8 1 -17t3 -17q10 -2 20 -3.5t21 -3.5l-2 -13q-45 3 -89.5 5t-89.5 -3l-6 11q8 2 24 5.5t20 5.5q2 1 3 18.5t2 43.5t1.5 57t0.5 58.5v49v28.5q-23 -15 -43 -36t-43 -35l-4 11
q15 17 33.5 30t32.5 33q20 28 41.5 53t40.5 54q9 14 20 29z" />
    <glyph glyph-name="ordmasculine" unicode="&#xba;" horiz-adv-x="253" 
d="M164 704q4 0 13.5 -9.5t19.5 -21.5t18 -24t11 -17q12 -21 16 -34.5t4 -38.5q0 -18 -11.5 -38t-28 -39.5t-33.5 -37.5t-28 -31q-3 -2 -6.5 -4.5t-7.5 -2.5q-2 0 -6 2q-33 20 -55 27.5t-35 12t-19 9t-8 18t-1.5 39.5t0.5 74v18t2 19q2 11 12.5 13t18.5 5q16 7 32.5 11.5
t31.5 13.5q4 3 13 9l18 12t17 10.5t12 4.5zM99 654q-6 -9 -6.5 -20t-0.5 -21q0 -26 -0.5 -53t4.5 -52q7 -3 19.5 -9t25.5 -13t24 -12t16 -5q11 9 18 21.5t7 26.5q0 8 -14 30t-32 45t-36 41.5t-25 20.5z" />
    <glyph glyph-name="guillemotright" unicode="&#xbb;" horiz-adv-x="461" 
d="M225 94v43l116 158l-116 158v43l211 -129l1 1v-146h-1zM34 94v43l116 158l-116 158v43l211 -129l1 1v-146h-1z" />
    <glyph glyph-name="onequarter" unicode="&#xbc;" horiz-adv-x="643" 
d="M189 710q2 1 6 1t6 -14.5t3 -32.5t0.5 -35.5t-0.5 -23.5q0 -65 -1 -129t-1 -130q0 -8 1 -17t3 -17q10 -2 20 -3.5t21 -3.5l-2 -13q-45 3 -89.5 5t-89.5 -3l-6 11q8 2 24 5.5t20 5.5q2 1 3 18.5t2 43.5t1.5 57t0.5 58.5v49v28.5q-23 -15 -43 -36t-43 -35l-4 11
q15 17 33.5 30t32.5 33q20 28 41.5 53t40.5 54q9 14 20 29zM443 400q26 1 51.5 1t51.5 2q0 -28 -19 -65.5t-45 -75.5t-53 -72.5t-43 -57.5q20 0 41.5 -1t42.5 -1q9 0 12.5 7t4 16.5t-0.5 20t-1 17.5q0 24 4 44q2 8 5 10l9 6q18 14 31.5 33t24.5 38q5 7 10 7q2 0 6 -2
q-2 -41 -1.5 -82.5t0.5 -83.5q0 -16 3 -29h44q0 -12 1 -23.5t1 -23.5q-12 -2 -24 -2t-24 -2q-3 -14 -3 -28q0 -13 5 -28l3 -3q10 -3 21.5 -3.5t17.5 -11.5q-7 -4 -16 -4q-17 0 -35 2.5t-35 2.5q-21 0 -42 -2.5t-41 -2.5q-5 0 -6.5 4.5t-3.5 8.5q16 2 25 3.5t13.5 5.5t5.5 13
t1 26v9t-2 8q-7 4 -16 4h-71q-7 0 -22 -4.5t-23 -6.5q0 5 -2 8.5t-2 8.5q0 3 3 10t7.5 14.5t8 14.5l5.5 11q18 37 29 66.5t18.5 58.5t13 61t11.5 73zM457 719q4 9 13 6l50 -21q7 -3 1 -17l-294 -693q-5 -12 -13 -8l-49 22q-8 4 -1 18z" />
    <glyph glyph-name="onehalf" unicode="&#xbd;" horiz-adv-x="710" 
d="M189 710q2 1 6 1t6 -14.5t3 -32.5t0.5 -35.5t-0.5 -23.5q0 -65 -1 -129t-1 -130q0 -8 1 -17t3 -17q10 -2 20 -3.5t21 -3.5l-2 -13q-45 3 -89.5 5t-89.5 -3l-6 11q8 2 24 5.5t20 5.5q2 1 3 18.5t2 43.5t1.5 57t0.5 58.5v49v28.5q-23 -15 -43 -36t-43 -35l-4 11
q15 17 33.5 30t32.5 33q20 28 41.5 53t40.5 54q9 14 20 29zM457 719q4 9 13 6l50 -21q7 -3 1 -17l-294 -693q-5 -12 -13 -8l-49 22q-8 4 -1 18zM509 419q27 0 53.5 -8t48.5 -24t35.5 -38.5t13.5 -52.5q0 -31 -14.5 -55.5t-36 -43t-47 -33t-48 -26.5t-38 -23t-17.5 -23
q5 -2 10 -2h10q38 0 78.5 -0.5t78.5 2.5q10 1 15.5 7.5t8 14.5t4.5 14.5t5 6.5t6 -1.5t7 -1.5q-12 -31 -20.5 -62t-16.5 -63q-27 0 -54 1.5t-55 1.5q-30 0 -60 -2.5t-60 -2.5q-17 0 -29 8q11 35 28 57t36.5 38t39 30t35 34t25.5 49t10 75q0 13 -2 31t-8.5 34t-17.5 27
t-29 11q-38 0 -60.5 -21.5t-22.5 -60.5q0 -26 8.5 -39t22.5 -32q-4 0 -7 -0.5t-7 -0.5q-7 0 -15 7t-15 16.5t-11.5 20t-4.5 17.5q0 23 9.5 43.5t25.5 36t37.5 24.5t44.5 9z" />
    <glyph glyph-name="threequarters" unicode="&#xbe;" horiz-adv-x="643" 
d="M443 400q26 1 51.5 1t51.5 2q0 -28 -19 -65.5t-45 -75.5t-53 -72.5t-43 -57.5q20 0 41.5 -1t42.5 -1q9 0 12.5 7t4 16.5t-0.5 20t-1 17.5q0 24 4 44q2 8 5 10l9 6q18 14 31.5 33t24.5 38q5 7 10 7q2 0 6 -2q-2 -41 -1.5 -82.5t0.5 -83.5q0 -16 3 -29h44q0 -12 1 -23.5
t1 -23.5q-12 -2 -24 -2t-24 -2q-3 -14 -3 -28q0 -13 5 -28l3 -3q10 -3 21.5 -3.5t17.5 -11.5q-7 -4 -16 -4q-17 0 -35 2.5t-35 2.5q-21 0 -42 -2.5t-41 -2.5q-5 0 -6.5 4.5t-3.5 8.5q16 2 25 3.5t13.5 5.5t5.5 13t1 26v9t-2 8q-7 4 -16 4h-71q-7 0 -22 -4.5t-23 -6.5
q0 5 -2 8.5t-2 8.5q0 3 3 10t7.5 14.5t8 14.5l5.5 11q18 37 29 66.5t18.5 58.5t13 61t11.5 73zM457 719q4 9 13 6l50 -21q7 -3 1 -17l-294 -693q-5 -12 -13 -8l-49 22q-8 4 -1 18zM144 700q21 0 44.5 -6.5t44 -19t34 -31.5t13.5 -43q0 -18 -7.5 -32t-20 -24t-28 -16.5
t-31.5 -9.5v-6q19 -6 37 -15.5t32.5 -22.5t23 -30t8.5 -39q0 -35 -15.5 -57t-40.5 -35t-55 -17.5t-58 -4.5q-19 0 -40 4.5t-38 14.5t-28.5 26t-11.5 39t11.5 40t36.5 17q18 0 32.5 -13t14.5 -31q0 -17 -4.5 -26.5t-13 -14t-19.5 -7t-23 -5.5q11 -18 34 -24.5t43 -6.5
q25 0 40 9.5t23 25.5t10 36t2 40q0 16 -2.5 31.5t-9 28t-18.5 20t-31 7.5q-15 0 -25 -6.5t-23 -14.5l-7 8v12q14 4 27 9t27 8q20 3 30.5 10t15 17.5t5 24t0.5 31.5q0 35 -13 57.5t-52 22.5q-31 0 -50 -17.5t-19 -49.5q0 -12 4 -22t9 -17.5t9 -12.5t4 -7q0 -3 -3 -5t-5 -2
q-8 0 -15.5 7.5t-14 18t-10.5 21.5t-4 18q0 25 11.5 41.5t29 26.5t39 14.5t41.5 4.5z" />
    <glyph glyph-name="questiondown" unicode="&#xbf;" horiz-adv-x="401" 
d="M219 -199q-39 0 -76.5 10.5t-67 31.5t-47.5 53t-18 75q0 42 18.5 70t47 48t61 34.5t61 29t47 31.5t18.5 43q0 13 -6 23.5t-14 19.5q-25 13 -56 13q-12 0 -29 -3.5t-32 -10.5t-25.5 -18.5t-10.5 -27.5q0 -17 6 -32.5t8 -32.5h-14q-8 11 -15.5 22.5t-7.5 25.5q0 22 11 40.5
t28.5 31t38.5 19.5t41 7q30 0 53.5 -10.5t39 -29t24 -43.5t8.5 -53q0 -41 -12.5 -66t-31 -41.5t-40.5 -28t-40.5 -24t-31 -31t-12.5 -48.5q0 -21 8 -39.5t21.5 -32.5t32 -22.5t39.5 -8.5q56 0 85.5 29t29.5 85q0 32 -10.5 58t-42.5 39q5 5 6.5 9.5t10.5 4.5q16 0 28.5 -14
t21.5 -33t13.5 -39t4.5 -32q0 -33 -16.5 -58t-41.5 -41.5t-55.5 -24.5t-58.5 -8zM178 322q-8 4 -13.5 12t-11.5 15q-16 18 -34 32t-35 31q6 4 20.5 18t30 29.5l27.5 27.5t14 12h3.5t3.5 -2q13 -11 24 -25.5t23 -26.5q11 -10 23 -16.5t23 -16.5q-9 -6 -25.5 -21t-32.5 -30
t-28 -27z" />
    <glyph glyph-name="Agrave" unicode="&#xc0;" horiz-adv-x="793" 
d="M792 113q-1 -11 -13 -24t-29 -26.5t-37 -26t-38.5 -22.5t-32.5 -16t-18 -6q-1 0 -5 2q-9 5 -25 11.5t-32.5 13.5t-30.5 13.5t-20 11.5l-1 54q-18 -5 -41.5 -21t-47.5 -33.5t-45.5 -31t-35.5 -13.5q-9 0 -29.5 18t-51 39.5t-71.5 39.5t-92 18q-68 0 -68 -68
q0 -6 5.5 -15.5t10.5 -14.5l-16 -6q-11 9 -14.5 21.5t-3.5 26.5q0 32 14.5 52t37 33t50 21.5t53.5 18.5t48 23.5t34 36.5q10 19 15.5 46t8.5 55.5t4 56.5t1 50q0 26 -1.5 61.5t-11 67.5t-29.5 54.5t-56 22.5q-124 0 -124 -124q0 -32 10 -53.5t28 -35t42 -19.5t53 -6l-5 -26
q-33 -5 -60.5 4.5t-47.5 30t-31 51.5t-11 70q0 40 17 68t44.5 45.5t61.5 25.5t68 8q43 0 81.5 -19t67 -50.5t45 -71.5t16.5 -82q0 -33 -4 -67t-15 -65.5t-30.5 -58t-51.5 -44.5q-14 -8 -34 -18.5t-41 -21t-42 -19t-36 -11.5l46 1q39 0 67 -7t53 -17.5t50 -24.5t57 -27
q20 8 31.5 21t17 31.5t7 43.5t1.5 57l1 362l227 87l9 -24q-12 -5 -26.5 -11.5t-27 -17t-20.5 -25.5t-8 -36q0 -109 -1 -217.5t-1 -217.5q0 -13 7.5 -24t19 -18.5t25.5 -12t26 -4.5q11 0 22 11t16 23zM502 659h-39l-172 196h131z" />
    <glyph glyph-name="Aacute" unicode="&#xc1;" horiz-adv-x="793" 
d="M792 113q-1 -11 -13 -24t-29 -26.5t-37 -26t-38.5 -22.5t-32.5 -16t-18 -6q-1 0 -5 2q-9 5 -25 11.5t-32.5 13.5t-30.5 13.5t-20 11.5l-1 54q-18 -5 -41.5 -21t-47.5 -33.5t-45.5 -31t-35.5 -13.5q-9 0 -29.5 18t-51 39.5t-71.5 39.5t-92 18q-68 0 -68 -68
q0 -6 5.5 -15.5t10.5 -14.5l-16 -6q-11 9 -14.5 21.5t-3.5 26.5q0 32 14.5 52t37 33t50 21.5t53.5 18.5t48 23.5t34 36.5q10 19 15.5 46t8.5 55.5t4 56.5t1 50q0 26 -1.5 61.5t-11 67.5t-29.5 54.5t-56 22.5q-124 0 -124 -124q0 -32 10 -53.5t28 -35t42 -19.5t53 -6l-5 -26
q-33 -5 -60.5 4.5t-47.5 30t-31 51.5t-11 70q0 40 17 68t44.5 45.5t61.5 25.5t68 8q43 0 81.5 -19t67 -50.5t45 -71.5t16.5 -82q0 -33 -4 -67t-15 -65.5t-30.5 -58t-51.5 -44.5q-14 -8 -34 -18.5t-41 -21t-42 -19t-36 -11.5l46 1q39 0 67 -7t53 -17.5t50 -24.5t57 -27
q20 8 31.5 21t17 31.5t7 43.5t1.5 57l1 362l227 87l9 -24q-12 -5 -26.5 -11.5t-27 -17t-20.5 -25.5t-8 -36q0 -109 -1 -217.5t-1 -217.5q0 -13 7.5 -24t19 -18.5t25.5 -12t26 -4.5q11 0 22 11t16 23zM489 855h131l-172 -196h-39z" />
    <glyph glyph-name="Acircumflex" unicode="&#xc2;" horiz-adv-x="793" 
d="M792 113q-1 -11 -13 -24t-29 -26.5t-37 -26t-38.5 -22.5t-32.5 -16t-18 -6q-1 0 -5 2q-9 5 -25 11.5t-32.5 13.5t-30.5 13.5t-20 11.5l-1 54q-18 -5 -41.5 -21t-47.5 -33.5t-45.5 -31t-35.5 -13.5q-9 0 -29.5 18t-51 39.5t-71.5 39.5t-92 18q-68 0 -68 -68
q0 -6 5.5 -15.5t10.5 -14.5l-16 -6q-11 9 -14.5 21.5t-3.5 26.5q0 32 14.5 52t37 33t50 21.5t53.5 18.5t48 23.5t34 36.5q10 19 15.5 46t8.5 55.5t4 56.5t1 50q0 26 -1.5 61.5t-11 67.5t-29.5 54.5t-56 22.5q-124 0 -124 -124q0 -32 10 -53.5t28 -35t42 -19.5t53 -6l-5 -26
q-33 -5 -60.5 4.5t-47.5 30t-31 51.5t-11 70q0 40 17 68t44.5 45.5t61.5 25.5t68 8q43 0 81.5 -19t67 -50.5t45 -71.5t16.5 -82q0 -33 -4 -67t-15 -65.5t-30.5 -58t-51.5 -44.5q-14 -8 -34 -18.5t-41 -21t-42 -19t-36 -11.5l46 1q39 0 67 -7t53 -17.5t50 -24.5t57 -27
q20 8 31.5 21t17 31.5t7 43.5t1.5 57l1 362l227 87l9 -24q-12 -5 -26.5 -11.5t-27 -17t-20.5 -25.5t-8 -36q0 -109 -1 -217.5t-1 -217.5q0 -13 7.5 -24t19 -18.5t25.5 -12t26 -4.5q11 0 22 11t16 23zM439 838v1h106l-1 -1l95 -130h-32l-115 72l-116 -72h-31z" />
    <glyph glyph-name="Atilde" unicode="&#xc3;" horiz-adv-x="793" 
d="M792 113q-1 -11 -13 -24t-29 -26.5t-37 -26t-38.5 -22.5t-32.5 -16t-18 -6q-1 0 -5 2q-9 5 -25 11.5t-32.5 13.5t-30.5 13.5t-20 11.5l-1 54q-18 -5 -41.5 -21t-47.5 -33.5t-45.5 -31t-35.5 -13.5q-9 0 -29.5 18t-51 39.5t-71.5 39.5t-92 18q-68 0 -68 -68
q0 -6 5.5 -15.5t10.5 -14.5l-16 -6q-11 9 -14.5 21.5t-3.5 26.5q0 32 14.5 52t37 33t50 21.5t53.5 18.5t48 23.5t34 36.5q10 19 15.5 46t8.5 55.5t4 56.5t1 50q0 26 -1.5 61.5t-11 67.5t-29.5 54.5t-56 22.5q-124 0 -124 -124q0 -32 10 -53.5t28 -35t42 -19.5t53 -6l-5 -26
q-33 -5 -60.5 4.5t-47.5 30t-31 51.5t-11 70q0 40 17 68t44.5 45.5t61.5 25.5t68 8q43 0 81.5 -19t67 -50.5t45 -71.5t16.5 -82q0 -33 -4 -67t-15 -65.5t-30.5 -58t-51.5 -44.5q-14 -8 -34 -18.5t-41 -21t-42 -19t-36 -11.5l46 1q39 0 67 -7t53 -17.5t50 -24.5t57 -27
q20 8 31.5 21t17 31.5t7 43.5t1.5 57l1 362l227 87l9 -24q-12 -5 -26.5 -11.5t-27 -17t-20.5 -25.5t-8 -36q0 -109 -1 -217.5t-1 -217.5q0 -13 7.5 -24t19 -18.5t25.5 -12t26 -4.5q11 0 22 11t16 23zM622 810q3 0 4 -3.5t-1 -14.5q-3 -15 -9.5 -30.5t-16.5 -28.5
t-23.5 -21.5t-31.5 -8.5q-26 0 -44.5 5.5t-33.5 10.5q-18 6 -31.5 9.5t-21.5 3.5q-12 0 -23.5 -9t-15.5 -28q-1 -5 -7 -5h-18q-7 0 -3 17q7 40 29.5 68t53.5 28q21 0 41.5 -6t34.5 -10q20 -5 34.5 -9.5t25.5 -4.5q17 0 23.5 9t9.5 22q1 6 7 6h17z" />
    <glyph glyph-name="Adieresis" unicode="&#xc4;" horiz-adv-x="805" 
d="M451 798q30 0 43.5 -13t13.5 -41q0 -15 -15.5 -33t-35.5 -34t-39.5 -28.5t-27.5 -16.5l-11 6q2 17 4 44.5t9 53t20.5 44t38.5 18.5zM588 789q61 0 61 -47q0 -13 -15 -29.5t-36 -32t-42.5 -28t-33.5 -18.5l-10 7q2 28 5.5 54.5t11.5 47.5t22 33.5t37 12.5zM792 113
q-1 -11 -13 -24t-29 -26.5t-37 -26t-38.5 -22.5t-32.5 -16t-18 -6q-1 0 -5 2q-9 5 -25 11.5t-32.5 13.5t-30.5 13.5t-20 11.5l-1 54q-18 -5 -41.5 -21t-47.5 -33.5t-45.5 -31t-35.5 -13.5q-9 0 -29.5 18t-51 39.5t-71.5 39.5t-92 18q-68 0 -68 -68q0 -6 5.5 -15.5
t10.5 -14.5l-16 -6q-11 9 -14.5 21.5t-3.5 26.5q0 32 14.5 52t37 33t50 21.5t53.5 18.5t48 23.5t34 36.5q10 19 15.5 46t8.5 55.5t4 56.5t1 50q0 26 -1.5 61.5t-11 67.5t-29.5 54.5t-56 22.5q-124 0 -124 -124q0 -32 10 -53.5t28 -35t42 -19.5t53 -6l-5 -26
q-33 -5 -60.5 4.5t-47.5 30t-31 51.5t-11 70q0 40 17 68t44.5 45.5t61.5 25.5t68 8q43 0 81.5 -19t67 -50.5t45 -71.5t16.5 -82q0 -33 -4 -67t-15 -65.5t-30.5 -58t-51.5 -44.5q-14 -8 -34 -18.5t-41 -21t-42 -19t-36 -11.5l46 1q39 0 67 -7t53 -17.5t50 -24.5t57 -27
q20 8 31.5 21t17 31.5t7 43.5t1.5 57l1 362l227 87l9 -24q-12 -5 -26.5 -11.5t-27 -17t-20.5 -25.5t-8 -36q0 -109 -1 -217.5t-1 -217.5q0 -13 7.5 -24t19 -18.5t25.5 -12t26 -4.5q11 0 22 11t16 23z" />
    <glyph glyph-name="Aring" unicode="&#xc5;" horiz-adv-x="793" 
d="M792 113q-1 -11 -13 -24t-29 -26.5t-37 -26t-38.5 -22.5t-32.5 -16t-18 -6q-1 0 -5 2q-9 5 -25 11.5t-32.5 13.5t-30.5 13.5t-20 11.5l-1 54q-18 -5 -41.5 -21t-47.5 -33.5t-45.5 -31t-35.5 -13.5q-9 0 -29.5 18t-51 39.5t-71.5 39.5t-92 18q-68 0 -68 -68
q0 -6 5.5 -15.5t10.5 -14.5l-16 -6q-11 9 -14.5 21.5t-3.5 26.5q0 32 14.5 52t37 33t50 21.5t53.5 18.5t48 23.5t34 36.5q10 19 15.5 46t8.5 55.5t4 56.5t1 50q0 26 -1.5 61.5t-11 67.5t-29.5 54.5t-56 22.5q-124 0 -124 -124q0 -32 10 -53.5t28 -35t42 -19.5t53 -6l-5 -26
q-33 -5 -60.5 4.5t-47.5 30t-31 51.5t-11 70q0 40 17 68t44.5 45.5t61.5 25.5t68 8q43 0 81.5 -19t67 -50.5t45 -71.5t16.5 -82q0 -33 -4 -67t-15 -65.5t-30.5 -58t-51.5 -44.5q-14 -8 -34 -18.5t-41 -21t-42 -19t-36 -11.5l46 1q39 0 67 -7t53 -17.5t50 -24.5t57 -27
q20 8 31.5 21t17 31.5t7 43.5t1.5 57l1 362l227 87l9 -24q-12 -5 -26.5 -11.5t-27 -17t-20.5 -25.5t-8 -36q0 -109 -1 -217.5t-1 -217.5q0 -13 7.5 -24t19 -18.5t25.5 -12t26 -4.5q11 0 22 11t16 23zM459 661q-24 0 -46 5.5t-39.5 16.5t-28 27t-10.5 37q0 22 11 39.5
t29.5 29.5t42.5 18.5t50 6.5q55 0 90 -23t35 -61q0 -29 -13 -47.5t-32.5 -29t-43.5 -15t-45 -4.5zM464 695q22 0 35.5 13.5t13.5 43.5q0 29 -15 42t-32 13q-25 -1 -38 -16.5t-13 -38.5q0 -57 49 -57z" />
    <glyph glyph-name="AE" unicode="&#xc6;" horiz-adv-x="1092" 
d="M510 608q29 13 58 31.5t57 30.5q16 8 34 13t39 5q20 0 36.5 -9.5t29.5 -24.5t22.5 -32.5t16.5 -33.5q20 21 33 50.5t27 54.5q12 -2 30.5 -8t37.5 -13t34 -12.5t21 -5.5q13 0 19 12.5t14 20.5l14 -5q-16 -42 -38.5 -81.5t-46.5 -77.5q-12 2 -29 9.5l-34 15t-32.5 13.5
t-22.5 6q-16 0 -21 -13.5t-5 -26.5q0 -10 8.5 -24t22 -30.5t30 -33t32.5 -31t29.5 -25t21.5 -14.5q2 13 2.5 25t0.5 25q-7 11 -14.5 21.5t-13.5 21.5l6 11q14 -2 27.5 -5t27.5 -3q4 0 14 4t22 9t22.5 10t15.5 7l5 -5q-2 -17 -5.5 -33.5t-3.5 -33.5q0 -15 6.5 -27t6.5 -25
q0 -11 -7 -21q-13 2 -24.5 7t-24.5 5q-11 0 -21 -5.5t-20 -11.5q3 -23 9.5 -46.5t6.5 -47.5q0 -20 -6 -40t-15.5 -39t-22.5 -36t-27 -30q-5 -4 -15.5 -7.5t-22.5 -6t-24 -4t-18 -1.5q-26 0 -46.5 10t-34.5 27t-21 39t-7 47q0 5 7.5 8.5t11.5 5.5q0 -24 5.5 -45.5t17.5 -37.5
t31 -25.5t45 -9.5q23 0 40 15t17 38q0 22 -11.5 40t-29.5 34t-38 32.5t-38 36.5t-29.5 45t-11.5 58q0 24 6.5 45.5t15 42.5t15 41.5t6.5 43.5q0 13 -9 28.5t-22.5 29t-29.5 22t-29 8.5q-11 0 -22 -4.5t-16 -15.5q-7 -66 -3 -131.5t0 -131.5q-2 -44 -3 -87.5t-1 -87.5
q0 -51 4 -88.5t20.5 -62t50 -37t92.5 -12.5q55 0 108 20.5t88 64.5q13 16 19.5 35.5t21.5 32.5l14 -5q-32 -88 -99.5 -130.5t-159.5 -42.5q-46 0 -83.5 8.5t-68.5 24.5q-13 5 -36.5 11l-47 12t-43 11.5t-24.5 9.5q0 13 2 19t4 19q-18 -5 -42 -21t-48.5 -33.5t-46.5 -31
t-36 -13.5q-9 0 -29.5 18t-51 39.5t-71.5 39.5t-92 18q-68 0 -68 -68q0 -6 6.5 -15t9.5 -15l-16 -6q-11 9 -14.5 21.5t-3.5 26.5q0 32 14.5 52t37 33t50 21.5t53.5 18.5t48 23.5t34 36.5q10 19 15.5 46t8.5 55.5t4 56.5t1 50q0 26 -1.5 61.5t-11 67.5t-29.5 54.5t-56 22.5
q-124 0 -124 -124q0 -32 10 -53.5t28 -35t42 -19.5t53 -6q0 -6 -0.5 -12t-5.5 -10q-3 -6 -11 -6q-34 0 -59.5 13.5t-43 35.5t-26.5 50.5t-9 58.5q0 40 17 68t44.5 45.5t61.5 25.5t68 8q43 0 81.5 -19t67 -50.5t45 -71.5t16.5 -82q0 -33 -4 -67t-15 -65.5t-30.5 -58
t-51.5 -44.5q-28 -16 -59 -34.5t-62 -25.5v-9h14q39 0 67 -7t53 -17.5t50 -24.5t57 -27q31 6 44 21.5t16 37t0 46t-3 48.5q0 91 2 181t-1 181z" />
    <glyph glyph-name="Ccedilla" unicode="&#xc7;" horiz-adv-x="605" 
d="M601 149q-21 -41 -46.5 -70.5t-57 -49t-70.5 -28.5t-88 -10q-75 -1 -136 21.5t-103.5 65.5t-66 104t-23.5 136q0 31 5 71.5t15.5 82t27.5 81.5t41 71.5t56.5 50.5t73.5 19q22 0 43 -11t37 -28.5t25.5 -40.5t8.5 -47l76 128q13 0 27 -6t28 -13t28 -13t27 -6q12 0 23 10.5
t16 22.5l11 -6q-1 -6 -12.5 -30t-25.5 -52t-28 -53t-19 -34q-16 3 -31 12t-30 18.5t-30 16.5t-32 7q-8 0 -13 -6t-8 -14t-4 -16.5t-1 -14.5q0 -19 13.5 -36t33 -33.5t43 -34t43 -38.5t33 -46.5t13.5 -57.5q0 -31 -11 -61.5t-31.5 -55t-48.5 -39.5t-61 -15q-39 0 -63.5 11.5
t-38 31.5t-18.5 45.5t-5 54.5l22 3q0 -24 4 -46.5t15.5 -40.5t32 -28.5t52.5 -10.5q25 0 43.5 14t18.5 41q0 23 -12.5 40.5t-30.5 33t-40 30t-40 31.5t-30.5 38t-12.5 50q0 22 8.5 45t19 44t18.5 40.5t8 36.5q0 19 -8 38t-20.5 34t-29.5 24t-36 9t-38.5 -15.5t-19.5 -48.5
v-433q0 -37 4 -67t20.5 -51t49.5 -32t92 -11q58 0 100 16.5t71.5 39.5t48 48t29.5 43zM379 5l-58 -71q41 -7 63 -27.5t22 -44.5t-15.5 -42.5t-41 -30.5t-60 -18.5t-71.5 -6.5q-12 0 -16 6t-4 14q0 9 9.5 11.5t22.5 2.5q27 0 50.5 13.5t23.5 40.5q0 19 -16 30t-46 19l80 104
h57z" />
    <glyph glyph-name="Egrave" unicode="&#xc8;" horiz-adv-x="596" 
d="M582 349q-26 17 -51.5 19t-51.5 -13q17 -18 24 -49t7 -55q0 -32 -12.5 -62t-33.5 -53.5t-49 -38t-59 -14.5q-26 0 -47 10.5t-35.5 28t-22.5 40.5t-8 48l19 14q0 -24 5.5 -45.5t17.5 -37.5t31 -25.5t45 -9.5q23 0 40 15t17 38q0 22 -11.5 40t-29.5 34t-38 32.5t-38 36.5
t-29.5 45t-11.5 58q0 24 6.5 45.5t15 42.5t15 41.5t6.5 43.5q0 13 -9 28.5t-22.5 29t-29.5 22t-29 8.5q-15 0 -23 -5t-12 -14t-4.5 -20.5t-1.5 -24.5l-4 -394q0 -51 4 -88.5t20.5 -62t50 -37t92.5 -12.5q87 0 142 38.5t95 114.5l14 -5q-32 -88 -99.5 -130.5t-159.5 -42.5
q-90 0 -151 33.5t-98 89t-52.5 128t-15.5 150.5q0 45 12 98t36.5 98.5t63.5 76.5t93 31q20 0 37.5 -9t31.5 -23.5t23 -32t13 -35.5q20 21 35.5 50t24.5 55q12 -2 30.5 -8t37.5 -13t34 -12.5t21 -5.5q13 0 20.5 10.5t12.5 22.5l14 -5q-16 -42 -38.5 -81.5t-46.5 -77.5
q-12 2 -29 9.5l-34 15t-32.5 13.5t-22.5 6q-16 0 -21 -13.5t-5 -26.5q0 -14 19 -37t44 -47t49.5 -45t35.5 -33q14 27 4.5 52.5t-32.5 45.5l5 10q29 -9 64 -5t65 27l8 -7q-8 -15 -11.5 -33t-2.5 -35.5t5.5 -34t13.5 -28.5zM349 659h-39l-172 196h131z" />
    <glyph glyph-name="Eacute" unicode="&#xc9;" horiz-adv-x="596" 
d="M582 349q-26 17 -51.5 19t-51.5 -13q17 -18 24 -49t7 -55q0 -32 -12.5 -62t-33.5 -53.5t-49 -38t-59 -14.5q-26 0 -47 10.5t-35.5 28t-22.5 40.5t-8 48l19 14q0 -24 5.5 -45.5t17.5 -37.5t31 -25.5t45 -9.5q23 0 40 15t17 38q0 22 -11.5 40t-29.5 34t-38 32.5t-38 36.5
t-29.5 45t-11.5 58q0 24 6.5 45.5t15 42.5t15 41.5t6.5 43.5q0 13 -9 28.5t-22.5 29t-29.5 22t-29 8.5q-15 0 -23 -5t-12 -14t-4.5 -20.5t-1.5 -24.5l-4 -394q0 -51 4 -88.5t20.5 -62t50 -37t92.5 -12.5q87 0 142 38.5t95 114.5l14 -5q-32 -88 -99.5 -130.5t-159.5 -42.5
q-90 0 -151 33.5t-98 89t-52.5 128t-15.5 150.5q0 45 12 98t36.5 98.5t63.5 76.5t93 31q20 0 37.5 -9t31.5 -23.5t23 -32t13 -35.5q20 21 35.5 50t24.5 55q12 -2 30.5 -8t37.5 -13t34 -12.5t21 -5.5q13 0 20.5 10.5t12.5 22.5l14 -5q-16 -42 -38.5 -81.5t-46.5 -77.5
q-12 2 -29 9.5l-34 15t-32.5 13.5t-22.5 6q-16 0 -21 -13.5t-5 -26.5q0 -14 19 -37t44 -47t49.5 -45t35.5 -33q14 27 4.5 52.5t-32.5 45.5l5 10q29 -9 64 -5t65 27l8 -7q-8 -15 -11.5 -33t-2.5 -35.5t5.5 -34t13.5 -28.5zM374 855h131l-172 -196h-39z" />
    <glyph glyph-name="Ecircumflex" unicode="&#xca;" horiz-adv-x="596" 
d="M582 349q-26 17 -51.5 19t-51.5 -13q17 -18 24 -49t7 -55q0 -32 -12.5 -62t-33.5 -53.5t-49 -38t-59 -14.5q-26 0 -47 10.5t-35.5 28t-22.5 40.5t-8 48l19 14q0 -24 5.5 -45.5t17.5 -37.5t31 -25.5t45 -9.5q23 0 40 15t17 38q0 22 -11.5 40t-29.5 34t-38 32.5t-38 36.5
t-29.5 45t-11.5 58q0 24 6.5 45.5t15 42.5t15 41.5t6.5 43.5q0 13 -9 28.5t-22.5 29t-29.5 22t-29 8.5q-15 0 -23 -5t-12 -14t-4.5 -20.5t-1.5 -24.5l-4 -394q0 -51 4 -88.5t20.5 -62t50 -37t92.5 -12.5q87 0 142 38.5t95 114.5l14 -5q-32 -88 -99.5 -130.5t-159.5 -42.5
q-90 0 -151 33.5t-98 89t-52.5 128t-15.5 150.5q0 45 12 98t36.5 98.5t63.5 76.5t93 31q20 0 37.5 -9t31.5 -23.5t23 -32t13 -35.5q20 21 35.5 50t24.5 55q12 -2 30.5 -8t37.5 -13t34 -12.5t21 -5.5q13 0 20.5 10.5t12.5 22.5l14 -5q-16 -42 -38.5 -81.5t-46.5 -77.5
q-12 2 -29 9.5l-34 15t-32.5 13.5t-22.5 6q-16 0 -21 -13.5t-5 -26.5q0 -14 19 -37t44 -47t49.5 -45t35.5 -33q14 27 4.5 52.5t-32.5 45.5l5 10q29 -9 64 -5t65 27l8 -7q-8 -15 -11.5 -33t-2.5 -35.5t5.5 -34t13.5 -28.5zM251 838v1h106l-1 -1l95 -130h-32l-115 72l-116 -72
h-31z" />
    <glyph glyph-name="Edieresis" unicode="&#xcb;" horiz-adv-x="596" 
d="M354 858q30 0 43.5 -13t13.5 -41q0 -15 -15.5 -33t-35.5 -34t-39.5 -28.5t-27.5 -16.5l-11 6q2 17 4 44.5t9 53t20.5 44t38.5 18.5zM491 849q61 0 61 -47q0 -13 -15 -29.5t-36 -32t-42.5 -28t-33.5 -18.5l-10 7q2 28 5.5 54.5t11.5 47.5t22 33.5t37 12.5zM582 349
q-26 17 -51.5 19t-51.5 -13q17 -18 24 -49t7 -55q0 -32 -12.5 -62t-33.5 -53.5t-49 -38t-59 -14.5q-26 0 -47 10.5t-35.5 28t-22.5 40.5t-8 48l19 14q0 -24 5.5 -45.5t17.5 -37.5t31 -25.5t45 -9.5q23 0 40 15t17 38q0 22 -11.5 40t-29.5 34t-38 32.5t-38 36.5t-29.5 45
t-11.5 58q0 24 6.5 45.5t15 42.5t15 41.5t6.5 43.5q0 13 -9 28.5t-22.5 29t-29.5 22t-29 8.5q-15 0 -23 -5t-12 -14t-4.5 -20.5t-1.5 -24.5l-4 -394q0 -51 4 -88.5t20.5 -62t50 -37t92.5 -12.5q87 0 142 38.5t95 114.5l14 -5q-32 -88 -99.5 -130.5t-159.5 -42.5
q-90 0 -151 33.5t-98 89t-52.5 128t-15.5 150.5q0 45 12 98t36.5 98.5t63.5 76.5t93 31q20 0 37.5 -9t31.5 -23.5t23 -32t13 -35.5q20 21 35.5 50t24.5 55q12 -2 30.5 -8t37.5 -13t34 -12.5t21 -5.5q13 0 20.5 10.5t12.5 22.5l14 -5q-16 -42 -38.5 -81.5t-46.5 -77.5
q-12 2 -29 9.5l-34 15t-32.5 13.5t-22.5 6q-16 0 -21 -13.5t-5 -26.5q0 -14 19 -37t44 -47t49.5 -45t35.5 -33q14 27 4.5 52.5t-32.5 45.5l5 10q29 -9 64 -5t65 27l8 -7q-8 -15 -11.5 -33t-2.5 -35.5t5.5 -34t13.5 -28.5z" />
    <glyph glyph-name="Igrave" unicode="&#xcc;" horiz-adv-x="650" 
d="M595 655q20 -14 32.5 -35t12.5 -50q0 -31 -14.5 -52t-36.5 -33.5t-49 -18t-52 -5.5q-52 0 -97 16.5t-84.5 37t-74.5 37t-68 16.5q-34 0 -56.5 -21.5t-22.5 -55.5q0 -25 9.5 -51.5t26.5 -48t40.5 -35.5t51.5 -14q7 0 21.5 2.5t20.5 7.5l5 -17q-5 -5 -16 -8t-25 -3
q-30 0 -57.5 11.5t-49 31.5t-34 47.5t-12.5 59.5q0 40 12.5 76.5t36 63.5t57.5 43t76 16q62 0 112.5 -24t91 -52.5t71.5 -52.5t55 -24q26 0 35.5 15.5t9.5 35.5q0 24 -11.5 42t-27.5 29zM12 -81q-5 39 3.5 70t27.5 53t46 34t60 12t60 -10.5t51 -26.5t47 -34t46 -34t48 -26.5
t55 -10.5q16 0 32 9.5t29.5 23.5t22 31.5t8.5 32.5q0 30 -13 51.5t-33 39.5t-43 35t-43 37t-33 46t-13 62q0 71 43.5 103t113.5 32q39 0 59.5 -23.5t27.5 -58.5l-19 -3q-5 26 -23 46.5t-47 20.5q-39 0 -39 -41q0 -20 10 -35t25 -29.5t32 -30t32 -36t25 -48t10 -65.5
q0 -51 -17 -95t-50 -76.5t-81.5 -51.5t-112.5 -19q-51 0 -93.5 15t-78 32.5t-64 32.5t-49.5 15q-20 0 -29.5 -6.5t-13.5 -17t-3.5 -24t0.5 -28.5zM488 659h-39l-172 196h131z" />
    <glyph glyph-name="Iacute" unicode="&#xcd;" horiz-adv-x="650" 
d="M595 655q20 -14 32.5 -35t12.5 -50q0 -31 -14.5 -52t-36.5 -33.5t-49 -18t-52 -5.5q-52 0 -97 16.5t-84.5 37t-74.5 37t-68 16.5q-34 0 -56.5 -21.5t-22.5 -55.5q0 -25 9.5 -51.5t26.5 -48t40.5 -35.5t51.5 -14q7 0 21.5 2.5t20.5 7.5l5 -17q-5 -5 -16 -8t-25 -3
q-30 0 -57.5 11.5t-49 31.5t-34 47.5t-12.5 59.5q0 40 12.5 76.5t36 63.5t57.5 43t76 16q62 0 112.5 -24t91 -52.5t71.5 -52.5t55 -24q26 0 35.5 15.5t9.5 35.5q0 24 -11.5 42t-27.5 29zM12 -81q-5 39 3.5 70t27.5 53t46 34t60 12t60 -10.5t51 -26.5t47 -34t46 -34t48 -26.5
t55 -10.5q16 0 32 9.5t29.5 23.5t22 31.5t8.5 32.5q0 30 -13 51.5t-33 39.5t-43 35t-43 37t-33 46t-13 62q0 71 43.5 103t113.5 32q39 0 59.5 -23.5t27.5 -58.5l-19 -3q-5 26 -23 46.5t-47 20.5q-39 0 -39 -41q0 -20 10 -35t25 -29.5t32 -30t32 -36t25 -48t10 -65.5
q0 -51 -17 -95t-50 -76.5t-81.5 -51.5t-112.5 -19q-51 0 -93.5 15t-78 32.5t-64 32.5t-49.5 15q-20 0 -29.5 -6.5t-13.5 -17t-3.5 -24t0.5 -28.5zM486 855h131l-172 -196h-39z" />
    <glyph glyph-name="Icircumflex" unicode="&#xce;" horiz-adv-x="650" 
d="M595 655q20 -14 32.5 -35t12.5 -50q0 -31 -14.5 -52t-36.5 -33.5t-49 -18t-52 -5.5q-52 0 -97 16.5t-84.5 37t-74.5 37t-68 16.5q-34 0 -56.5 -21.5t-22.5 -55.5q0 -25 9.5 -51.5t26.5 -48t40.5 -35.5t51.5 -14q7 0 21.5 2.5t20.5 7.5l5 -17q-5 -5 -16 -8t-25 -3
q-30 0 -57.5 11.5t-49 31.5t-34 47.5t-12.5 59.5q0 40 12.5 76.5t36 63.5t57.5 43t76 16q62 0 112.5 -24t91 -52.5t71.5 -52.5t55 -24q26 0 35.5 15.5t9.5 35.5q0 24 -11.5 42t-27.5 29zM12 -81q-5 39 3.5 70t27.5 53t46 34t60 12t60 -10.5t51 -26.5t47 -34t46 -34t48 -26.5
t55 -10.5q16 0 32 9.5t29.5 23.5t22 31.5t8.5 32.5q0 30 -13 51.5t-33 39.5t-43 35t-43 37t-33 46t-13 62q0 71 43.5 103t113.5 32q39 0 59.5 -23.5t27.5 -58.5l-19 -3q-5 26 -23 46.5t-47 20.5q-39 0 -39 -41q0 -20 10 -35t25 -29.5t32 -30t32 -36t25 -48t10 -65.5
q0 -51 -17 -95t-50 -76.5t-81.5 -51.5t-112.5 -19q-51 0 -93.5 15t-78 32.5t-64 32.5t-49.5 15q-20 0 -29.5 -6.5t-13.5 -17t-3.5 -24t0.5 -28.5zM278 838v1h106l-1 -1l95 -130h-32l-115 72l-116 -72h-31z" />
    <glyph glyph-name="Idieresis" unicode="&#xcf;" horiz-adv-x="650" 
d="M595 655q20 -14 32.5 -35t12.5 -50q0 -31 -14.5 -52t-36.5 -33.5t-49 -18t-52 -5.5q-52 0 -97 16.5t-84.5 37t-74.5 37t-68 16.5q-34 0 -56.5 -21.5t-22.5 -55.5q0 -25 9.5 -51.5t26.5 -48t40.5 -35.5t51.5 -14q7 0 21.5 2.5t20.5 7.5l5 -17q-5 -5 -16 -8t-25 -3
q-30 0 -57.5 11.5t-49 31.5t-34 47.5t-12.5 59.5q0 40 12.5 76.5t36 63.5t57.5 43t76 16q62 0 112.5 -24t91 -52.5t71.5 -52.5t55 -24q26 0 35.5 15.5t9.5 35.5q0 24 -11.5 42t-27.5 29zM12 -81q-5 39 3.5 70t27.5 53t46 34t60 12t60 -10.5t51 -26.5t47 -34t46 -34t48 -26.5
t55 -10.5q16 0 32 9.5t29.5 23.5t22 31.5t8.5 32.5q0 30 -13 51.5t-33 39.5t-43 35t-43 37t-33 46t-13 62q0 71 43.5 103t113.5 32q39 0 59.5 -23.5t27.5 -58.5l-19 -3q-5 26 -23 46.5t-47 20.5q-39 0 -39 -41q0 -20 10 -35t25 -29.5t32 -30t32 -36t25 -48t10 -65.5
q0 -51 -17 -95t-50 -76.5t-81.5 -51.5t-112.5 -19q-51 0 -93.5 15t-78 32.5t-64 32.5t-49.5 15q-20 0 -29.5 -6.5t-13.5 -17t-3.5 -24t0.5 -28.5zM425 817q12 4 29 4q29 0 50 -15q8 -14 8 -28q0 -9 -14 -27.5t-32 -38t-36 -35t-27 -19.5q-9 0 -19 5q2 17 3.5 39t5 43.5
t11 41t21.5 30.5zM597 814q26 0 38.5 -7t24.5 -31q-2 -17 -16 -35t-33.5 -35t-40.5 -30.5t-36 -20.5l-8 6q3 16 6 42t10.5 51t20 42.5t34.5 17.5z" />
    <glyph glyph-name="Eth" unicode="&#xd0;" horiz-adv-x="800" 
d="M518 361q2 -12 2.5 -24.5t0.5 -24.5q-12 -7 -30.5 -15t-40.5 -17q-11 -49 -45 -87t-84 -51q15 -17 38.5 -40.5t50 -44.5t54.5 -36t52 -15q43 0 68 27.5t38.5 67t17.5 82.5t4 73q0 78 -18.5 151.5t-57.5 131t-100.5 92.5t-147.5 35q-65 0 -125 -25t-104 -72
q-12 -12 -18.5 -31.5t-9.5 -40.5t-4 -41.5t-1 -36.5q-11 4 -16.5 8t-7.5 8.5t-2.5 11.5t-0.5 18q0 15 3 33.5t10 32.5q23 47 56 77.5t73 48t86 24.5t95 7q81 0 159 -20t139.5 -62.5t99.5 -108t38 -156.5q0 -66 -23 -130t-64.5 -114.5t-99 -82t-127.5 -31.5q-56 0 -111 15.5
t-105 34t-94 34t-78 15.5q-20 0 -32 -7t-17.5 -18.5t-5.5 -27t3 -32.5q-14 -2 -20 6t-6 21q0 36 13 66t35.5 52.5t53 35t65.5 12.5q17 0 34 -5t33 -10.5t30 -10.5t25 -5q19 0 37 10.5t18 32.5q0 9 -4 18t-10 18q-26 -10 -49 -17t-38 -12q0 11 0.5 23t2.5 23q9 4 22 9t27 12
q-14 13 -28.5 27.5t-26.5 29.5t-20 31t-8 33q0 83 45 130.5t130 47.5q21 0 40 -10.5t34 -27t24 -37t9 -40.5l-16 5q-9 14 -15.5 29.5t-15.5 28.5t-22 21.5t-35 8.5h-26t-26 -3t-19.5 -11.5t-7.5 -25.5q0 -24 17 -46.5t39 -44.5t43.5 -43t29.5 -41q20 8 37.5 14t30.5 9z" />
    <glyph glyph-name="Ntilde" unicode="&#xd1;" horiz-adv-x="891" 
d="M144 373q-32 11 -57 23t-42 30t-26 44.5t-9 66.5q0 37 14 66.5t38 50.5t57.5 32.5t72.5 11.5q72 -1 125 -32.5t85 -85.5q9 19 23 39.5t34.5 37.5t48 28.5t63.5 11.5q54 0 93 -23.5t68.5 -52t52 -52t43.5 -23.5q19 0 24 13.5t5 29.5q0 12 -4 24t-14 19l9 11q15 -8 22 -25
t7 -31q0 -30 -10 -47t-25.5 -27.5t-33 -17.5t-33 -17.5t-25.5 -26t-10 -43.5v-99l1 -167q4 -3 15 -9t24 -12.5t24 -11t15 -4.5q14 0 27 12.5t18 27.5l16 -5q0 -13 -20.5 -34t-48 -42.5t-54.5 -40t-39 -26.5q-23 17 -48.5 26t-52.5 15q-6 2 -14 2.5t-8 8.5l-3 283
q0 20 18.5 38.5t43 36t49.5 34.5t37 33q-37 2 -66.5 26.5t-57 52.5t-56.5 51t-64 23q-22 0 -44.5 -18t-39.5 -48q20 -40 29.5 -87t10.5 -101q0 -57 -18 -123.5t-53.5 -123t-88 -94t-119.5 -37.5q-26 0 -51.5 4t-46 15t-33.5 30.5t-13 51.5q0 38 20 58.5t58 20.5q35 0 55 -23
t20 -56q0 -23 -12 -43.5t-33 -30.5q23 -5 42 -5q45 0 68 22t32 52t9 61.5v50.5l2 288q0 33 -3.5 65.5t-14.5 58.5t-31.5 42.5t-53.5 16.5q-32 0 -60.5 -10.5t-50.5 -29t-35 -43.5t-13 -55q0 -36 8.5 -59.5t25 -39t40 -26t52.5 -20.5zM582 859q3 0 4 -3.5t-1 -14.5
q-3 -15 -9.5 -30.5t-16.5 -28.5t-23.5 -21.5t-31.5 -8.5q-26 0 -44.5 5.5t-33.5 10.5q-18 6 -31.5 9.5t-21.5 3.5q-12 0 -23.5 -9t-15.5 -28q-1 -5 -7 -5h-18q-7 0 -3 17q7 40 29.5 68t53.5 28q21 0 41.5 -6t34.5 -10q20 -5 34.5 -9.5t25.5 -4.5q17 0 23.5 9t9.5 22q1 6 7 6
h17z" />
    <glyph glyph-name="Ograve" unicode="&#xd2;" horiz-adv-x="721" 
d="M26 5q-16 27 -16 57q0 10 3 24.5t11.5 29t24 28t40.5 23.5q-28 6 -46 17.5t-28 24.5q-1 1 5 9.5t8 10.5q20 -16 39.5 -27.5t51.5 -11.5q51 0 75 18.5t24 50.5q0 13 -10 24t-25 21t-33 20.5t-33 24.5t-25 32t-10 43q0 57 24.5 104.5t58.5 85.5q-32 15 -51.5 38t-19.5 58
h16q0 -17 12.5 -29.5t35.5 -12.5q34 0 60 4.5t49.5 10t47 10t52.5 4.5q82 0 146.5 -30.5t108 -82.5t66.5 -121t23 -146q0 -72 -20 -130.5t-59 -100t-96 -63.5t-130 -22q-54 0 -106 15.5t-96.5 33.5t-80 33.5t-56.5 15.5q-14 0 -25 -9.5t-11 -23.5q0 -20 5.5 -30.5
t10.5 -27.5zM417 543q-25 10 -54.5 17t-60.5 13.5t-61.5 14t-57.5 18.5q-14 -19 -27 -41.5t-13 -33.5q0 -14 11.5 -25t28.5 -22.5t37.5 -23.5t37.5 -27.5t28.5 -35t11.5 -45.5q0 -20 -7 -43t-20 -46.5t-30.5 -44t-39.5 -34.5q22 -1 49.5 -12t56 -26.5t57.5 -33t55 -33
t47.5 -25.5t35.5 -10q31 0 60.5 16t51.5 41.5t35.5 57t13.5 61.5q0 59 -23.5 111t-59.5 93.5t-79.5 72t-83.5 46.5zM466 718h-39l-172 196h131z" />
    <glyph glyph-name="Oacute" unicode="&#xd3;" horiz-adv-x="721" 
d="M26 5q-16 27 -16 57q0 10 3 24.5t11.5 29t24 28t40.5 23.5q-28 6 -46 17.5t-28 24.5q-1 1 5 9.5t8 10.5q20 -16 39.5 -27.5t51.5 -11.5q51 0 75 18.5t24 50.5q0 13 -10 24t-25 21t-33 20.5t-33 24.5t-25 32t-10 43q0 57 24.5 104.5t58.5 85.5q-32 15 -51.5 38t-19.5 58
h16q0 -17 12.5 -29.5t35.5 -12.5q34 0 60 4.5t49.5 10t47 10t52.5 4.5q82 0 146.5 -30.5t108 -82.5t66.5 -121t23 -146q0 -72 -20 -130.5t-59 -100t-96 -63.5t-130 -22q-54 0 -106 15.5t-96.5 33.5t-80 33.5t-56.5 15.5q-14 0 -25 -9.5t-11 -23.5q0 -20 5.5 -30.5
t10.5 -27.5zM417 543q-25 10 -54.5 17t-60.5 13.5t-61.5 14t-57.5 18.5q-14 -19 -27 -41.5t-13 -33.5q0 -14 11.5 -25t28.5 -22.5t37.5 -23.5t37.5 -27.5t28.5 -35t11.5 -45.5q0 -20 -7 -43t-20 -46.5t-30.5 -44t-39.5 -34.5q22 -1 49.5 -12t56 -26.5t57.5 -33t55 -33
t47.5 -25.5t35.5 -10q31 0 60.5 16t51.5 41.5t35.5 57t13.5 61.5q0 59 -23.5 111t-59.5 93.5t-79.5 72t-83.5 46.5zM335 916h131l-172 -196h-39z" />
    <glyph glyph-name="Ocircumflex" unicode="&#xd4;" horiz-adv-x="721" 
d="M26 5q-16 27 -16 57q0 10 3 24.5t11.5 29t24 28t40.5 23.5q-28 6 -46 17.5t-28 24.5q-1 1 5 9.5t8 10.5q20 -16 39.5 -27.5t51.5 -11.5q51 0 75 18.5t24 50.5q0 13 -10 24t-25 21t-33 20.5t-33 24.5t-25 32t-10 43q0 57 24.5 104.5t58.5 85.5q-32 15 -51.5 38t-19.5 58
h16q0 -17 12.5 -29.5t35.5 -12.5q34 0 60 4.5t49.5 10t47 10t52.5 4.5q82 0 146.5 -30.5t108 -82.5t66.5 -121t23 -146q0 -72 -20 -130.5t-59 -100t-96 -63.5t-130 -22q-54 0 -106 15.5t-96.5 33.5t-80 33.5t-56.5 15.5q-14 0 -25 -9.5t-11 -23.5q0 -20 5.5 -30.5
t10.5 -27.5zM417 543q-25 10 -54.5 17t-60.5 13.5t-61.5 14t-57.5 18.5q-14 -19 -27 -41.5t-13 -33.5q0 -14 11.5 -25t28.5 -22.5t37.5 -23.5t37.5 -27.5t28.5 -35t11.5 -45.5q0 -20 -7 -43t-20 -46.5t-30.5 -44t-39.5 -34.5q22 -1 49.5 -12t56 -26.5t57.5 -33t55 -33
t47.5 -25.5t35.5 -10q31 0 60.5 16t51.5 41.5t35.5 57t13.5 61.5q0 59 -23.5 111t-59.5 93.5t-79.5 72t-83.5 46.5zM313 855v1h106l-1 -1l95 -130h-32l-115 72l-116 -72h-31z" />
    <glyph glyph-name="Otilde" unicode="&#xd5;" horiz-adv-x="721" 
d="M26 5q-16 27 -16 57q0 10 3 24.5t11.5 29t24 28t40.5 23.5q-28 6 -46 17.5t-28 24.5q-1 1 5 9.5t8 10.5q20 -16 39.5 -27.5t51.5 -11.5q51 0 75 18.5t24 50.5q0 13 -10 24t-25 21t-33 20.5t-33 24.5t-25 32t-10 43q0 57 24.5 104.5t58.5 85.5q-32 15 -51.5 38t-19.5 58
h16q0 -17 12.5 -29.5t35.5 -12.5q34 0 60 4.5t49.5 10t47 10t52.5 4.5q82 0 146.5 -30.5t108 -82.5t66.5 -121t23 -146q0 -72 -20 -130.5t-59 -100t-96 -63.5t-130 -22q-54 0 -106 15.5t-96.5 33.5t-80 33.5t-56.5 15.5q-14 0 -25 -9.5t-11 -23.5q0 -20 5.5 -30.5
t10.5 -27.5zM417 543q-25 10 -54.5 17t-60.5 13.5t-61.5 14t-57.5 18.5q-14 -19 -27 -41.5t-13 -33.5q0 -14 11.5 -25t28.5 -22.5t37.5 -23.5t37.5 -27.5t28.5 -35t11.5 -45.5q0 -20 -7 -43t-20 -46.5t-30.5 -44t-39.5 -34.5q22 -1 49.5 -12t56 -26.5t57.5 -33t55 -33
t47.5 -25.5t35.5 -10q31 0 60.5 16t51.5 41.5t35.5 57t13.5 61.5q0 59 -23.5 111t-59.5 93.5t-79.5 72t-83.5 46.5zM497 859q3 0 4 -3.5t-1 -14.5q-3 -15 -9.5 -30.5t-16.5 -28.5t-23.5 -21.5t-31.5 -8.5q-26 0 -44.5 5.5t-33.5 10.5q-18 6 -31.5 9.5t-21.5 3.5
q-12 0 -23.5 -9t-15.5 -28q-1 -5 -7 -5h-18q-7 0 -3 17q7 40 29.5 68t53.5 28q21 0 41.5 -6t34.5 -10q20 -5 34.5 -9.5t25.5 -4.5q17 0 23.5 9t9.5 22q1 6 7 6h17z" />
    <glyph glyph-name="Odieresis" unicode="&#xd6;" horiz-adv-x="721" 
d="M26 5q-16 27 -16 57q0 10 3 24.5t11.5 29t24 28t40.5 23.5q-28 6 -46 17.5t-28 24.5q-1 1 5 9.5t8 10.5q20 -16 39.5 -27.5t51.5 -11.5q51 0 75 18.5t24 50.5q0 13 -10 24t-25 21t-33 20.5t-33 24.5t-25 32t-10 43q0 57 24.5 104.5t58.5 85.5q-32 15 -51.5 38t-19.5 58
h16q0 -17 12.5 -29.5t35.5 -12.5q34 0 60 4.5t49.5 10t47 10t52.5 4.5q82 0 146.5 -30.5t108 -82.5t66.5 -121t23 -146q0 -72 -20 -130.5t-59 -100t-96 -63.5t-130 -22q-54 0 -106 15.5t-96.5 33.5t-80 33.5t-56.5 15.5q-14 0 -25 -9.5t-11 -23.5q0 -20 5.5 -30.5
t10.5 -27.5zM417 543q-25 10 -54.5 17t-60.5 13.5t-61.5 14t-57.5 18.5q-14 -19 -27 -41.5t-13 -33.5q0 -14 11.5 -25t28.5 -22.5t37.5 -23.5t37.5 -27.5t28.5 -35t11.5 -45.5q0 -20 -7 -43t-20 -46.5t-30.5 -44t-39.5 -34.5q22 -1 49.5 -12t56 -26.5t57.5 -33t55 -33
t47.5 -25.5t35.5 -10q31 0 60.5 16t51.5 41.5t35.5 57t13.5 61.5q0 59 -23.5 111t-59.5 93.5t-79.5 72t-83.5 46.5zM328 879q12 4 29 4q29 0 50 -15q8 -14 8 -28q0 -9 -14 -27.5t-32 -38t-36 -35t-27 -19.5q-9 0 -19 5q2 17 3.5 39t5 43.5t11 41t21.5 30.5zM500 876
q26 0 38.5 -7t24.5 -31q-2 -17 -16 -35t-33.5 -35t-40.5 -30.5t-36 -20.5l-8 6q3 16 6 42t10.5 51t20 42.5t34.5 17.5z" />
    <glyph glyph-name="multiply" unicode="&#xd7;" 
d="M397 40l-149 147l-148 -147l-47 60l144 138l-144 139l54 57l145 -145l145 145l50 -57l-144 -137l144 -140z" />
    <glyph glyph-name="Oslash" unicode="&#xd8;" horiz-adv-x="721" 
d="M26 5q-16 27 -16 57q0 10 3 24.5t11.5 29t24 28t40.5 23.5q-28 6 -46 17.5t-28 24.5q-1 1 5 9.5t8 10.5q20 -16 39.5 -27.5t51.5 -11.5q51 0 75 18.5t24 50.5q0 13 -10 24t-25 21t-33 20.5t-33 24.5t-25 32t-10 43q0 57 24.5 104.5t58.5 85.5q-32 15 -51.5 38t-19.5 58
h16q0 -17 12.5 -29.5t35.5 -12.5q34 0 60 4.5t49.5 10t47 10t52.5 4.5q82 0 146.5 -30.5t108 -82.5t66.5 -121t23 -146q0 -72 -20 -130.5t-59 -100t-96 -63.5t-130 -22q-54 0 -106 15.5t-96.5 33.5t-80 33.5t-56.5 15.5q-14 0 -25 -9.5t-11 -23.5q0 -20 5.5 -30.5
t10.5 -27.5zM417 543q-25 10 -54.5 17t-60.5 13.5t-61.5 14t-57.5 18.5q-14 -19 -27 -41.5t-13 -33.5q0 -14 11.5 -25t28.5 -22.5t37.5 -23.5t37.5 -27.5t28.5 -35t11.5 -45.5q0 -20 -7 -43t-20 -46.5t-30.5 -44t-39.5 -34.5q22 -1 49.5 -12t56 -26.5t57.5 -33t55 -33
t47.5 -25.5t35.5 -10q31 0 60.5 16t51.5 41.5t35.5 57t13.5 61.5q0 59 -23.5 111t-59.5 93.5t-79.5 72t-83.5 46.5zM475 719q4 9 13 6l50 -21q7 -3 1 -17l-294 -693q-5 -12 -13 -8l-49 22q-8 4 -1 18z" />
    <glyph glyph-name="Ugrave" unicode="&#xd9;" horiz-adv-x="692" 
d="M424 544q0 12 -6 22t-15 17.5t-19.5 11.5t-19.5 4v21q19 3 38 11t35.5 20t29 26.5t18.5 29.5h18q6 -15 18.5 -29.5t29 -26.5t35.5 -20t38 -11v-21q-9 0 -19.5 -4t-19.5 -11.5t-15 -17.5t-6 -22v-22l-2 -379q18 -15 36.5 -26t32.5 -11q13 0 23.5 10.5t9.5 27.5h18
q1 -30 -15 -48.5t-39.5 -33.5t-50 -29.5t-45.5 -35.5q-11 12 -26 27t-33.5 28t-40 22t-44.5 9q-29 0 -52 -7.5t-43 -19.5t-37.5 -27t-35.5 -30q-11 12 -25 28t-31.5 30.5t-38 24.5t-43.5 10t-38.5 -11t-15.5 -34q0 -8 5.5 -17t11.5 -11l-12 -13q-13 8 -21 20.5t-8 23.5
q0 31 10 50.5t25.5 31t35 18l37.5 12.5v382q0 23 -18 39t-42 16q-8 0 -15 -7t-6 -17l-19 -1q-2 22 11.5 35t36.5 18q40 9 71 30t42 50h18q6 -15 18.5 -29.5t29 -26.5t35.5 -20t38 -11v-21q-9 0 -19.5 -4t-19.5 -11.5t-15 -17.5t-6 -22v-391q9 -4 19.5 -11t20 -14.5t17 -16
t11.5 -15.5q32 7 61 30.5t43 55.5v362v0zM369 656h-39l-172 196h131z" />
    <glyph glyph-name="Uacute" unicode="&#xda;" horiz-adv-x="692" 
d="M424 544q0 12 -6 22t-15 17.5t-19.5 11.5t-19.5 4v21q19 3 38 11t35.5 20t29 26.5t18.5 29.5h18q6 -15 18.5 -29.5t29 -26.5t35.5 -20t38 -11v-21q-9 0 -19.5 -4t-19.5 -11.5t-15 -17.5t-6 -22v-22l-2 -379q18 -15 36.5 -26t32.5 -11q13 0 23.5 10.5t9.5 27.5h18
q1 -30 -15 -48.5t-39.5 -33.5t-50 -29.5t-45.5 -35.5q-11 12 -26 27t-33.5 28t-40 22t-44.5 9q-29 0 -52 -7.5t-43 -19.5t-37.5 -27t-35.5 -30q-11 12 -25 28t-31.5 30.5t-38 24.5t-43.5 10t-38.5 -11t-15.5 -34q0 -8 5.5 -17t11.5 -11l-12 -13q-13 8 -21 20.5t-8 23.5
q0 31 10 50.5t25.5 31t35 18l37.5 12.5v382q0 23 -18 39t-42 16q-8 0 -15 -7t-6 -17l-19 -1q-2 22 11.5 35t36.5 18q40 9 71 30t42 50h18q6 -15 18.5 -29.5t29 -26.5t35.5 -20t38 -11v-21q-9 0 -19.5 -4t-19.5 -11.5t-15 -17.5t-6 -22v-391q9 -4 19.5 -11t20 -14.5t17 -16
t11.5 -15.5q32 7 61 30.5t43 55.5v362v0zM380 855h131l-172 -196h-39z" />
    <glyph glyph-name="Ucircumflex" unicode="&#xdb;" horiz-adv-x="692" 
d="M424 544q0 12 -6 22t-15 17.5t-19.5 11.5t-19.5 4v21q19 3 38 11t35.5 20t29 26.5t18.5 29.5h18q6 -15 18.5 -29.5t29 -26.5t35.5 -20t38 -11v-21q-9 0 -19.5 -4t-19.5 -11.5t-15 -17.5t-6 -22v-22l-2 -379q18 -15 36.5 -26t32.5 -11q13 0 23.5 10.5t9.5 27.5h18
q1 -30 -15 -48.5t-39.5 -33.5t-50 -29.5t-45.5 -35.5q-11 12 -26 27t-33.5 28t-40 22t-44.5 9q-29 0 -52 -7.5t-43 -19.5t-37.5 -27t-35.5 -30q-11 12 -25 28t-31.5 30.5t-38 24.5t-43.5 10t-38.5 -11t-15.5 -34q0 -8 5.5 -17t11.5 -11l-12 -13q-13 8 -21 20.5t-8 23.5
q0 31 10 50.5t25.5 31t35 18l37.5 12.5v382q0 23 -18 39t-42 16q-8 0 -15 -7t-6 -17l-19 -1q-2 22 11.5 35t36.5 18q40 9 71 30t42 50h18q6 -15 18.5 -29.5t29 -26.5t35.5 -20t38 -11v-21q-9 0 -19.5 -4t-19.5 -11.5t-15 -17.5t-6 -22v-391q9 -4 19.5 -11t20 -14.5t17 -16
t11.5 -15.5q32 7 61 30.5t43 55.5v362v0zM290 876v1h106l-1 -1l95 -130h-32l-115 72l-116 -72h-31z" />
    <glyph glyph-name="Udieresis" unicode="&#xdc;" horiz-adv-x="692" 
d="M424 544q0 12 -6 22t-15 17.5t-19.5 11.5t-19.5 4v21q19 3 38 11t35.5 20t29 26.5t18.5 29.5h18q6 -15 18.5 -29.5t29 -26.5t35.5 -20t38 -11v-21q-9 0 -19.5 -4t-19.5 -11.5t-15 -17.5t-6 -22v-22l-2 -379q18 -15 36.5 -26t32.5 -11q13 0 23.5 10.5t9.5 27.5h18
q1 -30 -15 -48.5t-39.5 -33.5t-50 -29.5t-45.5 -35.5q-11 12 -26 27t-33.5 28t-40 22t-44.5 9q-29 0 -52 -7.5t-43 -19.5t-37.5 -27t-35.5 -30q-11 12 -25 28t-31.5 30.5t-38 24.5t-43.5 10t-38.5 -11t-15.5 -34q0 -8 5.5 -17t11.5 -11l-12 -13q-13 8 -21 20.5t-8 23.5
q0 31 10 50.5t25.5 31t35 18l37.5 12.5v382q0 23 -18 39t-42 16q-8 0 -15 -7t-6 -17l-19 -1q-2 22 11.5 35t36.5 18q40 9 71 30t42 50h18q6 -15 18.5 -29.5t29 -26.5t35.5 -20t38 -11v-21q-9 0 -19.5 -4t-19.5 -11.5t-15 -17.5t-6 -22v-391q9 -4 19.5 -11t20 -14.5t17 -16
t11.5 -15.5q32 7 61 30.5t43 55.5v362v0zM287 838q12 4 29 4q29 0 50 -15q8 -14 8 -28q0 -9 -14 -27.5t-32 -38t-36 -35t-27 -19.5q-9 0 -19 5q2 17 3.5 39t5 43.5t11 41t21.5 30.5zM459 835q26 0 38.5 -7t24.5 -31q-2 -17 -16 -35t-33.5 -35t-40.5 -30.5t-36 -20.5l-8 6
q3 16 6 42t10.5 51t20 42.5t34.5 17.5z" />
    <glyph glyph-name="Yacute" unicode="&#xdd;" horiz-adv-x="733" 
d="M217 198q4 1 11 8t14 18t11.5 24.5t4.5 28.5l5 258q0 19 -5.5 42t-16.5 42.5t-28.5 32.5t-42.5 13q-59 0 -95.5 -34.5t-36.5 -95.5q0 -25 9 -44t24 -31.5t34.5 -18.5t41.5 -6q4 0 7 0.5t7 0.5l3 -31q-5 -1 -10 -1h-10q-31 0 -56 10.5t-42 28.5t-26.5 41.5t-9.5 48.5
q0 39 13 68.5t36 49.5t54 30t68 10q56 0 102.5 -15.5t78.5 -50.5q18 30 52 48.5t70 18.5q44 0 79 -16.5t61.5 -44.5t45 -64.5t30.5 -76t17.5 -80t5.5 -76.5q0 -102 -18.5 -198.5t-65.5 -172t-129 -121t-208 -45.5q-94 0 -138 24t-44 81q0 30 21 54.5t59 24.5q79 0 79 -82
q0 -23 -12.5 -41.5t-30.5 -27.5q12 -5 27 -6.5t29 -1.5h12q130 0 190 61t60 182v462q0 44 -6.5 71t-16.5 42t-23 20t-25 5q-39 0 -63 -17t-39 -46q20 -30 31.5 -72t11.5 -97q0 -60 -15 -100t-40 -67t-56.5 -45t-64.5 -33q21 -7 43 -17.5t42 -22t37 -23.5t30 -21q6 6 14 13.5
t17 15t17 13.5t13 9l18 -15q-28 -14 -51.5 -39t-44 -49t-38.5 -42t-33 -18q-6 0 -28 19t-52 42.5t-63.5 42.5t-62.5 19q-23 0 -36 -16t-13 -36q0 -13 6.5 -25t16.5 -20l-14 -15q-14 12 -22 26.5t-8 37.5q0 68 43.5 100t114.5 32q5 0 11.5 -1t12.5 -2l-1 2v0zM414 855h131
l-172 -196h-39z" />
    <glyph glyph-name="Thorn" unicode="&#xde;" horiz-adv-x="705" 
d="M382 462q19 12 50 27t61.5 29t56.5 23.5t37 9.5q24 0 47.5 -4t43.5 -14q-6 -9 -22 -24t-32.5 -31.5t-29.5 -32.5t-13 -26q0 -18 17 -33.5t37.5 -33t37.5 -39t17 -51.5q0 -22 -17 -50.5t-43.5 -58t-58 -58t-60.5 -51t-50.5 -36t-28.5 -13.5q-2 0 -9 2t-15.5 5t-17 5.5
t-13.5 3.5q-2 -1 -7.5 -15t-13 -35t-15.5 -46t-15.5 -47.5l-13.5 -40.5t-9 -24q-6 2 -13 4.5t-11 8.5q-6 11 -10.5 40.5t-9 63.5t-9.5 67t-12 51q-6 6 -19.5 11.5t-29 9.5t-30.5 6t-24 2q-13 0 -21.5 -5.5t-15 -14t-12.5 -18.5t-13 -18q-5 0 -9.5 1.5t-9.5 3.5q1 5 9.5 18
t20 30.5t25.5 37t27 37t22.5 30t13.5 15.5q13 4 26 2t26 -2q6 91 6 184.5v184.5q0 34 -2 58t-11.5 39.5t-30.5 22.5t-58 7q-18 0 -36 -13t-32 -31.5t-22.5 -40t-8.5 -37.5q0 -14 4.5 -29.5t12 -29.5t18 -26t23.5 -18q11 -5 22 -6.5t22 -7.5q1 -4 1 -10l-1 -15
q-57 7 -89 45.5t-32 94.5q0 40 13.5 68t36.5 45t54.5 25t67.5 8q38 0 64 -5t46.5 -16.5t39.5 -29.5t43 -45q10 16 28.5 33t39.5 31.5t42 23t36 7.5l21 -36q-35 1 -64.5 -9t-50.5 -26.5t-32.5 -35.5t-11.5 -35zM542 110q7 4 17 11t19 15.5t15.5 18.5t6.5 19q0 14 -15.5 31
t-34.5 35t-34.5 36.5t-15.5 35.5q0 13 6 31.5t16.5 37.5t23 36t26.5 27q2 4 4.5 7t2.5 7q0 10 -23 12.5t-55 -1.5t-65.5 -12t-53.5 -19v-230q0 -16 1 -31.5t3 -31.5q4 -3 25 -9t45.5 -12t46 -10.5t26.5 -4.5z" />
    <glyph glyph-name="eszett" unicode="&#xdf;" horiz-adv-x="425" 
d="M347 693q-11 -38 -28 -73t-30 -72q-22 -5 -39 -5q-29 0 -58.5 2t-58.5 6q-6 -24 -15.5 -47t-17.5 -46q33 -12 46.5 -19t19.5 -12.5t11 -11.5t22 -15q10 0 24.5 9.5t29 21.5t27 25t18.5 21q5 6 7 14.5t5 16.5t8 14t15 7q-2 -11 -5.5 -22t-5.5 -22q12 -18 26 -30.5
t27 -25.5t21.5 -30.5t8.5 -45.5q0 -19 -7.5 -34t-18.5 -28.5t-23.5 -26t-22.5 -26.5q13 -15 27.5 -32t26.5 -35.5t20 -38.5t8 -42q0 -37 -15.5 -70t-41 -57.5t-59 -39t-69.5 -14.5q-16 0 -32 2l-32 4q-5 -11 -10.5 -28.5t-12 -35t-15 -31.5t-19.5 -17q-13 58 -29 118.5
t-18 119.5q-2 77 -2.5 153.5t-0.5 153.5q-12 4 -25 4.5t-24 6.5q11 21 28 37.5t29 36.5q29 51 51 108t45 111q22 4 43.5 3t43.5 -1h32.5t16.5 3t12 10.5t20 22.5zM194 239q0 -14 1 -27.5t4 -27.5q15 4 36 13t39.5 21.5t32 28.5t13.5 34q0 7 -10.5 22.5t-25 32.5t-28 31.5
t-19.5 18.5l-8 1q-15 0 -27 -12q-3 -3 -4.5 -22t-2 -42t-1 -44t-0.5 -28zM194 159q-5 -28 -5 -55.5v-55.5q0 -30 -5.5 -54.5t-11.5 -53.5q9 -5 18.5 -8.5t20.5 -3.5q12 0 29 3t33 9.5t27 17.5t11 28q0 15 -9 44.5t-23 58.5t-31.5 51t-34.5 22q-10 0 -19 -3z" />
    <glyph glyph-name="agrave" unicode="&#xe0;" horiz-adv-x="452" 
d="M445 86q-13 -8 -33.5 -22.5t-40 -28.5t-34 -24.5t-15.5 -10.5q-12 0 -25 8.5t-24 21t-19 26.5t-11 24q-7 -4 -26 -17t-39.5 -27.5t-37 -26t-18.5 -11.5q-1 0 -17.5 9t-36 20.5t-36.5 22t-19 13.5l-0.5 15t-1 37.5t-0.5 49t-0.5 50.5t-0.5 42v23q0 19 14 27q31 17 62 34.5
t61 37.5q23 15 42.5 35.5t42.5 35.5q43 -33 82.5 -47.5t92.5 -21.5v-19q-15 -2 -26.5 -15.5t-11.5 -28.5q0 -52 0.5 -104t2.5 -104q4 -8 12 -17.5t18 -9.5q6 0 16.5 6t19.5 11zM158 359q-7 0 -13 -4t-6 -12v-208q0 -5 8.5 -13.5t19.5 -16.5t21.5 -14.5t15.5 -6.5
q16 0 24.5 9t17.5 20l1 10q0 9 -0.5 37.5t-2 59t-3.5 56.5t-4 31q-5 4 -16 12.5t-23.5 17.5t-23.5 15.5t-16 6.5zM255 469h-39l-172 196h131z" />
    <glyph glyph-name="aacute" unicode="&#xe1;" horiz-adv-x="452" 
d="M445 86q-13 -8 -33.5 -22.5t-40 -28.5t-34 -24.5t-15.5 -10.5q-12 0 -25 8.5t-24 21t-19 26.5t-11 24q-7 -4 -26 -17t-39.5 -27.5t-37 -26t-18.5 -11.5q-1 0 -17.5 9t-36 20.5t-36.5 22t-19 13.5l-0.5 15t-1 37.5t-0.5 49t-0.5 50.5t-0.5 42v23q0 19 14 27q31 17 62 34.5
t61 37.5q23 15 42.5 35.5t42.5 35.5q43 -33 82.5 -47.5t92.5 -21.5v-19q-15 -2 -26.5 -15.5t-11.5 -28.5q0 -52 0.5 -104t2.5 -104q4 -8 12 -17.5t18 -9.5q6 0 16.5 6t19.5 11zM158 359q-7 0 -13 -4t-6 -12v-208q0 -5 8.5 -13.5t19.5 -16.5t21.5 -14.5t15.5 -6.5
q16 0 24.5 9t17.5 20l1 10q0 9 -0.5 37.5t-2 59t-3.5 56.5t-4 31q-5 4 -16 12.5t-23.5 17.5t-23.5 15.5t-16 6.5zM287 668h131l-172 -196h-39z" />
    <glyph glyph-name="acircumflex" unicode="&#xe2;" horiz-adv-x="452" 
d="M445 86q-13 -8 -33.5 -22.5t-40 -28.5t-34 -24.5t-15.5 -10.5q-12 0 -25 8.5t-24 21t-19 26.5t-11 24q-7 -4 -26 -17t-39.5 -27.5t-37 -26t-18.5 -11.5q-1 0 -17.5 9t-36 20.5t-36.5 22t-19 13.5l-0.5 15t-1 37.5t-0.5 49t-0.5 50.5t-0.5 42v23q0 19 14 27q31 17 62 34.5
t61 37.5q23 15 42.5 35.5t42.5 35.5q43 -33 82.5 -47.5t92.5 -21.5v-19q-15 -2 -26.5 -15.5t-11.5 -28.5q0 -52 0.5 -104t2.5 -104q4 -8 12 -17.5t18 -9.5q6 0 16.5 6t19.5 11zM158 359q-7 0 -13 -4t-6 -12v-208q0 -5 8.5 -13.5t19.5 -16.5t21.5 -14.5t15.5 -6.5
q16 0 24.5 9t17.5 20l1 10q0 9 -0.5 37.5t-2 59t-3.5 56.5t-4 31q-5 4 -16 12.5t-23.5 17.5t-23.5 15.5t-16 6.5zM183 602v1h106l-1 -1l95 -130h-32l-115 72l-116 -72h-31z" />
    <glyph glyph-name="atilde" unicode="&#xe3;" horiz-adv-x="452" 
d="M445 86q-13 -8 -33.5 -22.5t-40 -28.5t-34 -24.5t-15.5 -10.5q-12 0 -25 8.5t-24 21t-19 26.5t-11 24q-7 -4 -26 -17t-39.5 -27.5t-37 -26t-18.5 -11.5q-1 0 -17.5 9t-36 20.5t-36.5 22t-19 13.5l-0.5 15t-1 37.5t-0.5 49t-0.5 50.5t-0.5 42v23q0 19 14 27q31 17 62 34.5
t61 37.5q23 15 42.5 35.5t42.5 35.5q43 -33 82.5 -47.5t92.5 -21.5v-19q-15 -2 -26.5 -15.5t-11.5 -28.5q0 -52 0.5 -104t2.5 -104q4 -8 12 -17.5t18 -9.5q6 0 16.5 6t19.5 11zM158 359q-7 0 -13 -4t-6 -12v-208q0 -5 8.5 -13.5t19.5 -16.5t21.5 -14.5t15.5 -6.5
q16 0 24.5 9t17.5 20l1 10q0 9 -0.5 37.5t-2 59t-3.5 56.5t-4 31q-5 4 -16 12.5t-23.5 17.5t-23.5 15.5t-16 6.5zM362 612q3 0 4 -3.5t-1 -14.5q-3 -15 -9.5 -30.5t-16.5 -28.5t-23.5 -21.5t-31.5 -8.5q-26 0 -44.5 5.5t-33.5 10.5q-18 6 -31.5 9.5t-21.5 3.5
q-12 0 -23.5 -9t-15.5 -28q-1 -5 -7 -5h-18q-7 0 -3 17q7 40 29.5 68t53.5 28q21 0 41.5 -6t34.5 -10q20 -5 34.5 -9.5t25.5 -4.5q17 0 23.5 9t9.5 22q1 6 7 6h17z" />
    <glyph glyph-name="adieresis" unicode="&#xe4;" horiz-adv-x="450" 
d="M158 625q12 4 29 4q29 0 50 -15q8 -14 8 -28q0 -9 -14 -27.5t-32 -38t-36 -35t-27 -19.5q-9 0 -19 5q2 17 3.5 39t5 43.5t11 41t21.5 30.5zM330 622q26 0 38.5 -7t24.5 -31q-2 -17 -16 -35t-33.5 -35t-40.5 -30.5t-36 -20.5l-8 6q3 16 6 42t10.5 51t20 42.5t34.5 17.5z
M235 427q6 0 12.5 -4t11.5 -7q25 -15 41.5 -23t31.5 -13t32.5 -8.5t45.5 -9.5q-3 -11 -6.5 -16t-7.5 -7t-9.5 -4.5t-12.5 -8.5q-1 -2 -1.5 -17t-1.5 -36t-1.5 -45.5t-1 -46.5t-0.5 -39v-23q0 -23 8 -35t28 -21q9 2 16.5 7t16.5 7l3 -17q-19 -18 -42 -28.5t-43 -26.5
q-3 -2 -8 -6.5t-10.5 -9t-10.5 -8t-8 -3.5t-4 3q-27 17 -48 35.5t-23 51.5q-9 -5 -26.5 -19.5t-36 -30t-35 -28t-24.5 -12.5q-5 0 -9.5 3t-8.5 5q-6 4 -21 13.5t-30.5 20t-27 20.5t-11.5 15q1 51 -1 102.5t-2 102.5q0 14 19 30t44 31.5t50.5 29t37.5 24.5q3 3 14 11.5
t23.5 17.5t23 16t13.5 7zM141 337q-5 -37 -4 -77t1 -78q0 -20 1 -39t5 -39q3 -3 11.5 -9.5t17.5 -12.5t17.5 -10.5t12.5 -4.5q23 0 32 18t9 37l-1 171q-5 3 -16.5 11t-24 16.5t-23 15t-13.5 6.5q-6 0 -12.5 -1.5t-12.5 -3.5z" />
    <glyph glyph-name="aring" unicode="&#xe5;" horiz-adv-x="452" 
d="M445 86q-13 -8 -33.5 -22.5t-40 -28.5t-34 -24.5t-15.5 -10.5q-12 0 -25 8.5t-24 21t-19 26.5t-11 24q-7 -4 -26 -17t-39.5 -27.5t-37 -26t-18.5 -11.5q-1 0 -17.5 9t-36 20.5t-36.5 22t-19 13.5l-0.5 15t-1 37.5t-0.5 49t-0.5 50.5t-0.5 42v23q0 19 14 27q31 17 62 34.5
t61 37.5q23 15 42.5 35.5t42.5 35.5q43 -33 82.5 -47.5t92.5 -21.5v-19q-15 -2 -26.5 -15.5t-11.5 -28.5q0 -52 0.5 -104t2.5 -104q4 -8 12 -17.5t18 -9.5q6 0 16.5 6t19.5 11zM158 359q-7 0 -13 -4t-6 -12v-208q0 -5 8.5 -13.5t19.5 -16.5t21.5 -14.5t15.5 -6.5
q16 0 24.5 9t17.5 20l1 10q0 9 -0.5 37.5t-2 59t-3.5 56.5t-4 31q-5 4 -16 12.5t-23.5 17.5t-23.5 15.5t-16 6.5zM221 496q-24 0 -46 5.5t-39.5 16.5t-28 27t-10.5 37q0 22 11 39.5t29.5 29.5t42.5 18.5t50 6.5q55 0 90 -23t35 -61q0 -29 -13 -47.5t-32.5 -29t-43.5 -15
t-45 -4.5zM226 530q22 0 35.5 13.5t13.5 43.5q0 29 -15 42t-32 13q-25 -1 -38 -16.5t-13 -38.5q0 -57 49 -57z" />
    <glyph glyph-name="ae" unicode="&#xe6;" horiz-adv-x="594" 
d="M467 452q11 -7 26.5 -24.5t29.5 -38t24 -41t10 -33.5q0 -6 -2 -16q-11 -11 -40 -29t-59.5 -38t-54.5 -38.5t-24 -28.5q0 -14 17 -27.5t40 -24t46 -17.5t35 -7q18 0 30 8t23 8q5 0 9 -1l1 -5q0 -11 -10 -17q-30 -17 -60 -30.5t-57 -35.5q-8 -7 -17.5 -14t-21.5 -7
q-21 10 -38.5 18t-34.5 15.5t-35 14.5t-40 15q-6 2 -8.5 8.5t-2.5 12.5v4l-8 -8q-2 4 -2 5q-7 -4 -26 -17t-39.5 -27.5t-37 -26t-18.5 -11.5q-1 0 -17.5 9t-36 20.5t-36.5 22t-19 13.5l-0.5 15t-1 37.5t-0.5 49t-0.5 50.5t-0.5 42v23q0 19 14 27q31 17 62 34.5t61 37.5
q23 15 42.5 35.5t42.5 35.5q11 -9 26.5 -19.5t32 -21t33 -20t30.5 -15.5q11 5 20 9t16 9q20 14 39.5 29t37.5 31zM158 359q-7 0 -13 -4t-6 -12v-208q0 -5 8.5 -13.5t19.5 -16.5t21.5 -14.5t15.5 -6.5q16 0 24.5 9t17.5 20l1 10q0 9 -0.5 37.5t-2 59t-3.5 56.5t-4 31
q-5 4 -16 12.5t-23.5 17.5t-23.5 15.5t-16 6.5zM385 211q8 0 19.5 6t22.5 15t18.5 19.5t7.5 18.5q0 4 -2 12q-5 7 -12.5 19t-16.5 24.5t-18 23t-16 15.5q-5 -16 -6.5 -32t-1.5 -33q0 -23 1.5 -44.5t3.5 -43.5z" />
    <glyph glyph-name="ccedilla" unicode="&#xe7;" horiz-adv-x="341" 
d="M340 102q-31 -22 -70.5 -44.5t-64.5 -43.5l-8.5 -8.5t-10.5 -4.5q-4 0 -22 9.5t-43 22.5t-52.5 25t-49.5 17q0 54 -1 109t-1 109q0 13 -1.5 22t11.5 17q52 32 103 62t102 64q17 -19 31.5 -42t34.5 -39l27 20l10 -17q-11 -9 -28 -23.5l-34 -29t-31 -24.5t-19 -10
q-13 0 -23.5 11.5t-20 25.5t-20 26.5t-22.5 14.5v-27v-42.5t0.5 -49.5t1.5 -48.5t2.5 -37.5t5.5 -18q6 -5 16.5 -10t22 -9.5t22.5 -8.5t19 -8q13 -6 26.5 -12.5t28.5 -6.5h5q7 4 20 10.5t27 14.5zM247 51l-58 -71q41 -7 63 -27.5t22 -44.5t-15.5 -42.5t-41 -30.5t-60 -18.5
t-71.5 -6.5q-12 0 -16 6t-4 14q0 9 9.5 11.5t22.5 2.5q27 0 50.5 13.5t23.5 40.5q0 19 -16 30t-46 19l80 104h57z" />
    <glyph glyph-name="egrave" unicode="&#xe8;" horiz-adv-x="345" 
d="M334 86q-32 -14 -68 -33t-58 -37q-8 -7 -17.5 -14t-21.5 -7q-21 10 -38.5 18t-34.5 15.5t-35 14.5t-40 15q-6 2 -8.5 8.5t-2.5 12.5l1 177v25.5t2 24.5q2 15 18.5 27t38.5 22.5t43.5 19.5t33.5 17q20 14 39.5 29t37.5 31q11 -7 26.5 -24.5t29.5 -38t24 -41t10 -33.5
q0 -6 -2 -16q-11 -11 -40 -29t-59.5 -38t-54.5 -38.5t-24 -28.5q0 -14 17 -28t40.5 -26t46.5 -19.5t35 -7.5q10 0 23.5 6t27.5 13zM134 203q4 2 16 11t25.5 19.5t24 20.5t10.5 16q0 4 -2 12q-5 7 -12.5 19t-16.5 24.5t-18 23t-16 15.5q-2 -8 -4 -12.5t-3.5 -10.5t-2.5 -15.5
t-1 -27.5v-95zM278 467h-39l-172 196h131z" />
    <glyph glyph-name="eacute" unicode="&#xe9;" horiz-adv-x="345" 
d="M334 86q-32 -14 -68 -33t-58 -37q-8 -7 -17.5 -14t-21.5 -7q-21 10 -38.5 18t-34.5 15.5t-35 14.5t-40 15q-6 2 -8.5 8.5t-2.5 12.5l1 177v25.5t2 24.5q2 15 18.5 27t38.5 22.5t43.5 19.5t33.5 17q20 14 39.5 29t37.5 31q11 -7 26.5 -24.5t29.5 -38t24 -41t10 -33.5
q0 -6 -2 -16q-11 -11 -40 -29t-59.5 -38t-54.5 -38.5t-24 -28.5q0 -14 17 -28t40.5 -26t46.5 -19.5t35 -7.5q10 0 23.5 6t27.5 13zM134 203q4 2 16 11t25.5 19.5t24 20.5t10.5 16q0 4 -2 12q-5 7 -12.5 19t-16.5 24.5t-18 23t-16 15.5q-2 -8 -4 -12.5t-3.5 -10.5t-2.5 -15.5
t-1 -27.5v-95zM245 673h131l-172 -196h-39z" />
    <glyph glyph-name="ecircumflex" unicode="&#xea;" horiz-adv-x="345" 
d="M334 86q-32 -14 -68 -33t-58 -37q-8 -7 -17.5 -14t-21.5 -7q-21 10 -38.5 18t-34.5 15.5t-35 14.5t-40 15q-6 2 -8.5 8.5t-2.5 12.5l1 177v25.5t2 24.5q2 15 18.5 27t38.5 22.5t43.5 19.5t33.5 17q20 14 39.5 29t37.5 31q11 -7 26.5 -24.5t29.5 -38t24 -41t10 -33.5
q0 -6 -2 -16q-11 -11 -40 -29t-59.5 -38t-54.5 -38.5t-24 -28.5q0 -14 17 -28t40.5 -26t46.5 -19.5t35 -7.5q10 0 23.5 6t27.5 13zM134 203q4 2 16 11t25.5 19.5t24 20.5t10.5 16q0 4 -2 12q-5 7 -12.5 19t-16.5 24.5t-18 23t-16 15.5q-2 -8 -4 -12.5t-3.5 -10.5t-2.5 -15.5
t-1 -27.5v-95zM137 587v1h106l-1 -1l95 -130h-32l-115 72l-116 -72h-31z" />
    <glyph glyph-name="edieresis" unicode="&#xeb;" horiz-adv-x="345" 
d="M334 86q-32 -14 -68 -33t-58 -37q-8 -7 -17.5 -14t-21.5 -7q-21 10 -38.5 18t-34.5 15.5t-35 14.5t-40 15q-6 2 -8.5 8.5t-2.5 12.5l1 177v25.5t2 24.5q2 15 18.5 27t38.5 22.5t43.5 19.5t33.5 17q20 14 39.5 29t37.5 31q11 -7 26.5 -24.5t29.5 -38t24 -41t10 -33.5
q0 -6 -2 -16q-11 -11 -40 -29t-59.5 -38t-54.5 -38.5t-24 -28.5q0 -14 17 -28t40.5 -26t46.5 -19.5t35 -7.5q10 0 23.5 6t27.5 13zM134 203q4 2 16 11t25.5 19.5t24 20.5t10.5 16q0 4 -2 12q-5 7 -12.5 19t-16.5 24.5t-18 23t-16 15.5q-2 -8 -4 -12.5t-3.5 -10.5t-2.5 -15.5
t-1 -27.5v-95zM105 625q12 4 29 4q29 0 50 -15q8 -14 8 -28q0 -9 -14 -27.5t-32 -38t-36 -35t-27 -19.5q-9 0 -19 5q2 17 3.5 39t5 43.5t11 41t21.5 30.5zM277 622q26 0 38.5 -7t24.5 -31q-2 -17 -16 -35t-33.5 -35t-40.5 -30.5t-36 -20.5l-8 6q3 16 6 42t10.5 51t20 42.5
t34.5 17.5z" />
    <glyph glyph-name="igrave" unicode="&#xec;" horiz-adv-x="286" 
d="M35 81q14 5 27.5 11.5t13.5 22.5v189q0 20 -5 33t-20 15q-5 0 -13.5 -4t-18.5 -11l-9 14q15 15 33.5 30.5t36.5 28.5t33 22.5t23 11.5q6 -8 19.5 -18.5t29 -20.5t31.5 -18.5t27 -13.5v-17q-6 0 -13 -0.5t-13 -3t-10 -7t-3 -11.5l-2 -186q0 -9 0.5 -19.5t3.5 -20t9.5 -16
t18.5 -6.5q5 0 13 3.5t18 8.5l10 -16q-19 -11 -39.5 -25.5t-38 -27.5t-30 -21.5t-14.5 -8.5q-1 0 -13.5 8.5t-30.5 19.5t-38 22t-35 16zM249 467h-39l-172 196h131z" />
    <glyph glyph-name="iacute" unicode="&#xed;" horiz-adv-x="286" 
d="M35 81q14 5 27.5 11.5t13.5 22.5v189q0 20 -5 33t-20 15q-5 0 -13.5 -4t-18.5 -11l-9 14q15 15 33.5 30.5t36.5 28.5t33 22.5t23 11.5q6 -8 19.5 -18.5t29 -20.5t31.5 -18.5t27 -13.5v-17q-6 0 -13 -0.5t-13 -3t-10 -7t-3 -11.5l-2 -186q0 -9 0.5 -19.5t3.5 -20t9.5 -16
t18.5 -6.5q5 0 13 3.5t18 8.5l10 -16q-19 -11 -39.5 -25.5t-38 -27.5t-30 -21.5t-14.5 -8.5q-1 0 -13.5 8.5t-30.5 19.5t-38 22t-35 16zM118 663h131l-172 -196h-39z" />
    <glyph glyph-name="icircumflex" unicode="&#xee;" horiz-adv-x="286" 
d="M35 81q14 5 27.5 11.5t13.5 22.5v189q0 20 -5 33t-20 15q-5 0 -13.5 -4t-18.5 -11l-9 14q15 15 33.5 30.5t36.5 28.5t33 22.5t23 11.5q6 -8 19.5 -18.5t29 -20.5t31.5 -18.5t27 -13.5v-17q-6 0 -13 -0.5t-13 -3t-10 -7t-3 -11.5l-2 -186q0 -9 0.5 -19.5t3.5 -20t9.5 -16
t18.5 -6.5q5 0 13 3.5t18 8.5l10 -16q-19 -11 -39.5 -25.5t-38 -27.5t-30 -21.5t-14.5 -8.5q-1 0 -13.5 8.5t-30.5 19.5t-38 22t-35 16zM96 646v1h106l-1 -1l95 -130h-32l-115 72l-116 -72h-31z" />
    <glyph glyph-name="idieresis" unicode="&#xef;" horiz-adv-x="286" 
d="M35 81q14 5 27.5 11.5t13.5 22.5v189q0 20 -5 33t-20 15q-5 0 -13.5 -4t-18.5 -11l-9 14q15 15 33.5 30.5t36.5 28.5t33 22.5t23 11.5q6 -8 19.5 -18.5t29 -20.5t31.5 -18.5t27 -13.5v-17q-6 0 -13 -0.5t-13 -3t-10 -7t-3 -11.5l-2 -186q0 -9 0.5 -19.5t3.5 -20t9.5 -16
t18.5 -6.5q5 0 13 3.5t18 8.5l10 -16q-19 -11 -39.5 -25.5t-38 -27.5t-30 -21.5t-14.5 -8.5q-1 0 -13.5 8.5t-30.5 19.5t-38 22t-35 16zM46 625q12 4 29 4q29 0 50 -15q8 -14 8 -28q0 -9 -14 -27.5t-32 -38t-36 -35t-27 -19.5q-9 0 -19 5q2 17 3.5 39t5 43.5t11 41
t21.5 30.5zM218 622q26 0 38.5 -7t24.5 -31q-2 -17 -16 -35t-33.5 -35t-40.5 -30.5t-36 -20.5l-8 6q3 16 6 42t10.5 51t20 42.5t34.5 17.5z" />
    <glyph glyph-name="eth" unicode="&#xf0;" horiz-adv-x="381" 
d="M27 452l24 11q-18 15 -29 38t-11 63q0 22 8 44.5t22.5 41.5t34 31t43.5 12q13 0 25.5 -1.5t25.5 -1.5q0 -9 1 -17.5t1 -17.5q-13 5 -25.5 10t-26.5 5q-8 0 -18 -3.5t-18.5 -9.5t-14 -14t-3.5 -18q-2 -6 -2 -10q0 -12 10.5 -22t28.5 -19.5t41 -20t49 -22.5l93 44v-39
l-54 -26q27 -15 52 -35.5t44.5 -47.5t31 -62t11.5 -79q0 -48 -16 -87.5t-40.5 -74t-55 -66.5t-59.5 -66q-16 11 -39 23t-48 22t-50 16.5t-44 6.5q-2 14 -4 27.5t-2 27.5q0 67 -1.5 106t-0.5 60.5t7.5 30.5t23.5 16.5t46 18.5t76 37v11q-20 15 -40 25.5t-38 20.5l-59 -28v39z
M197 375q-5 0 -17 -5t-24 -11.5t-21 -14.5t-9 -14q0 -20 -1 -42t-1 -44.5t1 -44.5t6 -41q1 -7 19.5 -15.5t41.5 -16t44.5 -13t29.5 -6.5q10 6 20.5 18t19.5 26.5t14.5 29.5t5.5 26t-2.5 29t-5.5 27q-4 11 -19 30t-34 37t-37.5 31.5t-30.5 13.5z" />
    <glyph glyph-name="ntilde" unicode="&#xf1;" horiz-adv-x="513" 
d="M507 82q-43 -22 -73.5 -43t-62.5 -53q-25 26 -45.5 45t-53.5 30l-1 17q6 1 13 4t13.5 9t10.5 15t4 23l1 181q-5 20 -17.5 34.5t-35.5 14.5q-3 0 -12 -3t-18 -9t-16.5 -14t-7.5 -18v-186q0 -17 3.5 -27t10 -15t15.5 -6.5t20 -2.5v-18q-15 -2 -31.5 -11t-32 -20.5t-28 -23
t-18.5 -18.5q-19 24 -46.5 46t-69.5 27l-1 20q7 0 16.5 3.5t17.5 8.5t13.5 12t6.5 15v192q0 15 -6 25.5t-15.5 15.5t-20.5 2.5t-20 -12.5l-13 11q7 13 22 21.5t32 16t33 16t25 20.5q3 5 8 9.5t10 4.5h4q11 -7 20.5 -19.5t19.5 -24.5t21.5 -21t25.5 -9q10 0 28 9.5t38 22.5
t39 25.5t30 18.5q25 -24 50.5 -47t61.5 -29l-2 -16q-21 -3 -29.5 -11t-8.5 -36l2 -198q0 -8 4.5 -16t16.5 -7q14 1 39 17zM393 600q3 0 4 -3.5t-1 -14.5q-3 -15 -9.5 -30.5t-16.5 -28.5t-23.5 -21.5t-31.5 -8.5q-26 0 -44.5 5.5t-33.5 10.5q-18 6 -31.5 9.5t-21.5 3.5
q-12 0 -23.5 -9t-15.5 -28q-1 -5 -7 -5h-18q-7 0 -3 17q7 40 29.5 68t53.5 28q21 0 41.5 -6t34.5 -10q20 -5 34.5 -9.5t25.5 -4.5q17 0 23.5 9t9.5 22q1 6 7 6h17z" />
    <glyph glyph-name="ograve" unicode="&#xf2;" horiz-adv-x="383" 
d="M248 443q7 0 21 -14.5t29 -33t27.5 -36.5t16.5 -25q9 -16 15 -28.5t9.5 -25t5 -26t1.5 -32.5q0 -27 -18 -57.5t-42.5 -60t-51 -56t-42.5 -46.5q-5 -3 -10 -7t-11 -4q-3 0 -4.5 0.5t-4.5 2.5q-55 33 -88 44t-50.5 17.5t-24 16t-7.5 39.5l2 211q2 16 14.5 19.5t24.5 8.5
q25 10 50 17t48 21q7 4 19.5 13t26.5 18.5t26 16.5t18 7zM150 367q-9 -14 -10 -30.5t-1 -32.5v-156q10 -4 29.5 -14t39.5 -21t37 -19.5t24 -8.5q16 13 29.5 33t13.5 41q0 8 -10 26.5t-25.5 41t-34.5 46.5t-37 44t-33 34t-22 16zM297 467h-39l-172 196h131z" />
    <glyph glyph-name="oacute" unicode="&#xf3;" horiz-adv-x="383" 
d="M248 443q7 0 21 -14.5t29 -33t27.5 -36.5t16.5 -25q9 -16 15 -28.5t9.5 -25t5 -26t1.5 -32.5q0 -27 -18 -57.5t-42.5 -60t-51 -56t-42.5 -46.5q-5 -3 -10 -7t-11 -4q-3 0 -4.5 0.5t-4.5 2.5q-55 33 -88 44t-50.5 17.5t-24 16t-7.5 39.5l2 211q2 16 14.5 19.5t24.5 8.5
q25 10 50 17t48 21q7 4 19.5 13t26.5 18.5t26 16.5t18 7zM150 367q-9 -14 -10 -30.5t-1 -32.5v-156q10 -4 29.5 -14t39.5 -21t37 -19.5t24 -8.5q16 13 29.5 33t13.5 41q0 8 -10 26.5t-25.5 41t-34.5 46.5t-37 44t-33 34t-22 16zM166 663h131l-172 -196h-39z" />
    <glyph glyph-name="ocircumflex" unicode="&#xf4;" horiz-adv-x="383" 
d="M248 443q7 0 21 -14.5t29 -33t27.5 -36.5t16.5 -25q9 -16 15 -28.5t9.5 -25t5 -26t1.5 -32.5q0 -27 -18 -57.5t-42.5 -60t-51 -56t-42.5 -46.5q-5 -3 -10 -7t-11 -4q-3 0 -4.5 0.5t-4.5 2.5q-55 33 -88 44t-50.5 17.5t-24 16t-7.5 39.5l2 211q2 16 14.5 19.5t24.5 8.5
q25 10 50 17t48 21q7 4 19.5 13t26.5 18.5t26 16.5t18 7zM150 367q-9 -14 -10 -30.5t-1 -32.5v-156q10 -4 29.5 -14t39.5 -21t37 -19.5t24 -8.5q16 13 29.5 33t13.5 41q0 8 -10 26.5t-25.5 41t-34.5 46.5t-37 44t-33 34t-22 16zM145 646v1h106l-1 -1l95 -130h-32l-115 72
l-116 -72h-31z" />
    <glyph glyph-name="otilde" unicode="&#xf5;" horiz-adv-x="383" 
d="M248 443q7 0 21 -14.5t29 -33t27.5 -36.5t16.5 -25q9 -16 15 -28.5t9.5 -25t5 -26t1.5 -32.5q0 -27 -18 -57.5t-42.5 -60t-51 -56t-42.5 -46.5q-5 -3 -10 -7t-11 -4q-3 0 -4.5 0.5t-4.5 2.5q-55 33 -88 44t-50.5 17.5t-24 16t-7.5 39.5l2 211q2 16 14.5 19.5t24.5 8.5
q25 10 50 17t48 21q7 4 19.5 13t26.5 18.5t26 16.5t18 7zM150 367q-9 -14 -10 -30.5t-1 -32.5v-156q10 -4 29.5 -14t39.5 -21t37 -19.5t24 -8.5q16 13 29.5 33t13.5 41q0 8 -10 26.5t-25.5 41t-34.5 46.5t-37 44t-33 34t-22 16zM328 605q3 0 4 -3.5t-1 -14.5
q-3 -15 -9.5 -30.5t-16.5 -28.5t-23.5 -21.5t-31.5 -8.5q-26 0 -44.5 5.5t-33.5 10.5q-18 6 -31.5 9.5t-21.5 3.5q-12 0 -23.5 -9t-15.5 -28q-1 -5 -7 -5h-18q-7 0 -3 17q7 40 29.5 68t53.5 28q21 0 41.5 -6t34.5 -10q20 -5 34.5 -9.5t25.5 -4.5q17 0 23.5 9t9.5 22q1 6 7 6
h17z" />
    <glyph glyph-name="odieresis" unicode="&#xf6;" horiz-adv-x="387" 
d="M166 641q19 0 35 -17t16 -36q0 -10 -15.5 -27t-36.5 -34.5t-41.5 -31.5t-29.5 -18q-1 5 -1 10v10q0 18 3 42.5t11 47t22 38.5t37 16zM298 642q7 0 17 -4t19.5 -10.5t16 -14.5t6.5 -16q0 -9 -16 -28.5t-37 -39t-41.5 -34.5t-29.5 -15v8q0 27 4.5 53.5t6.5 53.5q3 6 9 14.5
t13.5 15.5t15.5 12t16 5zM253 428q15 0 36 -25t40.5 -59t33.5 -68.5t14 -53.5q0 -28 -20 -63.5t-48 -70t-58.5 -64.5t-52.5 -46q-10 5 -18 11t-18 11q-35 17 -68 27.5t-69 21.5q-9 3 -11.5 12.5t-2.5 17.5v30v48.5t0.5 57t2 54.5t4.5 41.5t7 18.5q28 10 52 16.5t52 18.5
q7 3 26.5 13.5t40.5 21.5t38 20t19 9zM143 356q-2 -18 -2.5 -35.5t-0.5 -35.5q0 -37 0.5 -74t2.5 -74q31 -12 60 -27.5t58 -30.5h5q9 0 17 7t14.5 16.5t10 20t3.5 18.5q0 18 -17.5 47.5t-41 61t-47.5 59t-37 42.5q-6 3 -12.5 3t-12.5 2z" />
    <glyph glyph-name="divide" unicode="&#xf7;" 
d="M449 285v-76h-397v76h397zM251 344q-29 0 -45.5 17t-16.5 41q0 25 18 41.5t44 16.5t43.5 -16.5t17.5 -41.5q0 -24 -17 -41t-44 -17zM251 34q-26 0 -44 15t-18 42t18 43t44 16t43.5 -16t17.5 -43t-17.5 -42t-43.5 -15z" />
    <glyph glyph-name="oslash" unicode="&#xf8;" horiz-adv-x="383" 
d="M248 443q7 0 21 -14.5t29 -33t27.5 -36.5t16.5 -25q9 -16 15 -28.5t9.5 -25t5 -26t1.5 -32.5q0 -27 -18 -57.5t-42.5 -60t-51 -56t-42.5 -46.5q-5 -3 -10 -7t-11 -4q-3 0 -4.5 0.5t-4.5 2.5q-55 33 -88 44t-50.5 17.5t-24 16t-7.5 39.5l2 211q2 16 14.5 19.5t24.5 8.5
q25 10 50 17t48 21q7 4 19.5 13t26.5 18.5t26 16.5t18 7zM150 367q-9 -14 -10 -30.5t-1 -32.5v-156q10 -4 29.5 -14t39.5 -21t37 -19.5t24 -8.5q16 13 29.5 33t13.5 41q0 8 -10 26.5t-25.5 41t-34.5 46.5t-37 44t-33 34t-22 16zM301.042 440.128
q3.93359 5.58398 12.7861 3.72266l49.1787 -13.0303q6.88574 -1.86133 0.984375 -10.5479l-289.173 -429.995q-4.91797 -7.44629 -12.7871 -4.96387l-48.1953 13.6504q-7.86914 2.48145 -0.983398 11.1689z" />
    <glyph glyph-name="ugrave" unicode="&#xf9;" horiz-adv-x="505" 
d="M488 66q-14 -2 -28 -8t-26.5 -14t-21.5 -16.5t-13 -15.5q-7 -13 -14 -15.5t-13 12.5q-13 23 -36 43t-55 20q-22 0 -43 -9.5t-38.5 -21.5t-29 -23.5t-14.5 -15.5q-6 -8 -13.5 -8t-11.5 8q-19 24 -47.5 41.5t-54.5 22.5v17q20 2 34.5 16t14.5 29v201q-2 11 -6.5 20t-16.5 9
q-10 0 -19.5 -8t-17.5 -19l-12 12q7 17 26.5 36t40.5 34.5t39 25.5t21 10q25 -23 50 -39t59 -33v-18q-12 -3 -25 -11t-13 -25v-183q0 -23 9 -39t35 -16q9 0 19.5 1t19.5 5t15 10.5t6 17.5v203q0 12 -5.5 19.5t-12.5 12t-14 6t-11 1.5l-1 14q19 7 34 15t27.5 17.5t24.5 21
t27 26.5q26 -32 47.5 -48.5t47.5 -27.5l-1 -21q-10 2 -22.5 -8.5t-12.5 -29.5v-193q0 -24 11 -30.5t39 -10.5zM289 467h-39l-172 196h131z" />
    <glyph glyph-name="uacute" unicode="&#xfa;" horiz-adv-x="505" 
d="M488 66q-14 -2 -28 -8t-26.5 -14t-21.5 -16.5t-13 -15.5q-7 -13 -14 -15.5t-13 12.5q-13 23 -36 43t-55 20q-22 0 -43 -9.5t-38.5 -21.5t-29 -23.5t-14.5 -15.5q-6 -8 -13.5 -8t-11.5 8q-19 24 -47.5 41.5t-54.5 22.5v17q20 2 34.5 16t14.5 29v201q-2 11 -6.5 20t-16.5 9
q-10 0 -19.5 -8t-17.5 -19l-12 12q7 17 26.5 36t40.5 34.5t39 25.5t21 10q25 -23 50 -39t59 -33v-18q-12 -3 -25 -11t-13 -25v-183q0 -23 9 -39t35 -16q9 0 19.5 1t19.5 5t15 10.5t6 17.5v203q0 12 -5.5 19.5t-12.5 12t-14 6t-11 1.5l-1 14q19 7 34 15t27.5 17.5t24.5 21
t27 26.5q26 -32 47.5 -48.5t47.5 -27.5l-1 -21q-10 2 -22.5 -8.5t-12.5 -29.5v-193q0 -24 11 -30.5t39 -10.5zM309 663h131l-172 -196h-39z" />
    <glyph glyph-name="ucircumflex" unicode="&#xfb;" horiz-adv-x="505" 
d="M488 66q-14 -2 -28 -8t-26.5 -14t-21.5 -16.5t-13 -15.5q-7 -13 -14 -15.5t-13 12.5q-13 23 -36 43t-55 20q-22 0 -43 -9.5t-38.5 -21.5t-29 -23.5t-14.5 -15.5q-6 -8 -13.5 -8t-11.5 8q-19 24 -47.5 41.5t-54.5 22.5v17q20 2 34.5 16t14.5 29v201q-2 11 -6.5 20t-16.5 9
q-10 0 -19.5 -8t-17.5 -19l-12 12q7 17 26.5 36t40.5 34.5t39 25.5t21 10q25 -23 50 -39t59 -33v-18q-12 -3 -25 -11t-13 -25v-183q0 -23 9 -39t35 -16q9 0 19.5 1t19.5 5t15 10.5t6 17.5v203q0 12 -5.5 19.5t-12.5 12t-14 6t-11 1.5l-1 14q19 7 34 15t27.5 17.5t24.5 21
t27 26.5q26 -32 47.5 -48.5t47.5 -27.5l-1 -21q-10 2 -22.5 -8.5t-12.5 -29.5v-193q0 -24 11 -30.5t39 -10.5zM199 646v1h106l-1 -1l95 -130h-32l-115 72l-116 -72h-31z" />
    <glyph glyph-name="udieresis" unicode="&#xfc;" horiz-adv-x="505" 
d="M488 66q-14 -2 -28 -8t-26.5 -14t-21.5 -16.5t-13 -15.5q-7 -13 -14 -15.5t-13 12.5q-13 23 -36 43t-55 20q-22 0 -43 -9.5t-38.5 -21.5t-29 -23.5t-14.5 -15.5q-6 -8 -13.5 -8t-11.5 8q-19 24 -47.5 41.5t-54.5 22.5v17q20 2 34.5 16t14.5 29v201q-2 11 -6.5 20t-16.5 9
q-10 0 -19.5 -8t-17.5 -19l-12 12q7 17 26.5 36t40.5 34.5t39 25.5t21 10q25 -23 50 -39t59 -33v-18q-12 -3 -25 -11t-13 -25v-183q0 -23 9 -39t35 -16q9 0 19.5 1t19.5 5t15 10.5t6 17.5v203q0 12 -5.5 19.5t-12.5 12t-14 6t-11 1.5l-1 14q19 7 34 15t27.5 17.5t24.5 21
t27 26.5q26 -32 47.5 -48.5t47.5 -27.5l-1 -21q-10 2 -22.5 -8.5t-12.5 -29.5v-193q0 -24 11 -30.5t39 -10.5zM199 625q12 4 29 4q29 0 50 -15q8 -14 8 -28q0 -9 -14 -27.5t-32 -38t-36 -35t-27 -19.5q-9 0 -19 5q2 17 3.5 39t5 43.5t11 41t21.5 30.5zM371 622q26 0 38.5 -7
t24.5 -31q-2 -17 -16 -35t-33.5 -35t-40.5 -30.5t-36 -20.5l-8 6q3 16 6 42t10.5 51t20 42.5t34.5 17.5z" />
    <glyph glyph-name="yacute" unicode="&#xfd;" horiz-adv-x="484" 
d="M13 323q8 17 23 31t31.5 27t33 26.5t27.5 30.5q25 -17 47.5 -37t51.5 -31q16 0 35 8.5t38.5 19.5t37.5 23t31 20q14 -22 32.5 -48t34.5 -54t27 -56.5t11 -55.5q0 -50 -26 -108.5t-62.5 -116.5t-76 -112t-66.5 -94l-22 15q25 33 53.5 68t52.5 73t40 79t16 85
q0 26 -12.5 59t-30.5 67t-37 65.5t-32 54.5q-32 -5 -47.5 -18t-15.5 -48v-135v-18t2 -17q1 -7 10 -15.5t21 -15t24 -11t19 -4.5q9 1 24.5 8.5t24.5 13.5l10 -19q-26 -14 -51.5 -31t-47.5 -32t-39.5 -25t-26.5 -10q-5 0 -11 2q-15 10 -33.5 19.5t-37 18t-35.5 15t-30 9.5
l1 18q21 3 37.5 17t16.5 38v174q0 18 -6.5 29t-15.5 13.5t-20 -4t-20 -23.5zM217 663h131l-172 -196h-39z" />
    <glyph glyph-name="thorn" unicode="&#xfe;" horiz-adv-x="459" 
d="M82 114q3 34 4.5 75t1.5 83.5v83.5v76q0 38 -1.5 77t-4.5 74q-10 17 -17 29.5t-13 28.5l8 8q14 -12 23.5 -27.5t17.5 -32.5h11q22 21 37 38.5t31.5 30t38.5 19.5t58 7q11 0 17.5 -6.5t6.5 -17.5q-8 2 -16 3.5t-16 1.5q-11 0 -23 -13t-16 -22q-5 -11 -8 -36.5t-5 -60
t-3 -75t-1 -82.5q8 -4 12 -4q12 0 30 9t36.5 21t35 24.5t26.5 19.5q17 -17 34.5 -37.5t31 -43t22 -47t8.5 -50.5q0 -7 -1 -13.5t-2 -13.5q-5 -42 -20 -72.5t-43 -62.5q-5 -6 -18.5 -24.5t-29 -37.5t-29 -34t-18.5 -15q-6 0 -15.5 3t-20 6.5l-21 7t-18.5 4.5q-13 -49 -22 -99
t-24 -98q-3 -8 -10 -13t-15 -9q-14 35 -24.5 69t-19.5 70q-7 27 -8.5 55t-7.5 55q-11 -3 -21 -9t-19 -12t-17 -11t-15 -6q5 22 16.5 36t23.5 25t21.5 21t10.5 24zM213 142q10 -6 27.5 -14t37 -15t37.5 -12t30 -6q12 14 22.5 27.5t10.5 33.5q0 17 -13.5 47t-32.5 62.5
t-38.5 61t-31.5 42.5q-5 -3 -13.5 -5.5t-16.5 -6t-13.5 -9t-5.5 -12.5v-194z" />
    <glyph glyph-name="ydieresis" unicode="&#xff;" horiz-adv-x="484" 
d="M13 323q8 17 23 31t31.5 27t33 26.5t27.5 30.5q25 -17 47.5 -37t51.5 -31q16 0 35 8.5t38.5 19.5t37.5 23t31 20q14 -22 32.5 -48t34.5 -54t27 -56.5t11 -55.5q0 -50 -26 -108.5t-62.5 -116.5t-76 -112t-66.5 -94l-22 15q25 33 53.5 68t52.5 73t40 79t16 85
q0 26 -12.5 59t-30.5 67t-37 65.5t-32 54.5q-32 -5 -47.5 -18t-15.5 -48v-135v-18t2 -17q1 -7 10 -15.5t21 -15t24 -11t19 -4.5q9 1 24.5 8.5t24.5 13.5l10 -19q-26 -14 -51.5 -31t-47.5 -32t-39.5 -25t-26.5 -10q-5 0 -11 2q-15 10 -33.5 19.5t-37 18t-35.5 15t-30 9.5
l1 18q21 3 37.5 17t16.5 38v174q0 18 -6.5 29t-15.5 13.5t-20 -4t-20 -23.5zM145 625q12 4 29 4q29 0 50 -15q8 -14 8 -28q0 -9 -14 -27.5t-32 -38t-36 -35t-27 -19.5q-9 0 -19 5q2 17 3.5 39t5 43.5t11 41t21.5 30.5zM317 622q26 0 38.5 -7t24.5 -31q-2 -17 -16 -35
t-33.5 -35t-40.5 -30.5t-36 -20.5l-8 6q3 16 6 42t10.5 51t20 42.5t34.5 17.5z" />
    <glyph glyph-name="dotlessi" unicode="&#x131;" horiz-adv-x="286" 
d="M35 81q14 5 27.5 11.5t13.5 22.5v189q0 20 -5 33t-20 15q-5 0 -13.5 -4t-18.5 -11l-9 14q15 15 33.5 30.5t36.5 28.5t33 22.5t23 11.5q6 -8 19.5 -18.5t29 -20.5t31.5 -18.5t27 -13.5v-17q-6 0 -13 -0.5t-13 -3t-10 -7t-3 -11.5l-2 -186q0 -9 0.5 -19.5t3.5 -20t9.5 -16
t18.5 -6.5q5 0 13 3.5t18 8.5l10 -16q-19 -11 -39.5 -25.5t-38 -27.5t-30 -21.5t-14.5 -8.5q-1 0 -13.5 8.5t-30.5 19.5t-38 22t-35 16z" />
    <glyph glyph-name="OE" unicode="&#x152;" horiz-adv-x="1146" 
d="M1126 349q-26 17 -51.5 19t-51.5 -13q17 -18 24 -49t7 -55q0 -20 -7 -40t-18 -39t-25 -36t-28 -30q-5 -4 -15.5 -7.5t-22.5 -6t-24 -4t-18 -1.5q-26 0 -46.5 10t-34.5 27t-21 39t-7 47q0 5 7.5 8.5t11.5 5.5q0 -24 5.5 -45.5t17.5 -37.5t31 -25.5t45 -9.5q23 0 40 15
t17 38q0 22 -11.5 40t-29.5 34t-38 32.5t-38 36.5t-29.5 45t-11.5 58q0 24 6.5 45.5t15 42.5t15 41.5t6.5 43.5q0 13 -9 28.5t-22.5 29t-29.5 22t-29 8.5q-6 0 -12.5 -4t-12 -10.5t-9.5 -14.5t-4 -16l-7 -413q0 -51 4 -88.5t20.5 -62t50 -37t92.5 -12.5q87 0 142 38.5
t95 114.5l14 -5q-32 -88 -99.5 -130.5t-159.5 -42.5q-85 0 -142.5 28.5t-94.5 77.5q-39 -43 -96 -65.5t-132 -22.5q-54 0 -106 15.5t-96.5 33.5t-80 33.5t-56.5 15.5q-14 0 -25 -9.5t-11 -23.5q0 -20 5.5 -30.5t10.5 -27.5l-21 -3q-16 27 -16 57q0 10 3 24.5t11.5 29t24 28
t40.5 23.5q-28 6 -46 17.5t-28 24.5q-1 1 5 9.5t8 10.5q20 -16 39.5 -27.5t51.5 -11.5q51 0 75 18.5t24 50.5q0 13 -10 24t-25 21t-33 20.5t-33 24.5t-25 32t-10 43q0 57 24.5 104.5t58.5 85.5q-32 15 -51.5 38t-19.5 58h16q0 -17 12.5 -29.5t35.5 -12.5q34 0 60 4.5
t49.5 10t47 10t52.5 4.5q78 0 139 -27t105 -75q25 41 61.5 67t86.5 26q20 0 36.5 -9.5t29.5 -24.5t22.5 -32.5t16.5 -33.5q20 21 33 50.5t27 54.5q12 -2 30.5 -8t37.5 -13t34 -12.5t21 -5.5q13 0 19 12.5t14 20.5l14 -5q-16 -42 -38.5 -81.5t-46.5 -77.5q-12 2 -29 9.5
l-34 15t-32.5 13.5t-22.5 6q-16 0 -21 -13.5t-5 -26.5q0 -14 19 -37t44 -47t49.5 -45t35.5 -33q14 27 4.5 52.5t-32.5 45.5l5 10q29 -9 64 -5t65 27l8 -7q-8 -15 -11.5 -33t-2.5 -35.5t5.5 -34t13.5 -28.5zM417 543q-25 10 -54.5 17t-60.5 13.5t-61.5 14t-57.5 18.5
q-14 -19 -27 -41.5t-13 -33.5q0 -14 11.5 -25t28.5 -22.5t37.5 -23.5t37.5 -27.5t28.5 -35t11.5 -45.5q0 -20 -7 -43t-20 -46.5t-30.5 -44t-39.5 -34.5q22 -1 49.5 -12t56 -26.5t57.5 -33t55 -33t47.5 -25.5t35.5 -10q34 0 64.5 18t53.5 47q-36 56 -51 126.5t-15 148.5
q0 15 1 30.5t4 32.5q-33 33 -70 57.5t-72 38.5z" />
    <glyph glyph-name="oe" unicode="&#x153;" horiz-adv-x="653" 
d="M530 452q11 -7 26.5 -24.5t29.5 -38t24 -41t10 -33.5q0 -6 -2 -16q-11 -11 -40 -29t-59.5 -38t-54.5 -38.5t-24 -28.5q0 -14 17 -27.5t40 -24t46 -17.5t35 -7q18 0 30 8t23 8q5 0 9 -1l1 -5q0 -11 -10 -17q-30 -17 -60 -30.5t-57 -35.5q-8 -7 -17.5 -14t-21.5 -7
q-21 10 -38.5 18t-34.5 15.5t-35 14.5t-40 15q-6 2 -8.5 8.5t-2.5 12.5v30q-26 -31 -53 -59t-44 -48q-5 -3 -10 -7t-11 -4q-3 0 -4.5 0.5t-4.5 2.5q-50 30 -83 42t-53 18t-29 13t-12 27.5t-2 60t1 111.5v28.5t2 28.5q1 8 6.5 12.5t12.5 7t14.5 4t13.5 3.5q25 10 50 17t48 21
q7 4 19.5 13t26.5 18.5t26 16.5t18 7q7 0 20.5 -14t28.5 -32.5t27.5 -36.5t16.5 -25q12 9 27.5 17t31 14.5t30 13t23.5 12.5q20 14 39.5 29t37.5 31zM150 367q-9 -14 -10 -30.5t-1 -32.5v-80t6 -79q10 -4 29 -13.5l39 -19.5t37 -17.5t24 -7.5q16 13 27 32t11 40
q0 8 -10 26.5t-25.5 41t-34.5 46.5t-37 44t-33 34t-22 16zM448 211q8 0 19.5 6t22.5 15t18.5 19.5t7.5 18.5q0 4 -2 12q-5 7 -12.5 19t-16.5 24.5t-18 23t-16 15.5q-5 -16 -6.5 -32t-1.5 -33q0 -23 1.5 -44.5t3.5 -43.5z" />
    <glyph glyph-name="Scaron" unicode="&#x160;" horiz-adv-x="764" 
d="M397 685q64 0 103 -15.5t66 -34.5t50 -34.5t56 -15.5q17 0 24 15.5t7 29.5q0 11 -5.5 21t-10.5 20l14 9q7 -10 14.5 -20.5t7.5 -23.5q0 -29 -6.5 -54.5t-20.5 -44.5t-36.5 -30.5t-55.5 -11.5q-48 0 -84.5 25t-67 55.5t-59 55.5t-60.5 25q-34 0 -59 -18t-43 -47t-29.5 -66
t-18 -74.5t-9 -73t-2.5 -61.5q0 -65 11 -120.5t38.5 -96t75 -63.5t120.5 -23q60 0 115.5 15.5t98 46t68 76.5t25.5 108q0 18 -3 40.5t-11.5 42.5t-22.5 34t-36 14q-24 0 -37.5 -14.5t-24.5 -36t-23 -46.5t-32 -46.5t-52.5 -36t-84.5 -14.5q-30 0 -58.5 10t-50.5 28.5
t-35 44.5t-13 58q0 24 8 46t22.5 38.5t35 26t45.5 9.5q11 0 25.5 -3t25.5 -7l-7 -24q-14 5 -25 6.5t-25 1.5q-37 -1 -57 -29.5t-20 -66.5q0 -14 4.5 -28.5t13 -26t20.5 -18.5t27 -7q28 0 44 15t27 37t22 48t29.5 48t48.5 37t81 15q42 0 73.5 -15.5t53 -41.5t32 -61.5
t10.5 -74.5q0 -75 -30.5 -128t-80 -86.5t-113 -48.5t-128.5 -15q-78 0 -149 21.5t-125 64t-86 106t-32 148.5q0 80 27 146.5t77.5 114t122 74t160.5 26.5zM444 728v-1h-115l1 1l-102 140h34l124 -78l125 78h34z" />
    <glyph glyph-name="scaron" unicode="&#x161;" horiz-adv-x="424" 
d="M392 478q1 -6 1.5 -12t0.5 -11q0 -38 -17 -63t-44 -41q4 -7 8 -16t7 -18q6 -19 17.5 -30t22.5 -21.5t19 -24t8 -38.5q0 -30 -21 -59.5t-51 -56.5t-62 -49.5t-54 -38.5q-32 8 -66.5 13t-67.5 5q-31 0 -43 -10.5t-23 -26.5l-21 1q4 8 15 22t23 28.5t21 27.5t9 18
q0 13 -5.5 34t-5.5 53q0 6 -5 14t-10.5 18.5t-10.5 25t-5 33.5q0 33 14.5 58t37 44.5t49.5 35t51 30.5q10 6 22 17t24 11q10 0 23 -5t27 -11.5t28.5 -11.5t29.5 -5q21 0 28 14t7 49zM115 346q0 -19 7 -34t18 -28.5t24 -25.5t25 -24q10 3 35 11t49.5 18.5t42.5 23t14 23.5
l-13 30q-22 -5 -40.5 -7.5t-40.5 5.5q-9 3 -22 9t-27 12t-26.5 10.5t-21.5 4.5q-13 0 -18.5 -8.5t-5.5 -19.5zM85 110q5 7 22.5 8t41 -0.5t50.5 -5.5t50.5 -8.5t40.5 -7.5t22 -3q4 0 14 2q16 13 7 34.5t-27.5 42.5t-41 36t-33.5 15q-8 0 -28.5 -7.5t-43 -17.5t-42.5 -19
t-27 -13q-5 -3 -7 -9.5t-2 -14.5t1.5 -16.5t2.5 -15.5zM274 507v-1h-115l1 1l-102 140h34l124 -78l125 78h34z" />
    <glyph glyph-name="Ydieresis" unicode="&#x178;" horiz-adv-x="733" 
d="M217 198q4 1 11 8t14 18t11.5 24.5t4.5 28.5l5 258q0 19 -5.5 42t-16.5 42.5t-28.5 32.5t-42.5 13q-59 0 -95.5 -34.5t-36.5 -95.5q0 -25 9 -44t24 -31.5t34.5 -18.5t41.5 -6q4 0 7 0.5t7 0.5l3 -31q-5 -1 -10 -1h-10q-31 0 -56 10.5t-42 28.5t-26.5 41.5t-9.5 48.5
q0 39 13 68.5t36 49.5t54 30t68 10q56 0 102.5 -15.5t78.5 -50.5q18 30 52 48.5t70 18.5q44 0 79 -16.5t61.5 -44.5t45 -64.5t30.5 -76t17.5 -80t5.5 -76.5q0 -102 -18.5 -198.5t-65.5 -172t-129 -121t-208 -45.5q-94 0 -138 24t-44 81q0 30 21 54.5t59 24.5q79 0 79 -82
q0 -23 -12.5 -41.5t-30.5 -27.5q12 -5 27 -6.5t29 -1.5h12q130 0 190 61t60 182v462q0 44 -6.5 71t-16.5 42t-23 20t-25 5q-39 0 -63 -17t-39 -46q20 -30 31.5 -72t11.5 -97q0 -60 -15 -100t-40 -67t-56.5 -45t-64.5 -33q21 -7 43 -17.5t42 -22t37 -23.5t30 -21q6 6 14 13.5
t17 15t17 13.5t13 9l18 -15q-28 -14 -51.5 -39t-44 -49t-38.5 -42t-33 -18q-6 0 -28 19t-52 42.5t-63.5 42.5t-62.5 19q-23 0 -36 -16t-13 -36q0 -13 6.5 -25t16.5 -20l-14 -15q-14 12 -22 26.5t-8 37.5q0 68 43.5 100t114.5 32q5 0 11.5 -1t12.5 -2l-1 2v0zM280 883
q12 4 29 4q29 0 50 -15q8 -14 8 -28q0 -9 -14 -27.5t-32 -38t-36 -35t-27 -19.5q-9 0 -19 5q2 17 3.5 39t5 43.5t11 41t21.5 30.5zM452 880q26 0 38.5 -7t24.5 -31q-2 -17 -16 -35t-33.5 -35t-40.5 -30.5t-36 -20.5l-8 6q3 16 6 42t10.5 51t20 42.5t34.5 17.5z" />
    <glyph glyph-name="Zcaron" unicode="&#x17d;" horiz-adv-x="633" 
d="M299 693q52 0 104.5 -14t95 -43t69 -72.5t26.5 -101.5q0 -35 -9.5 -60t-25.5 -45.5t-38 -37.5t-47 -36q-11 -8 -25.5 -11t-27.5 -11q39 -12 75.5 -31.5t64.5 -47t45 -63t17 -80.5q0 -54 -21 -97t-56 -72t-81 -44.5t-97 -15.5q-35 0 -60 10.5t-44 23t-33.5 23t-29.5 10.5
q-23 0 -39 -9.5t-32 -23.5h-3q-6 0 -11.5 3.5t-10.5 6.5q-6 13 -8.5 22t-7 16t-13 11t-26.5 7q-22 -14 -22 -29.5t4 -37.5l-4 -16l-12 9q-2 9 -4 18.5t-2 18.5q0 27 11.5 49t30.5 37t43.5 23t49.5 8q18 0 31 -12t25 -30t24.5 -38.5t29 -38.5t38.5 -30t54 -12q45 0 69 23
t34.5 57t12 73.5t1.5 71.5q0 40 -2.5 75.5t-15.5 61.5t-40 41.5t-76 15.5t-93.5 -23.5t-66.5 -68.5l-11 -1l-1 11q0 14 13 27t30.5 25t35 23t26.5 20q-19 3 -37.5 13t-33.5 25t-24 33.5t-9 38.5q0 8 1.5 15.5t2.5 15.5q16 22 30.5 37t44.5 15q32 0 47.5 -15t30.5 -39
q3 -11 3 -21q0 -18 -7 -30.5t-18.5 -20.5t-26 -12.5t-29.5 -6.5l-8 -10q22 -13 46 -21t50 -8q36 0 58 11.5t35 31.5t17.5 47t4.5 58q0 50 -2.5 95t-18 79.5t-50.5 54.5t-99 20q-20 0 -47 -5.5t-53 -16t-47 -26t-28 -35.5q-11 -11 -15.5 -16t-7 -9.5t-4.5 -10.5t-6 -19
l-17 -3q0 36 18 60t44 41.5t55.5 31t52.5 27.5q20 2 41.5 4.5t41.5 2.5zM363 731v-1h-115l1 1l-102 140h34l124 -78l125 78h34z" />
    <glyph glyph-name="zcaron" unicode="&#x17e;" horiz-adv-x="297" 
d="M269 228l-56 -59q4 -6 16 -20.5t25 -37.5t23 -53.5t10 -67.5q0 -29 -9.5 -62t-28 -61t-45.5 -46.5t-61 -18.5q-25 0 -44.5 9t-33.5 25t-21.5 36.5t-7.5 44.5q0 92 64 169q-15 20 -31.5 33.5t-37.5 30.5q13 7 34 21t42.5 30.5t39.5 34t25 32.5q-5 3 -23.5 14.5t-38.5 24
t-37 22t-20 9.5q-5 0 -14 -7.5t-19 -18.5l-12 16q16 16 36 34.5t38 34t31.5 26t16.5 10.5h6q8 -8 23 -19t33 -21.5t37 -18.5t36 -10q3 0 5.5 -2t1.5 -5l-2 -9q-1 -5 -9 -16t-20 -25.5t-25.5 -29.5t-25.5 -27.5t-19.5 -21l-7.5 -8.5q9 -8 20 -18t16 -18q17 13 32 28l29 29z
M142 -179q33 0 57.5 21t24.5 58q0 15 -13 38.5t-31 48t-36.5 46t-29.5 33.5q-26 -29 -43 -65t-17 -75q0 -20 5.5 -39t16 -33.5t27 -23.5t39.5 -9zM211 507v-1h-115l1 1l-102 140h34l124 -78l125 78h34z" />
    <glyph glyph-name="s.long" unicode="&#x17f;" horiz-adv-x="227" 
d="M251 646q-11 -28 -18.5 -60t-22.5 -58q-11 1 -23 1.5t-23 0.5q-30 0 -43.5 -3t-19 -12t-7 -25t-8.5 -41q17 -12 35 -16.5t33 -12t24.5 -21t9.5 -43.5q0 -81 -3 -160t-3 -160q0 -9 -3 -30.5t-8 -48.5t-11.5 -55.5t-14.5 -52.5t-16.5 -40.5t-17.5 -17.5q-22 73 -33.5 138.5
t-17 130.5t-7 132t-2.5 142q-10 2 -19.5 2.5t-19.5 2.5l-2 17l5 11q22 16 37 49.5t27 73t21 79t19 66.5q31 7 62.5 9t63.5 8z" />
    <glyph glyph-name="florin" unicode="&#x192;" 
d="M295 353l-18 -156q-9 -83 -32 -144t-54.5 -102t-70.5 -61t-81 -20q-26 0 -45 7t-32.5 18t-20 23t-6.5 23q0 25 10 39.5t29 14.5q24 0 36.5 -14.5t16.5 -28.5q6 -21 17 -30.5t32 -9.5q12 0 21 11.5t16.5 37.5t13.5 68t12 103l21 221h-74q-9 0 -6 9l7 27q1 6 9 6h69
q8 62 25 114.5t59 96.5t79.5 60.5t86.5 16.5q30 0 52.5 -7.5t36.5 -19.5t21 -26t7 -27q0 -46 -55 -46q-22 0 -31.5 14t-16.5 35q-4 14 -13.5 24.5t-23.5 10.5q-33 0 -56.5 -45.5t-32.5 -152.5l-4 -48h110q10 0 9 -6l-7 -30q-1 -4 -4.5 -5t-7.5 -1h-104z" />
    <glyph glyph-name="dotlessj" unicode="&#x237;" horiz-adv-x="264" 
d="M8 -188q9 1 20 4t21 9t18 17.5t11 31.5q2 12 3 30t1.5 60t1 118t0.5 206q0 27 -10 46.5t-27 19.5q-5 0 -14.5 -4t-19.5 -9l-6 18q16 14 36.5 29t39 27.5t32 20t14.5 6.5q40 -40 117 -60v-18q-18 -2 -27 -16t-9 -46l-1 -287v-44t4 -43t12 -41t25 -38l-14 -14
q-12 11 -30 29.5t-26 34.5q-11 -15 -27 -32.5t-37 -33t-47 -27t-56 -14.5z" />
    <glyph glyph-name="circumflex" unicode="&#x2c6;" horiz-adv-x="450" 
d="M182 646v1h106l-1 -1l95 -130h-32l-115 72l-116 -72h-31z" />
    <glyph glyph-name="caron" unicode="&#x2c7;" horiz-adv-x="450" 
d="M291 507v-1h-115l1 1l-102 140h34l124 -78l125 78h34z" />
    <glyph glyph-name="ring" unicode="&#x2da;" horiz-adv-x="318" 
d="M154 496q-24 0 -46 5.5t-39.5 16.5t-28 27t-10.5 37q0 22 11 39.5t29.5 29.5t42.5 18.5t50 6.5q55 0 90 -23t35 -61q0 -29 -13 -47.5t-32.5 -29t-43.5 -15t-45 -4.5zM159 530q22 0 35.5 13.5t13.5 43.5q0 29 -15 42t-32 13q-25 -1 -38 -16.5t-13 -38.5q0 -57 49 -57z" />
    <glyph glyph-name="tilde" unicode="&#x2dc;" horiz-adv-x="341" 
d="M307 667q3 0 4 -3.5t-1 -14.5q-3 -15 -9.5 -30.5t-16.5 -28.5t-23.5 -21.5t-31.5 -8.5q-26 0 -44.5 5.5t-33.5 10.5q-18 6 -31.5 9.5t-21.5 3.5q-12 0 -23.5 -9t-15.5 -28q-1 -5 -7 -5h-18q-7 0 -3 17q7 40 29.5 68t53.5 28q21 0 41.5 -6t34.5 -10q20 -5 34.5 -9.5
t25.5 -4.5q17 0 23.5 9t9.5 22q1 6 7 6h17z" />
    <glyph glyph-name="endash" unicode="&#x2013;" 
d="M0 231v76h500v-76h-500z" />
    <glyph glyph-name="emdash" unicode="&#x2014;" horiz-adv-x="1000" 
d="M1000 231h-1000v76h1000v-76z" />
    <glyph glyph-name="quoteleft" unicode="&#x2018;" horiz-adv-x="192" 
d="M79 359q-35 14 -52 47t-17 68q0 40 21 76.5t42 68.5q9 14 21.5 23.5t22.5 23.5q9 12 19 16q5 -2 9.5 -6t4.5 -9q0 -3 -3 -7q-20 -24 -35.5 -37t-26.5 -26t-19.5 -31t-14.5 -54l22 2t22 1q42 0 64.5 -20t22.5 -63q0 -23 -9 -37.5t-23.5 -22.5t-33 -10.5t-37.5 -2.5z" />
    <glyph glyph-name="quoteright" unicode="&#x2019;" horiz-adv-x="192" 
d="M113 682q35 -14 52 -47t17 -68q0 -40 -21 -76.5t-42 -68.5q-9 -14 -21.5 -23.5t-22.5 -23.5q-9 -12 -19 -16q-5 2 -9.5 6t-4.5 9q0 2 3 7q20 24 35.5 37t26.5 25.5t19.5 31t14.5 54.5l-22 -2t-22 -1q-42 0 -64.5 20t-22.5 63q0 23 9 37.5t23.5 22.5t33 10.5t37.5 2.5z
" />
    <glyph glyph-name="quotesinglbase" unicode="&#x201a;" horiz-adv-x="188" 
d="M89 164q20 0 36.5 -10t28 -25.5t18 -34.5t6.5 -37q0 -23 -12 -59.5t-31.5 -71.5t-45 -60t-51.5 -25q0 13 8 21t17 15q21 16 33 29.5t20 27.5t14 31t15 40q-21 4 -44.5 4t-44 5t-33.5 19.5t-13 49.5q0 34 22 57.5t57 23.5z" />
    <glyph glyph-name="quotedblleft" unicode="&#x201c;" horiz-adv-x="399" 
d="M79 359q-35 14 -52 47t-17 68q0 40 21 76.5t42 68.5q9 14 21.5 23.5t22.5 23.5q9 12 19 16q5 -2 9.5 -6t4.5 -9q0 -3 -3 -7q-20 -24 -35.5 -37t-26.5 -26t-19.5 -31t-14.5 -54l22 2t22 1q42 0 64.5 -20t22.5 -63q0 -23 -9 -37.5t-23.5 -22.5t-33 -10.5t-37.5 -2.5z
M276 359q-35 14 -52 47t-17 68q0 40 21 76.5t42 68.5q9 14 21.5 23.5t22.5 23.5q9 12 19 16q5 -2 9.5 -6t4.5 -9q0 -3 -3 -7q-20 -24 -35.5 -37t-26.5 -26t-19.5 -31t-14.5 -54l22 2t22 1q42 0 64.5 -20t22.5 -63q0 -23 -9 -37.5t-23.5 -22.5t-33 -10.5t-37.5 -2.5z" />
    <glyph glyph-name="quotedblright" unicode="&#x201d;" horiz-adv-x="399" 
d="M310 682q35 -14 52 -47t17 -68q0 -40 -21 -76.5t-42 -68.5q-9 -14 -21.5 -23.5t-22.5 -23.5q-9 -12 -19 -16q-5 2 -9.5 6t-4.5 9q0 2 3 7q20 24 35.5 37t26.5 25.5t19.5 31t14.5 54.5l-22 -2t-22 -1q-42 0 -64.5 20t-22.5 63q0 23 9 37.5t23.5 22.5t33 10.5t37.5 2.5z
M113 682q35 -14 52 -47t17 -68q0 -40 -21 -76.5t-42 -68.5q-9 -14 -21.5 -23.5t-22.5 -23.5q-9 -12 -19 -16q-5 2 -9.5 6t-4.5 9q0 2 3 7q20 24 35.5 37t26.5 25.5t19.5 31t14.5 54.5l-22 -2t-22 -1q-42 0 -64.5 20t-22.5 63q0 23 9 37.5t23.5 22.5t33 10.5t37.5 2.5z" />
    <glyph glyph-name="quotedblbase" unicode="&#x201e;" horiz-adv-x="380" 
d="M276 164q20 0 36.5 -10t28 -25.5t18 -34.5t6.5 -37q0 -23 -12 -59.5t-31.5 -71.5t-45 -60t-51.5 -25q0 13 8 21t17 15q21 16 33 29.5t20 27.5t14 31t15 40q-21 4 -44.5 4t-44 5t-33.5 19.5t-13 49.5q0 34 22 57.5t57 23.5zM89 164q20 0 36.5 -10t28 -25.5t18 -34.5
t6.5 -37q0 -23 -12 -59.5t-31.5 -71.5t-45 -60t-51.5 -25q0 13 8 21t17 15q21 16 33 29.5t20 27.5t14 31t15 40q-21 4 -44.5 4t-44 5t-33.5 19.5t-13 49.5q0 34 22 57.5t57 23.5z" />
    <glyph glyph-name="dagger" unicode="&#x2020;" 
d="M240 -135q-7 0 -7 12q0 23 -3.5 60.5t-9 81t-12 89t-13 85t-13 69t-10.5 40.5q4 5 13.5 15t19 26t17 37.5t7.5 50.5q-14 0 -33 -8t-38.5 -17t-39 -17t-35.5 -8q-29 0 -46 17.5t-17 42.5q0 30 19.5 45.5t43.5 15.5q16 0 35 -6.5t38.5 -15t38.5 -15t34 -6.5q0 27 -7 54.5
t-16 53t-16 48t-7 39.5q0 11 4.5 23.5t13.5 22.5t21.5 16.5t29.5 6.5q19 0 32.5 -6.5t21.5 -16.5t11.5 -22.5t3.5 -23.5q0 -17 -8 -39.5t-17 -48t-17 -53t-8 -54.5q15 0 33.5 6.5t38 15t38.5 15t36 6.5q29 0 46 -17t17 -44q0 -23 -16.5 -41.5t-50.5 -18.5q-14 0 -32 8
t-37.5 17t-38.5 17t-34 8q0 -29 7 -50.5t17 -37t19 -25.5t14 -16q-5 -11 -11 -40t-12.5 -68t-13 -84t-11.5 -89t-8.5 -82.5t-3.5 -64.5q0 -9 -7 -9h-21z" />
    <glyph glyph-name="daggerdbl" unicode="&#x2021;" 
d="M252 723q19 0 32 -6.5t21 -17t12 -24t4 -26.5q0 -15 -8 -38t-17 -49t-17 -53t-8 -50q19 0 40 6.5t40.5 15t37 15t31.5 6.5q29 0 44.5 -17.5t15.5 -43.5q0 -23 -14.5 -41.5t-45.5 -18.5q-12 0 -29 8t-36.5 17t-41 17t-42.5 8q0 -23 4.5 -41t12 -33t15.5 -28.5t16 -27.5
q-6 -9 -14.5 -23.5t-16 -33.5t-12.5 -41t-5 -46q21 0 41 8t39 17t36.5 17t32.5 8q27 0 43.5 -18.5t16.5 -41.5q0 -28 -19.5 -44.5t-44.5 -16.5q-14 0 -30.5 7t-35.5 15t-39 15t-40 7q0 -38 7.5 -67t16 -52t16 -41.5t7.5 -35.5q0 -11 -5 -23.5t-14 -22.5t-22.5 -16.5
t-29.5 -6.5q-17 0 -29.5 6.5t-21 16.5t-12.5 22.5t-4 23.5q0 17 7.5 35.5t17 41.5t17.5 52t8 67q-21 0 -42.5 -7t-41.5 -15t-37 -15t-28 -7q-26 0 -43.5 17.5t-17.5 43.5q0 12 6 22.5t14.5 19t19 13.5t19.5 5q12 0 29.5 -8t37.5 -17t41.5 -17t42.5 -8q0 24 -5.5 46.5
t-13.5 41.5t-16 33.5t-13 22.5q6 13 14.5 26.5t16 28.5t12.5 33.5t5 41.5q-20 0 -41.5 -8t-42 -17t-38 -17t-29.5 -8q-21 0 -40 15t-19 45q0 13 5.5 24t14.5 19.5t20.5 13t22.5 4.5q10 0 27 -6.5t36.5 -15t41 -15t42.5 -6.5q0 23 -7.5 50t-16 53t-16 49t-7.5 38q0 13 5 26.5
t14 24t21.5 17t28.5 6.5z" />
    <glyph glyph-name="bullet" unicode="&#x2022;" horiz-adv-x="340" 
d="M168 228q-25 0 -49.5 9t-44 26t-31.5 41.5t-12 55.5q0 33 12 58.5t31.5 43.5t44.5 27t52 9q26 0 51 -9t44.5 -26t31 -43t11.5 -60q0 -32 -12 -56.5t-31.5 -41t-45 -25.5t-52.5 -9z" />
    <glyph glyph-name="ellipsis" unicode="&#x2026;" horiz-adv-x="958" 
d="M108 192q12 -13 22.5 -27t22 -27t24.5 -24t30 -18q-18 -12 -36.5 -29t-33 -32.5t-22.5 -27t-6 -11.5l-6 1q1 8 -12.5 24.5t-30 33t-32 28t-18.5 10.5q19 10 32.5 20t24.5 22t20.5 25.5t20.5 31.5zM474 192q12 -13 22.5 -27t22 -27t24.5 -24t30 -18q-18 -12 -36.5 -29
t-33 -32.5t-22.5 -27t-6 -11.5l-6 1q1 8 -12.5 24.5t-30 33t-32 28t-18.5 10.5q19 10 32.5 20t24.5 22t20.5 25.5t20.5 31.5zM840 192q12 -13 22.5 -27t22 -27t24.5 -24t30 -18q-18 -12 -36.5 -29t-33 -32.5t-22.5 -27t-6 -11.5l-6 1q1 8 -12.5 24.5t-30 33t-32 28
t-18.5 10.5q19 10 32.5 20t24.5 22t20.5 25.5t20.5 31.5z" />
    <glyph glyph-name="perthousand" unicode="&#x2030;" horiz-adv-x="1143" 
d="M178 286q17 0 27 12t15 27q5 20 5.5 60t0.5 112q0 46 -3 77.5t-9 50t-14 26.5t-17 8q-12 0 -22 -8t-16 -28q-5 -14 -7.5 -34t-4 -42.5t-2 -44.5t-0.5 -39q0 -44 1.5 -76.5t7.5 -55.5q5 -20 16 -32.5t22 -12.5zM178 7q-6 4 -6 8q0 3 2 6t4 7l401 647q4 8 8 8t9 -3l30 -17
q4 -3 4 -7q0 -3 -4 -10l-404 -653q-4 -8 -9 -8t-8 3zM173 264q-49 0 -79 23.5t-46.5 55.5t-22 66.5t-5.5 55.5q0 41 9 80.5t29 70t51.5 49t75.5 18.5q48 0 77.5 -20.5t46 -51t22 -67t5.5 -68.5q0 -100 -40 -156t-123 -56zM968 12q19 0 30 12t16 27q5 20 5.5 60t0.5 112
q0 46 -3.5 77.5t-9.5 50t-14.5 26.5t-18.5 8q-14 0 -24 -8t-17 -28q-5 -14 -8 -34t-4.5 -42.5t-2 -44.5t-0.5 -40q0 -43 1.5 -75.5t8.5 -55.5q5 -20 16.5 -32.5t23.5 -12.5zM960 -9q-49 0 -79 23.5t-46.5 55.5t-22 66.5t-5.5 55.5q0 41 9 80.5t29 70t51.5 49t75.5 18.5
q48 0 77.5 -20.5t46 -51t22 -67t5.5 -68.5q0 -100 -40 -156t-123 -56zM623 12q19 0 30 12t16 27q5 20 5.5 60t0.5 112q0 46 -3.5 77.5t-9.5 50t-14.5 26.5t-18.5 8q-14 0 -24 -8t-17 -28q-5 -14 -8 -34t-4.5 -42.5t-2 -44.5t-0.5 -40q0 -43 1.5 -75.5t8.5 -55.5
q5 -20 16.5 -32.5t23.5 -12.5zM615 -9q-49 0 -79 23.5t-46.5 55.5t-22 66.5t-5.5 55.5q0 41 9 80.5t29 70t51.5 49t75.5 18.5q48 0 77.5 -20.5t46 -51t22 -67t5.5 -68.5q0 -100 -40 -156t-123 -56z" />
    <glyph glyph-name="guilsinglleft" unicode="&#x2039;" horiz-adv-x="272" 
d="M35 222h-1v146l1 -1l211 129v-43l-116 -158l116 -158v-43z" />
    <glyph glyph-name="guilsinglright" unicode="&#x203a;" horiz-adv-x="272" 
d="M34 94v43l116 158l-116 158v43l211 -129l1 1v-146h-1z" />
    <glyph glyph-name="Euro" unicode="&#x20ac;" 
d="M16 253q-8 0 -6 6l10 29q1 6 6 6h55q-1 8 -1 19.5v20.5v22.5t1 23.5h-59q-8 0 -6 6l9 29q2 2 2.5 4t3.5 2h54q6 41 19 79t36 78q29 50 73.5 77.5t95.5 27.5q27 0 45 -5.5t30.5 -13t21 -15.5t15.5 -14q7 -7 11.5 -5.5t6.5 9.5l4 22q1 5 4 5.5t9 0.5t9 -2.5t3 -13.5
q0 -7 1.5 -29.5t3.5 -49.5t4 -52t3 -36q1 -8 -2 -10l-17 -4q-5 -2 -8 4.5t-5 11.5q-9 22 -19 49t-24 51t-34 40t-49 16q-42 0 -68.5 -51.5t-31.5 -169.5h202q10 0 8 -6l-9 -26q-1 -3 -2.5 -6t-6.5 -3h-194q0 -10 -0.5 -22.5t-0.5 -23.5q0 -9 0.5 -20.5t0.5 -19.5h161
q9 0 8 -6l-9 -27q-1 -3 -2 -5.5t-6 -2.5h-151q4 -118 32 -172.5t71 -54.5q28 0 48.5 16.5t35.5 41.5t25 54t18 53q5 11 11 9l16 -5q3 -2 2 -10q-1 -11 -3 -36.5t-4 -52.5t-3.5 -50t-1.5 -30q0 -12 -3 -14t-9 -2t-9 0.5t-4 5.5l-5 27q-3 13 -17 1q-8 -7 -18 -15.5t-23 -16
t-29.5 -12.5t-38.5 -5q-53 0 -98 27.5t-74 77.5q-44 75 -56 163h-68v0z" />
    <glyph glyph-name="trademark" unicode="&#x2122;" horiz-adv-x="899" 
d="M133 705q33 0 57 -9.5t43 -21t34 -21t29 -9.5q5 0 13 2q4 8 10 18q-9 13 -9 30h6q5 -7 6 -14t4 -14l-1 -7q-7 -11 -11 -20.5t-9.5 -17t-15.5 -12t-28 -4.5q-14 0 -29 4t-28 8.5t-22 8.5t-12 4q-6 0 -14.5 -10t-8.5 -16q0 -15 13.5 -23.5t29 -18.5t29 -25t13.5 -42
q0 -22 -12 -37.5t-27 -29.5l-3 -8q20 -10 41.5 -20t44.5 -10t35 15t12 38q0 8 -1 12q-2 5 -5.5 9t-5.5 9l8 6l5 -4q6 -11 8 -17t2 -18q0 -22 -10.5 -37.5t-26.5 -25t-35.5 -14t-38.5 -4.5q-29 0 -54.5 8t-48.5 17.5t-43.5 17.5t-38.5 8h-3l-7 -6l-6 -2q0 -4 -1 -7t-1 -7
q0 -8 5 -13t5 -12l-10 1q-5 5 -7.5 15.5t-2.5 15.5q0 28 22.5 45t48.5 17q15 0 30 -4t27 -9t21.5 -9t14.5 -4q8 0 14 6.5t11 12.5q1 2 1 6q-5 14 -18.5 22t-27.5 16.5t-25.5 21.5t-11.5 36q0 21 5 33t11.5 20t14 15t12.5 19q-5 2 -7.5 6t-7.5 6q-14 8 -33 15t-35 7
q-5 0 -12.5 -3.5t-12.5 -5.5q-19 -19 -19 -49q0 -20 8 -30.5t24 -21.5l-7 -8h-1q-6 0 -12 7t-11 17t-8 20t-3 15q0 23 9.5 40t25.5 28.5t35.5 17t39.5 5.5zM746 705q22 0 38.5 -11.5t30.5 -26t27 -26t28 -11.5q5 12 13 16v-2q0 -16 -12 -24t-27 -14t-27 -11.5t-12 -16.5v-65
t1 -65q1 -5 0.5 -11.5t4.5 -9.5q8 -5 16.5 -11t18.5 -6q5 5 8.5 9.5t7.5 9.5h4q3 -3 3 -6q0 -5 -10.5 -14.5t-24 -19t-26 -17.5t-17.5 -9q-8 2 -14.5 6.5t-13.5 7.5q-5 2 -14 4t-12 5q-2 3 -1.5 7t-1.5 7v123q0 14 9.5 24t22.5 18.5t25.5 17t18.5 20.5q-16 5 -31.5 17
t-30 24.5t-26 22t-18.5 9.5q-9 0 -16 -6t-7 -16q0 -11 3 -21t3 -21q0 -29 -5.5 -51t-14 -42.5t-18.5 -40.5t-19 -45q11 -3 21.5 -6t19 -8.5t14 -14.5t5.5 -23q0 -5 -0.5 -9.5t-0.5 -9.5q-17 2 -31 1.5t-31 -0.5h-8q1 6 2 11.5t1 10.5q0 11 -6 20.5t-19 9.5q-12 0 -18.5 -5
t-9.5 -12.5t-3.5 -16.5t1.5 -18l-8 2q-4 10 -4 16q0 4 3 9q1 15 9.5 23t19 12.5t19.5 6.5t12 7q2 4 3 15t2 24.5t1 25.5v18q0 12 -2.5 36.5t-8.5 50t-16 45.5t-25 24q-5 1 -11 1.5t-12 0.5l-9 -1q-5 -4 -13 -10.5t-8 -13.5q0 -5 5 -12q12 -22 17 -50t5 -53q0 -30 -9 -61
t-26 -56.5t-43 -42t-60 -16.5q-22 0 -40.5 14.5t-18.5 37.5q0 17 9.5 27.5t26.5 10.5t27 -10t10 -27t-9.5 -24t-23.5 -13q14 -7 26 -7q15 0 28.5 9t18.5 23q3 9 4 31.5t1 48.5t-0.5 50t-0.5 36q0 10 1.5 19.5t1.5 19.5q0 13 -2 27.5t-8 27t-16.5 20.5t-26.5 8
q-32 0 -47.5 -22.5t-15.5 -50.5q0 -30 20 -44t47 -14v-9q-31 0 -54 19.5t-23 51.5q0 35 22.5 57.5t57.5 22.5q29 0 47.5 -11t39.5 -27q12 6 20 13t16 12.5t18.5 9.5t27.5 4q15 0 26 -3.5t20 -8.5t18 -11.5t20 -13.5q14 16 31.5 26.5t38.5 10.5z" />
    <glyph glyph-name="Oneroman" unicode="&#x2160;" horiz-adv-x="308" 
d="M210 492q-11 0 -11 -12v-447q0 -11 11 -11h61q18 0 18 -11t-18 -11h-234q-17 0 -17 11t17 11h52q11 0 11 11v447q0 12 -11 12h-52q-17 0 -17 10.5t17 10.5h234q18 0 18 -10.5t-18 -10.5h-61z" />
    <glyph glyph-name="Tworoman" unicode="&#x2161;" horiz-adv-x="559" 
d="M37 22h52q11 0 11 11v447q0 12 -11 12h-52q-17 0 -17 10.5t17 10.5h484q18 0 18 -10.5t-18 -10.5h-51q-12 0 -12 -12v-447q0 -11 12 -11h51q18 0 18 -11t-18 -11h-484q-17 0 -17 11t17 11zM199 33q0 -11 11 -11h138q11 0 11 11v447q0 12 -11 12h-138q-11 0 -11 -12v-447z
" />
    <glyph glyph-name="Threeroman" unicode="&#x2162;" horiz-adv-x="818" 
d="M37 22h52q11 0 11 11v447q0 12 -11 12h-52q-17 0 -17 10.5t17 10.5h744q17 0 17 -10.5t-17 -10.5h-52q-11 0 -11 -12v-447q0 -11 11 -11h52q17 0 17 -11t-17 -11h-744q-17 0 -17 11t17 11zM199 33q0 -11 11 -11h138q11 0 11 11v447q0 12 -11 12h-138q-11 0 -11 -12v-447z
M458 33q0 -11 12 -11h137q12 0 12 11v447q0 12 -12 12h-137q-12 0 -12 -12v-447z" />
    <glyph glyph-name="Fourroman" unicode="&#x2163;" horiz-adv-x="737" 
d="M699 513q15 0 15 -11q0 -10 -15 -10h-33q-6 0 -8 -7l-141 -460q-1 -4 3 -4h182q15 0 15 -10q0 -11 -15 -11h-667q-16 0 -16 11t16 11h54q11 0 11 11v450q0 9 -11 9h-52q-17 0 -17 11t17 11zM199 483v-450q0 -11 11 -11l222 -1q4 0 4 4l-141 460q-2 2 -4 4.5t-5 2.5h-76
q-11 0 -11 -9zM629 487q2 5 -4 5h-207q-5 0 -3 -5l104 -341q3 -8 5 0z" />
    <glyph glyph-name="Fiveroman" unicode="&#x2164;" horiz-adv-x="501" 
d="M386 487q2 5 -4 5h-207q-4 0 -4 -5l105 -341q1 -4 2.5 -4t2.5 4zM456 513q15 0 15 -11q0 -10 -15 -10h-34q-5 0 -7 -7l-142 -460q0 -4 4 -4h181q16 0 16 -10q0 -11 -16 -11h-421q-16 0 -16 11q0 10 16 10h178q4 0 4 4l-141 460q-2 2 -4 4.5t-5 2.5h-32q-15 0 -15 10
q0 11 15 11h419z" />
    <glyph glyph-name="Sixroman" unicode="&#x2165;" horiz-adv-x="699" 
d="M667 513q17 0 17 -10.5t-17 -10.5h-52q-11 0 -11 -12v-447q0 -11 11 -11h52q15 0 15 -11t-15 -11h-630q-16 0 -16 11q0 10 16 10h178q4 0 4 4l-141 460q-2 2 -4 4.5t-5 2.5h-32q-15 0 -15 10q0 11 15 11h630zM493 22q11 0 11 11v447q0 12 -11 12h-71q-5 0 -7 -7
l-142 -460q0 -4 4 -4zM386 487q2 5 -4 5h-207q-4 0 -4 -5l105 -341q1 -4 2.5 -4t2.5 4z" />
    <glyph glyph-name="Sevenroman" unicode="&#x2166;" horiz-adv-x="1003" 
d="M37 513h921q17 0 17 -10.5t-17 -10.5h-52q-11 0 -11 -12v-447q0 -11 11 -11h52q17 0 17 -11t-17 -11h-921q-17 0 -17 11t17 11h176q12 0 9 11l-122 447q-3 12 -14 12h-49q-17 0 -17 10.5t17 10.5zM199 480l100 -368q4 -14 8 -14t7 14l99 368q3 12 -8 12h-197
q-12 0 -9 -12zM320 33q-3 -11 9 -11h196q11 0 11 11v447q0 12 -11 12h-71q-11 0 -14 -12zM635 33q0 -11 11 -11h138q11 0 11 11v447q0 12 -11 12h-138q-11 0 -11 -12v-447z" />
    <glyph glyph-name="Eightroman" unicode="&#x2167;" horiz-adv-x="1261" 
d="M37 513h1180q17 0 17 -10.5t-17 -10.5h-51q-12 0 -12 -12v-447q0 -11 12 -11h51q17 0 17 -11t-17 -11h-1184q-17 0 -17 11t17 11h180q12 0 9 11l-122 447q-3 12 -14 12h-49q-17 0 -17 10.5t17 10.5zM199 480l100 -368q4 -14 8 -14t7 14l99 368q3 12 -8 12h-197
q-12 0 -9 -12zM321 33q-3 -11 8 -11h196q12 0 12 11v447q0 12 -12 12h-70q-12 0 -15 -12zM636 33q0 -11 11 -11h138q11 0 11 11v447q0 12 -11 12h-138q-11 0 -11 -12v-447zM895 33q0 -11 11 -11h138q11 0 11 11v447q0 12 -11 12h-138q-11 0 -11 -12v-447z" />
    <glyph glyph-name="Nineroman" unicode="&#x2168;" horiz-adv-x="754" 
d="M722 0h-685q-17 0 -17 11t17 11h52q11 0 11 11v447q0 12 -11 12h-52q-17 0 -17 10.5t17 10.5h687q13 0 13 -11q0 -10 -13 -10h-58q-4 -1 -8 -7l-135 -191q-4 -9 1 -17l153 -250q4 -6 10 -6h36q11 0 11 -10.5t-12 -10.5zM281 21q4 0 9 1.5t7 4.5l144 202l2 3q2 4 2 9
q0 2 -1 5t-2 5l-142 234q-6 5 -10 7h-80q-11 0 -11 -12v-447q0 -11 11 -11zM579 21q1 0 1 3l-115 184v-1l-1 2h-1l-1 -1l-129 -184q-3 -3 1 -3h245zM398 492q-3 0 -1 -4l103 -169q0 -1 1 -1h3l121 170q0 3 -1 4h-226z" />
    <glyph glyph-name="Tenroman" unicode="&#x2169;" horiz-adv-x="521" 
d="M54 21q4 0 9 1.5t7 4.5l144 202l2 3q2 4 2 9q0 2 -1 5t-2 5l-142 234q-6 5 -10 7h-37q-14 0 -14 10q0 11 14 11h471q13 0 13 -11q0 -10 -13 -10h-58q-4 -1 -8 -7l-135 -191q-4 -9 1 -17l153 -250q4 -6 10 -6h36q11 0 11 -10.5t-12 -10.5h-470q-14 2 -13.5 11.5t15.5 9.5
h27zM352 21q1 0 1 3l-115 184v-1l-1 2h-1l-1 -1l-130 -184q0 -3 2 -3h245zM171 492q-5 0 -1 -4l103 -169q0 -1 1 -1h3l120 170q2 2 0 4h-226z" />
    <glyph glyph-name="Elevenroman" unicode="&#x216a;" horiz-adv-x="722" 
d="M449 22h68q11 0 11 11v447q0 12 -11 12h-58v21h231q18 0 18 -10.5t-18 -10.5h-51q-12 0 -12 -12v-447q0 -11 12 -11h51q18 0 18 -11t-18 -11h-241v22zM54 21q4 0 9 1.5t7 4.5l144 202l2 3q2 4 2 9q0 2 -1 5t-2 5l-142 234q-6 5 -10 7h-37q-14 0 -14 10q0 11 14 11h471
q13 0 13 -11q0 -10 -13 -10h-58q-4 -1 -8 -7l-135 -191q-4 -9 1 -17l153 -250q4 -6 10 -6h36q11 0 11 -10.5t-12 -10.5h-470q-14 2 -13.5 11.5t15.5 9.5h27zM352 21q1 0 1 3l-115 184v-1l-1 2h-1l-1 -1l-130 -184q0 -3 2 -3h245zM171 492q-5 0 -1 -4l103 -169q0 -1 1 -1h3
l120 170q2 2 0 4h-226z" />
    <glyph glyph-name="Twelveroman" unicode="&#x216b;" horiz-adv-x="990" 
d="M54 21q4 0 9 1.5t7 4.5l144 202l2 3q2 4 2 9q0 2 -1 5t-2 5l-142 234q-6 5 -10 7h-37q-14 0 -14 10q0 11 14 11h928q17 0 17 -10.5t-17 -10.5h-52q-11 0 -11 -12v-447q0 -11 11 -11h52q17 0 17 -11t-17 -11h-929q-14 2 -13.5 11.5t15.5 9.5h27zM521 22q12 0 12 11v447
q0 12 -12 12h-82q-4 -1 -8 -7l-135 -191q-4 -9 1 -17l153 -250q1 -3 5 -5h66zM632 33q0 -11 11 -11h138q11 0 11 11v447q0 12 -11 12h-138q-11 0 -11 -12v-447zM352 21q1 0 1 3l-115 184v-1l-1 2h-1l-1 -1l-130 -184q0 -3 2 -3h245zM171 492q-5 0 -1 -4l103 -169q0 -1 1 -1
h3l120 170q2 2 0 4h-226z" />
    <glyph glyph-name="rrot" unicode="&#xa75b;" horiz-adv-x="268" 
d="M67 358q-8 -2 -18 -7.5t-21 -12.5l-7 16q11 5 30 17.5t39.5 26t39.5 26.5t30 20q14 -13 29 -30t27 -36t20 -39t8 -39q0 -36 -15.5 -65t-34 -51.5t-34 -37.5t-15.5 -22q0 -15 12.5 -25.5t29.5 -16t35 -5.5t29 6v-19q-15 -8 -39 -19.5t-47 -22t-40 -18.5t-18 -8
q-25 23 -47 33t-48 13l-1 18q13 3 34.5 15t41 28t34 35t14.5 37q0 66 -16.5 110t-51.5 73z" />
    <glyph glyph-name="longs_h" unicode="&#xeba1;" horiz-adv-x="671" 
d="M251 646q-11 -28 -18.5 -60t-22.5 -58q-11 1 -23 1.5t-23 0.5q-30 0 -43.5 -3t-19 -12t-7 -25t-8.5 -41q17 -12 35 -16.5t33 -12t24.5 -21t9.5 -43.5q0 -81 -3 -160t-3 -160q0 -9 -3 -30.5t-8 -48.5t-11.5 -55.5t-14.5 -52.5t-16.5 -40.5t-17.5 -17.5q-22 73 -33.5 138.5
t-17 130.5t-7 132t-2.5 142q-10 2 -19.5 2.5t-19.5 2.5l-2 17l5 11q22 16 37 49.5t27 73t21 79t19 66.5q31 7 62.5 9t63.5 8zM241 659q20 -14 30.5 -31t14.5 -33q8 15 17.5 31.5t26.5 31t44.5 23.5t72.5 9q19 0 42 -3.5t41 -8.5l-11 -26q-31 14 -65 14q-15 0 -25.5 -9
t-17.5 -24.5t-11 -35.5t-6 -42l-5 -189q6 3 29 16t48.5 27t46 25.5t21.5 11.5q13 0 34.5 -27t42 -62.5t35.5 -69.5t15 -49q0 -57 -23.5 -114t-58 -112t-72.5 -106.5t-68 -96.5l-18 14q6 12 28.5 40t47 68t44 90.5t19.5 108.5q0 9 -7 30.5t-18 47.5t-25 53.5t-27.5 50.5
t-25.5 38t-20 15q-13 0 -22 -6t-14 -16.5t-7.5 -24.5t-3.5 -28l1 -121q1 -17 5.5 -32t12 -27t19.5 -19t29 -7q20 0 34.5 7.5t22.5 13.5l7 -17q-2 -2 -14 -9.5t-28.5 -17.5t-35.5 -21.5t-35 -21t-27 -15.5t-12 -6q-12 9 -28.5 20.5t-35.5 22.5t-40.5 18.5t-44.5 9.5v18
q15 1 28.5 9.5t15.5 25.5l3 408q1 20 -2 36t-9 29.5t-14.5 25.5t-17.5 25z" />
    <glyph glyph-name="longs_longs" unicode="&#xeba6;" horiz-adv-x="427" 
d="M251 646q-11 -28 -18.5 -60t-22.5 -58q-11 1 -23 1.5t-23 0.5q-30 0 -43.5 -3t-19 -12t-7 -25t-8.5 -41q17 -12 35 -16.5t33 -12t24.5 -21t9.5 -43.5q0 -81 -3 -160t-3 -160q0 -9 -3 -30.5t-8 -48.5t-11.5 -55.5t-14.5 -52.5t-16.5 -40.5t-17.5 -17.5q-22 73 -33.5 138.5
t-17 130.5t-7 132t-2.5 142q-10 2 -19.5 2.5t-19.5 2.5l-2 17l5 11q22 16 37 49.5t27 73t21 79t19 66.5q31 7 62.5 9t63.5 8zM461 646q-11 -28 -18.5 -60t-22.5 -58q-11 1 -23 1.5t-23 0.5q-30 0 -43.5 -3t-19 -12t-7 -25t-8.5 -41q17 -12 35 -16.5t33 -12t24.5 -21
t9.5 -43.5q0 -81 -3 -160t-3 -160q0 -9 -3 -30.5t-8 -48.5t-11.5 -55.5t-14.5 -52.5t-16.5 -40.5t-17.5 -17.5q-22 73 -33.5 138.5t-17 130.5t-7 132t-2.5 142q-10 2 -19.5 2.5t-19.5 2.5l-2 17l5 11q22 16 37 49.5t27 73t21 79t19 66.5q31 7 62.5 9t63.5 8z" />
    <glyph glyph-name="longs_longs_i" unicode="&#xeba7;" horiz-adv-x="706" 
d="M251 646q-11 -28 -18.5 -60t-22.5 -58q-11 1 -23 1.5t-23 0.5q-30 0 -43.5 -3t-19 -12t-7 -25t-8.5 -41q17 -12 35 -16.5t33 -12t24.5 -21t9.5 -43.5q0 -81 -3 -160t-3 -160q0 -9 -3 -30.5t-8 -48.5t-11.5 -55.5t-14.5 -52.5t-16.5 -40.5t-17.5 -17.5q-22 73 -33.5 138.5
t-17 130.5t-7 132t-2.5 142q-10 2 -19.5 2.5t-19.5 2.5l-2 17l5 11q22 16 37 49.5t27 73t21 79t19 66.5q31 7 62.5 9t63.5 8zM461 646q-11 -28 -18.5 -60t-22.5 -58q-11 1 -23 1.5t-23 0.5q-30 0 -43.5 -3t-19 -12t-7 -25t-8.5 -41q17 -12 35 -16.5t33 -12t24.5 -21
t9.5 -43.5q0 -81 -3 -160t-3 -160q0 -9 -3 -30.5t-8 -48.5t-11.5 -55.5t-14.5 -52.5t-16.5 -40.5t-17.5 -17.5q-22 73 -33.5 138.5t-17 130.5t-7 132t-2.5 142q-10 2 -19.5 2.5t-19.5 2.5l-2 17l5 11q22 16 37 49.5t27 73t21 79t19 66.5q31 7 62.5 9t63.5 8zM594 653
q9 0 19.5 -2.5t19.5 -8t15 -13.5t6 -19q0 -12 -16.5 -31.5t-37.5 -39t-40 -33.5t-23 -14q-5 0 -8.5 4t-3.5 9q0 17 2.5 42t9.5 48.5t20.5 40.5t36.5 17zM455 81q14 5 27.5 11.5t13.5 22.5v189q0 20 -5 33t-20 15q-5 0 -13.5 -4t-18.5 -11l-9 14q15 15 33.5 30.5t36.5 28.5
t33 22.5t23 11.5q6 -8 19.5 -18.5t29 -20.5t31.5 -18.5t27 -13.5v-17q-6 0 -13 -0.5t-13 -3t-10 -7t-3 -11.5l-2 -186q0 -9 0.5 -19.5t3.5 -20t9.5 -16t18.5 -6.5q5 0 13 3.5t18 8.5l10 -16q-19 -11 -39.5 -25.5t-38 -27.5t-30 -21.5t-14.5 -8.5q-1 0 -13.5 8.5t-30.5 19.5
t-38 22t-35 16z" />
    <glyph glyph-name="longs_longs_l" unicode="&#xeba8;" horiz-adv-x="700" 
d="M251 646q-11 -28 -18.5 -60t-22.5 -58q-11 1 -23 1.5t-23 0.5q-30 0 -43.5 -3t-19 -12t-7 -25t-8.5 -41q17 -12 35 -16.5t33 -12t24.5 -21t9.5 -43.5q0 -81 -3 -160t-3 -160q0 -9 -3 -30.5t-8 -48.5t-11.5 -55.5t-14.5 -52.5t-16.5 -40.5t-17.5 -17.5q-22 73 -33.5 138.5
t-17 130.5t-7 132t-2.5 142q-10 2 -19.5 2.5t-19.5 2.5l-2 17l5 11q22 16 37 49.5t27 73t21 79t19 66.5q31 7 62.5 9t63.5 8zM461 646q-11 -28 -18.5 -60t-22.5 -58q-11 1 -23 1.5t-23 0.5q-30 0 -43.5 -3t-19 -12t-7 -25t-8.5 -41q17 -12 35 -16.5t33 -12t24.5 -21
t9.5 -43.5q0 -81 -3 -160t-3 -160q0 -9 -3 -30.5t-8 -48.5t-11.5 -55.5t-14.5 -52.5t-16.5 -40.5t-17.5 -17.5q-22 73 -33.5 138.5t-17 130.5t-7 132t-2.5 142q-10 2 -19.5 2.5t-19.5 2.5l-2 17l5 11q22 16 37 49.5t27 73t21 79t19 66.5q31 7 62.5 9t63.5 8zM688 666
q-31 0 -47.5 -16.5t-24 -39t-8.5 -44.5t-2 -33l-2 -383q0 -23 11.5 -42t37.5 -19q5 0 15 3.5t21 7.5l8 -17q-23 -11 -41 -21t-34.5 -20.5t-31.5 -22t-31 -25.5q-28 27 -59.5 47.5t-69.5 31.5v19q15 1 29 10t16 26l1 338v46.5t-3.5 44.5t-12 42t-25.5 39l14 11
q14 -12 27.5 -28t22.5 -35q30 48 74 74t114 27z" />
    <glyph glyph-name="f_j" unicode="&#xeec9;" horiz-adv-x="473" 
d="M218 -188q9 1 20 4t21 9t18 17.5t11 31.5q2 12 3 30t1.5 60t1 118t0.5 206q0 27 -12 44.5t-29 17.5h-65v-101q0 -59 -5 -130t-14 -137t-21 -118t-26 -72q-14 20 -24 49.5t-18 61.5t-13 64t-8 58q-11 79 -9.5 161t0.5 164h-36l1 49q7 1 20.5 6t21.5 22q11 26 17.5 55.5
t12.5 59t14.5 58t23.5 52.5q17 4 35 3t34 0.5t29.5 8.5t22.5 26l13 -2q-6 -36 -17.5 -70t-17.5 -70q-29 -2 -57.5 -3t-57.5 -5q-5 -18 -10 -35.5t-7 -35.5q4 -14 18 -19t26 -9q11 -3 18 -7t12.5 -8.5t11 -9.5t14.5 -9q5 -3 15.5 -4t22 -1.5t22.5 -0.5h19q7 0 18.5 6.5
t22 14.5t18.5 14.5t9 5.5q40 -40 117 -60v-18q-18 -2 -27 -16t-9 -46l-1 -287v-44t4 -43t12 -41t25 -38l-14 -14q-12 11 -30 29.5t-26 34.5q-11 -15 -27 -32.5t-37 -33t-47 -27t-56 -14.5zM319 501q3 23 4 49.5t7.5 49.5t21 38.5t43.5 15.5q19 0 33 -7q7 -8 12 -14.5
t5 -17.5q0 -12 -14 -31t-33 -38t-38.5 -32.5t-30.5 -13.5z" />
    <glyph glyph-name="l_l" unicode="&#xf4f9;" horiz-adv-x="511" 
d="M276 691q11 0 26 -3.5t26 -8.5v-11q-14 0 -28 2.5t-28 2.5q-8 0 -18 -2.5t-19.5 -6.5t-17.5 -10t-12 -13q-8 -14 -12.5 -50t-7 -84t-3 -102.5t-0.5 -105t0.5 -92t0.5 -62.5q0 -27 15 -46.5t46 -19.5q11 0 23 7t14 18q3 15 4.5 46.5t2 72t0.5 86v87.5t-0.5 77.5t-0.5 55.5
q0 16 -5.5 34t-12.5 33t-12.5 26t-5.5 13q0 4 0.5 6t5.5 2q4 0 8 -3.5t5 -7.5q8 -12 17.5 -22.5t21.5 -18.5q28 44 69 71.5t95 27.5q9 0 18.5 -2.5t9.5 -13.5l-1 -14q-8 0 -15.5 1.5t-15.5 1.5q-14 0 -26 -5.5t-17 -19.5q-4 -12 -7 -48t-4.5 -85.5t-2 -106t-0.5 -108.5
v-93.5v-60.5q0 -16 11.5 -28.5t24.5 -20.5q14 0 26 7t26 7q0 -13 -5 -28q-9 -4 -30 -17t-43 -27q-26 -17 -54 -36q-11 6 -22.5 17.5t-24.5 23.5t-25.5 20.5t-24.5 8.5q-14 0 -30.5 -7t-33.5 -16.5t-32 -20.5t-25 -20l-6 -1l-13 1q-8 6 -27 17t-39.5 23.5t-37 23.5t-17.5 16
l17 8.5t16 10.5q6 5 8.5 33t3.5 62t0.5 65t-0.5 43q0 48 1 89.5t-1.5 81.5t-10 80t-23.5 86l14 3q10 -15 19.5 -29.5t21.5 -28.5q21 25 41.5 45.5t44 34t51.5 21t63 7.5z" />
    <glyph glyph-name="l_l" unicode="&#xf6c0;" horiz-adv-x="511" 
d="M276 691q11 0 26 -3.5t26 -8.5v-11q-14 0 -28 2.5t-28 2.5q-8 0 -18 -2.5t-19.5 -6.5t-17.5 -10t-12 -13q-8 -14 -12.5 -50t-7 -84t-3 -102.5t-0.5 -105t0.5 -92t0.5 -62.5q0 -27 15 -46.5t46 -19.5q11 0 23 7t14 18q3 15 4.5 46.5t2 72t0.5 86v87.5t-0.5 77.5t-0.5 55.5
q0 16 -5.5 34t-12.5 33t-12.5 26t-5.5 13q0 4 0.5 6t5.5 2q4 0 8 -3.5t5 -7.5q8 -12 17.5 -22.5t21.5 -18.5q28 44 69 71.5t95 27.5q9 0 18.5 -2.5t9.5 -13.5l-1 -14q-8 0 -15.5 1.5t-15.5 1.5q-14 0 -26 -5.5t-17 -19.5q-4 -12 -7 -48t-4.5 -85.5t-2 -106t-0.5 -108.5
v-93.5v-60.5q0 -16 11.5 -28.5t24.5 -20.5q14 0 26 7t26 7q0 -13 -5 -28q-9 -4 -30 -17t-43 -27q-26 -17 -54 -36q-11 6 -22.5 17.5t-24.5 23.5t-25.5 20.5t-24.5 8.5q-14 0 -30.5 -7t-33.5 -16.5t-32 -20.5t-25 -20l-6 -1l-13 1q-8 6 -27 17t-39.5 23.5t-37 23.5t-17.5 16
l17 8.5t16 10.5q6 5 8.5 33t3.5 62t0.5 65t-0.5 43q0 48 1 89.5t-1.5 81.5t-10 80t-23.5 86l14 3q10 -15 19.5 -29.5t21.5 -28.5q21 25 41.5 45.5t44 34t51.5 21t63 7.5z" />
    <glyph glyph-name="longs_c_h" unicode="&#xf4fa;" horiz-adv-x="937" 
d="M716 693q13 0 30 -4.5t25 -15.5l-2 -13q-17 2 -33.5 5.5t-33.5 3.5q-27 0 -40.5 -25.5t-18 -59t-4 -67.5t0.5 -52v-48t2 -48q38 18 73 43t75 40q18 -24 39 -50t39 -54t30.5 -57.5t12.5 -61.5q0 -23 -14 -63t-36.5 -86t-49 -92.5t-52 -84t-46 -60.5t-29.5 -20l-17 4
q4 13 27 39.5t48.5 61.5t46.5 75.5t21 80.5q0 82 -35 154.5t-89 133.5q-11 -9 -24 -14.5t-20 -18.5q-2 -49 -2 -97v-97q0 -10 9 -20.5t21.5 -18.5t26 -13.5t22.5 -5.5q13 0 26 7t26 10q-2 -6 -2 -11t-6 -9t-29 -17t-48.5 -27t-46.5 -25t-24 -11q-9 0 -22.5 9.5t-30 20.5
t-34.5 20.5t-35 9.5q-24 0 -43.5 -9t-35.5 -20t-29 -20t-22 -9q-3 0 -22 10.5t-40.5 23t-39.5 24.5t-19 15q-3 8 -3.5 18t-0.5 19q0 72 -0.5 114t3 66.5t13 37t29.5 26t52.5 33.5t82.5 59l10 2q11 -5 20 -15t18 -21.5t19.5 -21t25.5 -13.5q2 32 2.5 64.5t0.5 64.5
q0 37 -6.5 58t-15 34t-17 24t-13.5 29l15 2q9 -4 15.5 -10.5t12 -14t10.5 -15.5t12 -14q1 -3 4 -3q2 0 9 7t15 16t16 17.5t11 11.5q28 23 63.5 31t70.5 8zM429 308q-10 0 -17.5 5t-14 12.5t-12 16t-11.5 14.5q-5 -13 -5 -31q0 -44 -1 -89t3 -89q0 -6 11.5 -16t26.5 -20.5
t29.5 -19.5t20.5 -12q27 0 49 19q2 6 3.5 32t2.5 57.5t1.5 60.5t0.5 39q0 18 -2 34.5t2 34.5q-12 -2 -22.5 -10t-21 -16.5t-21 -15t-22.5 -6.5zM366 676q-2 -11 -12.5 -30.5t-24 -41.5t-26.5 -43t-19 -33q-30 -7 -60 -5.5t-60 1.5h-15.5t-15.5 -1l-22 -38t-11 -42
q13 -13 29 -13.5t30 -8t23.5 -32.5t9.5 -86q0 -75 0.5 -151t-4.5 -150q-2 -45 -17 -89.5t-24 -88.5q-2 -10 -7 -19t-15 -14l-9 8q-23 49 -35.5 112t-18.5 129.5t-7 131.5t-1 119v21.5t-1 21.5q-5 10 -19 10t-24 1q2 15 12.5 27t17.5 25q31 58 62.5 117.5t66.5 115.5
q2 4 6.5 7.5t9.5 3.5q29 0 57 -2.5t57 -2.5q16 0 23.5 6t13 13.5t12 14t18.5 6.5z" />
    <glyph glyph-name="longs_j" unicode="&#xf4fb;" horiz-adv-x="469" 
d="M251 646q-11 -28 -18.5 -60t-22.5 -58q-11 1 -23 1.5t-23 0.5q-30 0 -43.5 -3t-19 -12t-7 -25t-8.5 -41q17 -12 35 -16.5t33 -12t24.5 -21t9.5 -43.5q0 -81 -3 -160t-3 -160q0 -9 -3 -30.5t-8 -48.5t-11.5 -55.5t-14.5 -52.5t-16.5 -40.5t-17.5 -17.5q-22 73 -33.5 138.5
t-17 130.5t-7 132t-2.5 142q-10 2 -19.5 2.5t-19.5 2.5l-2 17l5 11q22 16 37 49.5t27 73t21 79t19 66.5q31 7 62.5 9t63.5 8zM311 501q3 23 4 49.5t7.5 49.5t21 38.5t43.5 15.5q19 0 33 -7q7 -8 12 -14.5t5 -17.5q0 -12 -14 -31t-33 -38t-38.5 -32.5t-30.5 -13.5zM210 -188
q9 1 20 4t21 9t18 17.5t11 31.5q2 12 3 30t1.5 60t1 118t0.5 206q0 27 -10 46.5t-27 19.5q-5 0 -14.5 -4t-19.5 -9l-6 18q16 14 36.5 29t39 27.5t32 20t14.5 6.5q40 -40 117 -60v-18q-18 -2 -27 -16t-9 -46l-1 -287v-44t4 -43t12 -41t25 -38l-14 -14q-12 11 -30 29.5
t-26 34.5q-11 -15 -27 -32.5t-37 -33t-47 -27t-56 -14.5z" />
    <glyph glyph-name="longs_s" unicode="&#xf4fd;" horiz-adv-x="634" 
d="M366 676q-2 -11 -12.5 -30.5t-24 -41.5t-26.5 -43t-19 -33q-30 -7 -60 -5.5t-60 1.5h-15.5t-15.5 -1l-22 -38t-11 -42q13 -13 29 -13.5t30 -8t23.5 -32.5t9.5 -86q0 -75 0.5 -151t-4.5 -150q-2 -45 -17 -89.5t-24 -88.5q-2 -10 -7 -19t-15 -14l-9 8q-23 49 -35.5 112
t-18.5 129.5t-7 131.5t-1 119v21.5t-1 21.5q-5 10 -19 10t-24 1q2 15 12.5 27t17.5 25q31 58 62.5 117.5t66.5 115.5q2 4 6.5 7.5t9.5 3.5q29 0 57 -2.5t57 -2.5q16 0 23.5 6t13 13.5t12 14t18.5 6.5zM602 478q1 -6 1.5 -12t0.5 -11q0 -38 -17 -63t-44 -41q4 -7 8 -16t7 -18
q6 -19 17.5 -30t22.5 -21.5t19 -24t8 -38.5q0 -30 -21 -59.5t-51 -56.5t-62 -49.5t-54 -38.5q-32 8 -66.5 13t-67.5 5q-31 0 -43 -10.5t-23 -26.5l-21 1q4 8 15 22t23 28.5t21 27.5t9 18q0 13 -5.5 34t-5.5 53q0 6 -5 14t-10.5 18.5t-10.5 25t-5 33.5q0 33 14.5 58t37 44.5
t49.5 35t51 30.5q10 6 22 17t24 11q10 0 23 -5t27 -11.5t28.5 -11.5t29.5 -5q21 0 28 14t7 49zM325 346q0 -19 7 -34t18 -28.5t24 -25.5t25 -24q10 3 35 11t49.5 18.5t42.5 23t14 23.5l-13 30q-22 -5 -40.5 -7.5t-40.5 5.5q-9 3 -22 9t-27 12t-26.5 10.5t-21.5 4.5
q-13 0 -18.5 -8.5t-5.5 -19.5zM295 110q5 7 22.5 8t41 -0.5t50.5 -5.5t50.5 -8.5t40.5 -7.5t22 -3q4 0 14 2q16 13 7 34.5t-27.5 42.5t-41 36t-33.5 15q-8 0 -28.5 -7.5t-43 -17.5t-42.5 -19t-27 -13q-5 -3 -7 -9.5t-2 -14.5t1.5 -16.5t2.5 -15.5z" />
    <glyph glyph-name="longs_longs_k" unicode="&#xf4fe;" horiz-adv-x="802" 
d="M251 646q-11 -28 -18.5 -60t-22.5 -58q-11 1 -23 1.5t-23 0.5q-30 0 -43.5 -3t-19 -12t-7 -25t-8.5 -41q17 -12 35 -16.5t33 -12t24.5 -21t9.5 -43.5q0 -81 -3 -160t-3 -160q0 -9 -3 -30.5t-8 -48.5t-11.5 -55.5t-14.5 -52.5t-16.5 -40.5t-17.5 -17.5q-22 73 -33.5 138.5
t-17 130.5t-7 132t-2.5 142q-10 2 -19.5 2.5t-19.5 2.5l-2 17l5 11q22 16 37 49.5t27 73t21 79t19 66.5q31 7 62.5 9t63.5 8zM461 646q-11 -28 -18.5 -60t-22.5 -58q-11 1 -23 1.5t-23 0.5q-30 0 -43.5 -3t-19 -12t-7 -25t-8.5 -41q17 -12 35 -16.5t33 -12t24.5 -21
t9.5 -43.5q0 -81 -3 -160t-3 -160q0 -9 -3 -30.5t-8 -48.5t-11.5 -55.5t-14.5 -52.5t-16.5 -40.5t-17.5 -17.5q-22 73 -33.5 138.5t-17 130.5t-7 132t-2.5 142q-10 2 -19.5 2.5t-19.5 2.5l-2 17l5 11q22 16 37 49.5t27 73t21 79t19 66.5q31 7 62.5 9t63.5 8zM447 651
q10 -8 19.5 -20t18 -24t14.5 -23.5t9 -18.5q7 15 16 36.5t28 41t52.5 33.5t89.5 14q24 0 50.5 -6.5t48.5 -16.5l-8 -24q-16 8 -34.5 15.5t-42.5 7.5q-45 0 -65.5 -20t-20.5 -64v-29l129 72q17 -15 29 -36.5t12 -44.5q0 -31 -14 -52.5t-34.5 -37.5t-44.5 -28.5t-45 -25.5
l119 1l-1 -51h-150v-209q-1 -12 12 -23.5t30.5 -20.5t34.5 -14t25 -4q10 1 22.5 9.5t26.5 16.5l13 -17q-14 -12 -39.5 -28t-51.5 -30.5t-47.5 -24.5t-27.5 -10h-14q-35 22 -70.5 41.5t-78.5 22.5v17q17 9 28.5 21t10.5 32v221h-63l1 50h63l1 28q1 32 -0.5 60.5t-8.5 54
t-20 48.5t-35 45zM655 545q-20 -6 -26.5 -13.5t-6.5 -16.5l1 -95q25 7 43 24.5t18 44.5q0 7 -1.5 16.5t-4.5 18.5t-8.5 15t-14.5 6z" />
    <glyph glyph-name="longs_longs_t" unicode="&#xf4ff;" horiz-adv-x="726" 
d="M251 646q-11 -28 -18.5 -60t-22.5 -58q-11 1 -23 1.5t-23 0.5q-30 0 -43.5 -3t-19 -12t-7 -25t-8.5 -41q17 -12 35 -16.5t33 -12t24.5 -21t9.5 -43.5q0 -81 -3 -160t-3 -160q0 -9 -3 -30.5t-8 -48.5t-11.5 -55.5t-14.5 -52.5t-16.5 -40.5t-17.5 -17.5q-22 73 -33.5 138.5
t-17 130.5t-7 132t-2.5 142q-10 2 -19.5 2.5t-19.5 2.5l-2 17l5 11q22 16 37 49.5t27 73t21 79t19 66.5q31 7 62.5 9t63.5 8zM461 646q-11 -28 -18.5 -60t-22.5 -58q-11 1 -23 1.5t-23 0.5q-30 0 -43.5 -3t-19 -12t-7 -25t-8.5 -41q17 -12 35 -16.5t33 -12t24.5 -21
t9.5 -43.5q0 -81 -3 -160t-3 -160q0 -9 -3 -30.5t-8 -48.5t-11.5 -55.5t-14.5 -52.5t-16.5 -40.5t-17.5 -17.5q-22 73 -33.5 138.5t-17 130.5t-7 132t-2.5 142q-10 2 -19.5 2.5t-19.5 2.5l-2 17l5 11q22 16 37 49.5t27 73t21 79t19 66.5q31 7 62.5 9t63.5 8zM444 85
q21 3 29 15t9 29v221h-53v51h53v65q0 1 13.5 14.5t32.5 33t42 43t43 44t34 35t16 16.5l19 -11q-9 -10 -21 -23.5t-23.5 -28t-19 -28.5t-7.5 -24v-136h94v-51h-94v-196q0 -13 6 -25t15 -21t20 -14.5t22 -5.5q10 0 20.5 7.5t20.5 18.5l11 -16q-11 -11 -34 -29.5t-48 -36.5
t-46 -31t-26 -13q-6 0 -20 11.5t-32.5 26t-38.5 26.5t-37 14v19z" />
    </font>
</defs>
</svg>
